%TF.GenerationSoftware,KiCad,Pcbnew,7.0.2*%
%TF.CreationDate,2023-04-22T18:48:38+01:00*%
%TF.ProjectId,zigbee-led-controller,7a696762-6565-42d6-9c65-642d636f6e74,1*%
%TF.SameCoordinates,Original*%
%TF.FileFunction,Soldermask,Top*%
%TF.FilePolarity,Negative*%
%FSLAX46Y46*%
G04 Gerber Fmt 4.6, Leading zero omitted, Abs format (unit mm)*
G04 Created by KiCad (PCBNEW 7.0.2) date 2023-04-22 18:48:38*
%MOMM*%
%LPD*%
G01*
G04 APERTURE LIST*
G04 Aperture macros list*
%AMRoundRect*
0 Rectangle with rounded corners*
0 $1 Rounding radius*
0 $2 $3 $4 $5 $6 $7 $8 $9 X,Y pos of 4 corners*
0 Add a 4 corners polygon primitive as box body*
4,1,4,$2,$3,$4,$5,$6,$7,$8,$9,$2,$3,0*
0 Add four circle primitives for the rounded corners*
1,1,$1+$1,$2,$3*
1,1,$1+$1,$4,$5*
1,1,$1+$1,$6,$7*
1,1,$1+$1,$8,$9*
0 Add four rect primitives between the rounded corners*
20,1,$1+$1,$2,$3,$4,$5,0*
20,1,$1+$1,$4,$5,$6,$7,0*
20,1,$1+$1,$6,$7,$8,$9,0*
20,1,$1+$1,$8,$9,$2,$3,0*%
%AMFreePoly0*
4,1,19,0.500000,-0.750000,0.000000,-0.750000,0.000000,-0.744911,-0.071157,-0.744911,-0.207708,-0.704816,-0.327430,-0.627875,-0.420627,-0.520320,-0.479746,-0.390866,-0.500000,-0.250000,-0.500000,0.250000,-0.479746,0.390866,-0.420627,0.520320,-0.327430,0.627875,-0.207708,0.704816,-0.071157,0.744911,0.000000,0.744911,0.000000,0.750000,0.500000,0.750000,0.500000,-0.750000,0.500000,-0.750000,
$1*%
%AMFreePoly1*
4,1,19,0.000000,0.744911,0.071157,0.744911,0.207708,0.704816,0.327430,0.627875,0.420627,0.520320,0.479746,0.390866,0.500000,0.250000,0.500000,-0.250000,0.479746,-0.390866,0.420627,-0.520320,0.327430,-0.627875,0.207708,-0.704816,0.071157,-0.744911,0.000000,-0.744911,0.000000,-0.750000,-0.500000,-0.750000,-0.500000,0.750000,0.000000,0.750000,0.000000,0.744911,0.000000,0.744911,
$1*%
G04 Aperture macros list end*
%ADD10FreePoly0,0.000000*%
%ADD11FreePoly1,0.000000*%
%ADD12RoundRect,0.237500X-0.287500X-0.237500X0.287500X-0.237500X0.287500X0.237500X-0.287500X0.237500X0*%
%ADD13R,1.700000X1.700000*%
%ADD14O,1.700000X1.700000*%
%ADD15R,1.854500X2.286000*%
%ADD16R,1.700000X0.800000*%
%ADD17RoundRect,0.237500X0.250000X0.237500X-0.250000X0.237500X-0.250000X-0.237500X0.250000X-0.237500X0*%
%ADD18RoundRect,0.150000X-0.825000X-0.150000X0.825000X-0.150000X0.825000X0.150000X-0.825000X0.150000X0*%
%ADD19C,2.000000*%
%ADD20RoundRect,0.237500X0.237500X-0.250000X0.237500X0.250000X-0.237500X0.250000X-0.237500X-0.250000X0*%
%ADD21RoundRect,0.237500X-0.237500X0.250000X-0.237500X-0.250000X0.237500X-0.250000X0.237500X0.250000X0*%
%ADD22O,0.800000X0.800000*%
%ADD23R,1.300000X0.450000*%
%ADD24O,1.800000X1.150000*%
%ADD25O,2.000000X1.450000*%
%ADD26RoundRect,0.237500X0.237500X-0.287500X0.237500X0.287500X-0.237500X0.287500X-0.237500X-0.287500X0*%
%ADD27RoundRect,0.150000X-0.512500X-0.150000X0.512500X-0.150000X0.512500X0.150000X-0.512500X0.150000X0*%
%ADD28RoundRect,0.237500X0.300000X0.237500X-0.300000X0.237500X-0.300000X-0.237500X0.300000X-0.237500X0*%
%ADD29R,1.800000X1.800000*%
%ADD30C,1.800000*%
%ADD31RoundRect,0.250000X0.337500X0.475000X-0.337500X0.475000X-0.337500X-0.475000X0.337500X-0.475000X0*%
%ADD32RoundRect,0.250000X-0.337500X-0.475000X0.337500X-0.475000X0.337500X0.475000X-0.337500X0.475000X0*%
%ADD33FreePoly0,270.000000*%
%ADD34FreePoly1,270.000000*%
%ADD35O,1.800000X2.750000*%
%ADD36C,1.397000*%
%ADD37O,2.000000X4.000000*%
%ADD38O,4.000000X2.000000*%
%ADD39RoundRect,0.237500X-0.250000X-0.237500X0.250000X-0.237500X0.250000X0.237500X-0.250000X0.237500X0*%
%ADD40C,0.900000*%
%ADD41C,0.700000*%
G04 APERTURE END LIST*
D10*
%TO.C,JP3*%
X113509100Y-43815000D03*
D11*
X114809100Y-43815000D03*
%TD*%
D12*
%TO.C,D3*%
X75453100Y-38100000D03*
X77203100Y-38100000D03*
%TD*%
D13*
%TO.C,JP2*%
X120016100Y-36068000D03*
D14*
X120016100Y-38608000D03*
X120016100Y-41148000D03*
%TD*%
D15*
%TO.C,L1*%
X59296350Y-56642000D03*
X63080850Y-56642000D03*
%TD*%
D16*
%TO.C,RST*%
X74168000Y-61624000D03*
X74168000Y-65024000D03*
%TD*%
D17*
%TO.C,R14*%
X104188100Y-49784000D03*
X102363100Y-49784000D03*
%TD*%
D18*
%TO.C,U1*%
X60813600Y-36957000D03*
X60813600Y-38227000D03*
X60813600Y-39497000D03*
X60813600Y-40767000D03*
X65763600Y-40767000D03*
X65763600Y-39497000D03*
X65763600Y-38227000D03*
X65763600Y-36957000D03*
%TD*%
D19*
%TO.C,SCL*%
X61342100Y-43688000D03*
%TD*%
D17*
%TO.C,R7*%
X114983100Y-51689000D03*
X113158100Y-51689000D03*
%TD*%
D19*
%TO.C,SDA*%
X66144600Y-43688000D03*
%TD*%
D20*
%TO.C,R20*%
X107189100Y-62912000D03*
X107189100Y-61087000D03*
%TD*%
D13*
%TO.C,J2*%
X93218000Y-35814000D03*
D14*
X95758000Y-35814000D03*
%TD*%
D21*
%TO.C,R4*%
X86361100Y-37532250D03*
X86361100Y-39357250D03*
%TD*%
D10*
%TO.C,JP5*%
X113532600Y-55245000D03*
D11*
X114832600Y-55245000D03*
%TD*%
D22*
%TO.C,J6*%
X40908100Y-35956000D03*
X40908100Y-40956000D03*
D23*
X42008100Y-37156000D03*
X42008100Y-37806000D03*
X42008100Y-38456000D03*
X42008100Y-39106000D03*
X42008100Y-39756000D03*
D24*
X38158100Y-34581000D03*
D25*
X41958100Y-34731000D03*
X41958100Y-42181000D03*
D24*
X38158100Y-42331000D03*
%TD*%
D17*
%TO.C,R3*%
X69724100Y-39370000D03*
X67899100Y-39370000D03*
%TD*%
%TO.C,R10*%
X118562600Y-57404000D03*
X116737600Y-57404000D03*
%TD*%
D20*
%TO.C,R19*%
X107259600Y-57300500D03*
X107259600Y-55475500D03*
%TD*%
D26*
%TO.C,D1*%
X81535100Y-39216250D03*
X81535100Y-37466250D03*
%TD*%
D13*
%TO.C,J3*%
X38793100Y-54092000D03*
D14*
X38793100Y-51552000D03*
X38793100Y-49012000D03*
X38793100Y-46472000D03*
%TD*%
D27*
%TO.C,Q3*%
X109175600Y-55438000D03*
X109175600Y-57338000D03*
X111450600Y-56388000D03*
%TD*%
D17*
%TO.C,R11*%
X115063100Y-62992000D03*
X113238100Y-62992000D03*
%TD*%
D28*
%TO.C,C2*%
X56971100Y-54483000D03*
X55246100Y-54483000D03*
%TD*%
D29*
%TO.C,J4*%
X124206000Y-46228000D03*
D30*
X124206000Y-48768000D03*
X124206000Y-51308000D03*
X124206000Y-53848000D03*
X124206000Y-56388000D03*
%TD*%
D19*
%TO.C,GND*%
X55727600Y-64135000D03*
%TD*%
D31*
%TO.C,C4*%
X61188600Y-60037000D03*
X59113600Y-60037000D03*
%TD*%
D13*
%TO.C,JP1*%
X69824600Y-60960000D03*
D14*
X69824600Y-58420000D03*
%TD*%
D26*
%TO.C,D2*%
X52806600Y-65541500D03*
X52806600Y-63791500D03*
%TD*%
D27*
%TO.C,Q2*%
X109001600Y-49723000D03*
X109001600Y-51623000D03*
X111276600Y-50673000D03*
%TD*%
D10*
%TO.C,JP4*%
X113435600Y-49403000D03*
D11*
X114735600Y-49403000D03*
%TD*%
D19*
%TO.C,3v3*%
X83820000Y-35560000D03*
%TD*%
D13*
%TO.C,J1*%
X81793000Y-64770000D03*
D14*
X79253000Y-64770000D03*
%TD*%
D27*
%TO.C,Q1*%
X109084600Y-44008000D03*
X109084600Y-45908000D03*
X111359600Y-44958000D03*
%TD*%
D32*
%TO.C,C5*%
X54563100Y-60071000D03*
X56638100Y-60071000D03*
%TD*%
D17*
%TO.C,R5*%
X115071600Y-45974000D03*
X113246600Y-45974000D03*
%TD*%
%TO.C,R9*%
X115133600Y-57404000D03*
X113308600Y-57404000D03*
%TD*%
D20*
%TO.C,R18*%
X107085600Y-51609000D03*
X107085600Y-49784000D03*
%TD*%
D33*
%TO.C,JP7*%
X45651100Y-38045000D03*
D34*
X45651100Y-39345000D03*
%TD*%
D17*
%TO.C,R15*%
X104235100Y-55499000D03*
X102410100Y-55499000D03*
%TD*%
%TO.C,R16*%
X104164600Y-61087000D03*
X102339600Y-61087000D03*
%TD*%
D20*
%TO.C,R22*%
X78868100Y-40536500D03*
X78868100Y-38711500D03*
%TD*%
D35*
%TO.C,U2*%
X78841513Y-59322600D03*
X81381513Y-59322600D03*
X83921513Y-59322600D03*
X86461513Y-59322600D03*
X89001513Y-59322600D03*
X91541513Y-59322600D03*
X94081513Y-59322600D03*
X94081513Y-43132680D03*
X91541513Y-43132680D03*
X89001513Y-43132680D03*
X86461513Y-43132680D03*
X83921513Y-43132680D03*
X81381513Y-43132680D03*
X78841513Y-43132680D03*
D36*
X77889513Y-52497640D03*
X77889513Y-49957640D03*
X80429513Y-52497640D03*
X80429513Y-49957640D03*
X86144513Y-55672640D03*
X84239513Y-55672640D03*
X95669513Y-47417640D03*
X95669513Y-45512640D03*
%TD*%
D10*
%TO.C,JP8*%
X46848000Y-35560000D03*
D11*
X48148000Y-35560000D03*
%TD*%
D13*
%TO.C,J5*%
X38793100Y-39920000D03*
D14*
X38793100Y-37380000D03*
%TD*%
D27*
%TO.C,U3*%
X54595600Y-56139000D03*
X54595600Y-57089000D03*
X54595600Y-58039000D03*
X56870600Y-58039000D03*
X56870600Y-57089000D03*
X56870600Y-56139000D03*
%TD*%
D17*
%TO.C,R13*%
X104276600Y-44069000D03*
X102451600Y-44069000D03*
%TD*%
D21*
%TO.C,R1*%
X67795600Y-35513000D03*
X67795600Y-37338000D03*
%TD*%
%TO.C,R21*%
X52806600Y-60198000D03*
X52806600Y-62023000D03*
%TD*%
D31*
%TO.C,C3*%
X61188600Y-62357000D03*
X59113600Y-62357000D03*
%TD*%
D28*
%TO.C,C1*%
X64086100Y-35306000D03*
X62361100Y-35306000D03*
%TD*%
D26*
%TO.C,D4*%
X89790100Y-36548000D03*
X89790100Y-34798000D03*
%TD*%
D17*
%TO.C,R8*%
X118435600Y-51689000D03*
X116610600Y-51689000D03*
%TD*%
D10*
%TO.C,JP6*%
X113515600Y-60833000D03*
D11*
X114815600Y-60833000D03*
%TD*%
D37*
%TO.C,J7*%
X49254600Y-60960000D03*
D38*
X46454600Y-65560000D03*
D37*
X43154600Y-60960000D03*
%TD*%
D19*
%TO.C,5V*%
X65506600Y-61087000D03*
%TD*%
D20*
%TO.C,R17*%
X107174100Y-45870500D03*
X107174100Y-44045500D03*
%TD*%
D39*
%TO.C,R23*%
X86337600Y-34798000D03*
X88162600Y-34798000D03*
%TD*%
D17*
%TO.C,R12*%
X118492100Y-62992000D03*
X116667100Y-62992000D03*
%TD*%
D27*
%TO.C,Q4*%
X109105100Y-61026000D03*
X109105100Y-62926000D03*
X111380100Y-61976000D03*
%TD*%
D17*
%TO.C,R2*%
X69724100Y-40894000D03*
X67899100Y-40894000D03*
%TD*%
%TO.C,R6*%
X118524100Y-45974000D03*
X116699100Y-45974000D03*
%TD*%
D40*
X69596000Y-35560000D03*
X83820000Y-40132000D03*
X65786000Y-35306000D03*
X71120000Y-40894000D03*
X70104000Y-37846000D03*
D41*
X89662000Y-38354000D03*
D40*
X107188000Y-53340000D03*
D41*
X71628000Y-65532000D03*
D40*
X107188000Y-59182000D03*
X59182000Y-64262000D03*
D41*
X81381513Y-40640000D03*
X58166000Y-40894000D03*
X58166000Y-37338000D03*
D40*
X107188000Y-47498000D03*
D41*
X60452000Y-35306000D03*
D40*
X107188000Y-64770000D03*
D41*
X58166000Y-37338000D03*
X75438000Y-39624000D03*
X53086000Y-56134000D03*
X61468000Y-56642000D03*
X77216000Y-60960000D03*
X76454000Y-61468000D03*
X94234000Y-54864000D03*
X98044000Y-44958000D03*
X72009000Y-52705000D03*
X69824600Y-54889400D03*
D40*
X40386000Y-37338000D03*
D41*
X49784000Y-35560000D03*
X70358000Y-46736000D03*
X70358000Y-46736000D03*
X64135000Y-39497000D03*
X70993000Y-45085000D03*
X74168000Y-58420000D03*
M02*
