%TF.GenerationSoftware,KiCad,Pcbnew,7.0.2*%
%TF.CreationDate,2023-04-22T18:48:37+01:00*%
%TF.ProjectId,zigbee-led-controller,7a696762-6565-42d6-9c65-642d636f6e74,1*%
%TF.SameCoordinates,Original*%
%TF.FileFunction,Paste,Top*%
%TF.FilePolarity,Positive*%
%FSLAX46Y46*%
G04 Gerber Fmt 4.6, Leading zero omitted, Abs format (unit mm)*
G04 Created by KiCad (PCBNEW 7.0.2) date 2023-04-22 18:48:37*
%MOMM*%
%LPD*%
G01*
G04 APERTURE LIST*
G04 Aperture macros list*
%AMRoundRect*
0 Rectangle with rounded corners*
0 $1 Rounding radius*
0 $2 $3 $4 $5 $6 $7 $8 $9 X,Y pos of 4 corners*
0 Add a 4 corners polygon primitive as box body*
4,1,4,$2,$3,$4,$5,$6,$7,$8,$9,$2,$3,0*
0 Add four circle primitives for the rounded corners*
1,1,$1+$1,$2,$3*
1,1,$1+$1,$4,$5*
1,1,$1+$1,$6,$7*
1,1,$1+$1,$8,$9*
0 Add four rect primitives between the rounded corners*
20,1,$1+$1,$2,$3,$4,$5,0*
20,1,$1+$1,$4,$5,$6,$7,0*
20,1,$1+$1,$6,$7,$8,$9,0*
20,1,$1+$1,$8,$9,$2,$3,0*%
G04 Aperture macros list end*
%ADD10RoundRect,0.237500X-0.287500X-0.237500X0.287500X-0.237500X0.287500X0.237500X-0.287500X0.237500X0*%
%ADD11R,1.854500X2.286000*%
%ADD12R,1.700000X0.800000*%
%ADD13RoundRect,0.237500X0.250000X0.237500X-0.250000X0.237500X-0.250000X-0.237500X0.250000X-0.237500X0*%
%ADD14RoundRect,0.150000X-0.825000X-0.150000X0.825000X-0.150000X0.825000X0.150000X-0.825000X0.150000X0*%
%ADD15RoundRect,0.237500X0.237500X-0.250000X0.237500X0.250000X-0.237500X0.250000X-0.237500X-0.250000X0*%
%ADD16RoundRect,0.237500X-0.237500X0.250000X-0.237500X-0.250000X0.237500X-0.250000X0.237500X0.250000X0*%
%ADD17R,1.300000X0.450000*%
%ADD18RoundRect,0.237500X0.237500X-0.287500X0.237500X0.287500X-0.237500X0.287500X-0.237500X-0.287500X0*%
%ADD19RoundRect,0.150000X-0.512500X-0.150000X0.512500X-0.150000X0.512500X0.150000X-0.512500X0.150000X0*%
%ADD20RoundRect,0.237500X0.300000X0.237500X-0.300000X0.237500X-0.300000X-0.237500X0.300000X-0.237500X0*%
%ADD21RoundRect,0.250000X0.337500X0.475000X-0.337500X0.475000X-0.337500X-0.475000X0.337500X-0.475000X0*%
%ADD22RoundRect,0.250000X-0.337500X-0.475000X0.337500X-0.475000X0.337500X0.475000X-0.337500X0.475000X0*%
%ADD23O,1.800000X2.750000*%
%ADD24RoundRect,0.237500X-0.250000X-0.237500X0.250000X-0.237500X0.250000X0.237500X-0.250000X0.237500X0*%
G04 APERTURE END LIST*
D10*
%TO.C,D3*%
X75453100Y-38100000D03*
X77203100Y-38100000D03*
%TD*%
D11*
%TO.C,L1*%
X59296350Y-56642000D03*
X63080850Y-56642000D03*
%TD*%
D12*
%TO.C,RST*%
X74168000Y-61624000D03*
X74168000Y-65024000D03*
%TD*%
D13*
%TO.C,R14*%
X104188100Y-49784000D03*
X102363100Y-49784000D03*
%TD*%
D14*
%TO.C,U1*%
X60813600Y-36957000D03*
X60813600Y-38227000D03*
X60813600Y-39497000D03*
X60813600Y-40767000D03*
X65763600Y-40767000D03*
X65763600Y-39497000D03*
X65763600Y-38227000D03*
X65763600Y-36957000D03*
%TD*%
D13*
%TO.C,R7*%
X114983100Y-51689000D03*
X113158100Y-51689000D03*
%TD*%
D15*
%TO.C,R20*%
X107189100Y-62912000D03*
X107189100Y-61087000D03*
%TD*%
D16*
%TO.C,R4*%
X86361100Y-37532250D03*
X86361100Y-39357250D03*
%TD*%
D17*
%TO.C,J6*%
X42008100Y-37156000D03*
X42008100Y-37806000D03*
X42008100Y-38456000D03*
X42008100Y-39106000D03*
X42008100Y-39756000D03*
%TD*%
D13*
%TO.C,R3*%
X69724100Y-39370000D03*
X67899100Y-39370000D03*
%TD*%
%TO.C,R10*%
X118562600Y-57404000D03*
X116737600Y-57404000D03*
%TD*%
D15*
%TO.C,R19*%
X107259600Y-57300500D03*
X107259600Y-55475500D03*
%TD*%
D18*
%TO.C,D1*%
X81535100Y-39216250D03*
X81535100Y-37466250D03*
%TD*%
D19*
%TO.C,Q3*%
X109175600Y-55438000D03*
X109175600Y-57338000D03*
X111450600Y-56388000D03*
%TD*%
D13*
%TO.C,R11*%
X115063100Y-62992000D03*
X113238100Y-62992000D03*
%TD*%
D20*
%TO.C,C2*%
X56971100Y-54483000D03*
X55246100Y-54483000D03*
%TD*%
D21*
%TO.C,C4*%
X61188600Y-60037000D03*
X59113600Y-60037000D03*
%TD*%
D18*
%TO.C,D2*%
X52806600Y-65541500D03*
X52806600Y-63791500D03*
%TD*%
D19*
%TO.C,Q2*%
X109001600Y-49723000D03*
X109001600Y-51623000D03*
X111276600Y-50673000D03*
%TD*%
%TO.C,Q1*%
X109084600Y-44008000D03*
X109084600Y-45908000D03*
X111359600Y-44958000D03*
%TD*%
D22*
%TO.C,C5*%
X54563100Y-60071000D03*
X56638100Y-60071000D03*
%TD*%
D13*
%TO.C,R5*%
X115071600Y-45974000D03*
X113246600Y-45974000D03*
%TD*%
%TO.C,R9*%
X115133600Y-57404000D03*
X113308600Y-57404000D03*
%TD*%
D15*
%TO.C,R18*%
X107085600Y-51609000D03*
X107085600Y-49784000D03*
%TD*%
D13*
%TO.C,R15*%
X104235100Y-55499000D03*
X102410100Y-55499000D03*
%TD*%
%TO.C,R16*%
X104164600Y-61087000D03*
X102339600Y-61087000D03*
%TD*%
D15*
%TO.C,R22*%
X78868100Y-40536500D03*
X78868100Y-38711500D03*
%TD*%
D23*
%TO.C,U2*%
X78841513Y-59322600D03*
X81381513Y-59322600D03*
X83921513Y-59322600D03*
X86461513Y-59322600D03*
X89001513Y-59322600D03*
X91541513Y-59322600D03*
X94081513Y-59322600D03*
X94081513Y-43132680D03*
X91541513Y-43132680D03*
X89001513Y-43132680D03*
X86461513Y-43132680D03*
X83921513Y-43132680D03*
X81381513Y-43132680D03*
X78841513Y-43132680D03*
%TD*%
D19*
%TO.C,U3*%
X54595600Y-56139000D03*
X54595600Y-57089000D03*
X54595600Y-58039000D03*
X56870600Y-58039000D03*
X56870600Y-57089000D03*
X56870600Y-56139000D03*
%TD*%
D13*
%TO.C,R13*%
X104276600Y-44069000D03*
X102451600Y-44069000D03*
%TD*%
D16*
%TO.C,R1*%
X67795600Y-35513000D03*
X67795600Y-37338000D03*
%TD*%
%TO.C,R21*%
X52806600Y-60198000D03*
X52806600Y-62023000D03*
%TD*%
D21*
%TO.C,C3*%
X61188600Y-62357000D03*
X59113600Y-62357000D03*
%TD*%
D20*
%TO.C,C1*%
X64086100Y-35306000D03*
X62361100Y-35306000D03*
%TD*%
D18*
%TO.C,D4*%
X89790100Y-36548000D03*
X89790100Y-34798000D03*
%TD*%
D13*
%TO.C,R8*%
X118435600Y-51689000D03*
X116610600Y-51689000D03*
%TD*%
D15*
%TO.C,R17*%
X107174100Y-45870500D03*
X107174100Y-44045500D03*
%TD*%
D24*
%TO.C,R23*%
X86337600Y-34798000D03*
X88162600Y-34798000D03*
%TD*%
D13*
%TO.C,R12*%
X118492100Y-62992000D03*
X116667100Y-62992000D03*
%TD*%
D19*
%TO.C,Q4*%
X109105100Y-61026000D03*
X109105100Y-62926000D03*
X111380100Y-61976000D03*
%TD*%
D13*
%TO.C,R2*%
X69724100Y-40894000D03*
X67899100Y-40894000D03*
%TD*%
%TO.C,R6*%
X118524100Y-45974000D03*
X116699100Y-45974000D03*
%TD*%
M02*
