M48
; DRILL file {KiCad 7.0.1} date Tue 11 Apr 2023 18:39:16 BST
; FORMAT={-:-/ absolute / metric / decimal}
; #@! TF.CreationDate,2023-04-11T18:39:16+01:00
; #@! TF.GenerationSoftware,Kicad,Pcbnew,7.0.1
; #@! TF.FileFunction,Plated,1,2,PTH
FMAT,2
METRIC
; #@! TA.AperFunction,Plated,PTH,ViaDrill
T1C0.300
; #@! TA.AperFunction,Plated,PTH,ViaDrill
T2C0.400
; #@! TA.AperFunction,Plated,PTH,ComponentDrill
T3C0.550
; #@! TA.AperFunction,Plated,PTH,ComponentDrill
T4C0.800
; #@! TA.AperFunction,Plated,PTH,ComponentDrill
T5C0.850
; #@! TA.AperFunction,Plated,PTH,ComponentDrill
T6C1.000
; #@! TA.AperFunction,Plated,PTH,ComponentDrill
T7C1.016
; #@! TA.AperFunction,Plated,PTH,ComponentDrill
T8C1.200
%
G90
G05
T1
X49.784Y-35.56
X53.086Y-56.134
X58.166Y-37.338
X58.166Y-37.338
X58.166Y-40.894
X60.452Y-35.306
X61.468Y-56.642
X64.135Y-39.497
X69.825Y-54.889
X70.358Y-46.736
X70.358Y-46.736
X70.993Y-45.085
X71.628Y-65.532
X72.009Y-52.705
X74.168Y-58.42
X75.438Y-39.624
X76.454Y-61.468
X77.216Y-60.96
X81.382Y-40.64
X89.662Y-38.354
X94.234Y-54.864
X98.044Y-44.958
T2
X40.386Y-37.338
X59.182Y-64.262
X65.786Y-35.306
X69.596Y-35.56
X70.104Y-37.846
X71.12Y-40.894
X83.82Y-40.132
X107.188Y-47.498
X107.188Y-53.34
X107.188Y-59.182
X107.188Y-64.77
T6
X38.793Y-37.38
X38.793Y-39.92
X38.793Y-46.472
X38.793Y-49.012
X38.793Y-51.552
X38.793Y-54.092
X55.728Y-64.135
X61.342Y-43.688
X65.507Y-61.087
X66.145Y-43.688
X69.825Y-58.42
X69.825Y-60.96
X79.253Y-64.77
X81.793Y-64.77
X83.82Y-35.56
X93.218Y-35.814
X95.758Y-35.814
X120.016Y-36.068
X120.016Y-38.608
X120.016Y-41.148
T7
X77.89Y-49.958
X77.89Y-52.498
X80.43Y-49.958
X80.43Y-52.498
X84.24Y-55.673
X86.145Y-55.673
X95.67Y-45.513
X95.67Y-47.418
T8
X124.206Y-46.228
X124.206Y-48.768
X124.206Y-51.308
X124.206Y-53.848
X124.206Y-56.388
T3
G00X38.483Y-34.581
M15
G01X37.833Y-34.581
M16
G05
G00X38.483Y-42.331
M15
G01X37.833Y-42.331
M16
G05
T4
G00X43.155Y-59.86
M15
G01X43.155Y-62.06
M16
G05
G00X45.355Y-65.56
M15
G01X47.555Y-65.56
M16
G05
G00X49.255Y-59.86
M15
G01X49.255Y-62.06
M16
G05
T5
G00X42.233Y-34.731
M15
G01X41.683Y-34.731
M16
G05
G00X42.233Y-42.181
M15
G01X41.683Y-42.181
M16
G05
T0
M30
