%TF.GenerationSoftware,KiCad,Pcbnew,7.0.1*%
%TF.CreationDate,2023-04-11T18:42:34+01:00*%
%TF.ProjectId,zigbee-led-controller,7a696762-6565-42d6-9c65-642d636f6e74,1*%
%TF.SameCoordinates,Original*%
%TF.FileFunction,Legend,Top*%
%TF.FilePolarity,Positive*%
%FSLAX46Y46*%
G04 Gerber Fmt 4.6, Leading zero omitted, Abs format (unit mm)*
G04 Created by KiCad (PCBNEW 7.0.1) date 2023-04-11 18:42:34*
%MOMM*%
%LPD*%
G01*
G04 APERTURE LIST*
%ADD10C,0.150000*%
%ADD11C,0.300000*%
%ADD12C,0.200000*%
%ADD13C,0.127000*%
%ADD14C,0.120000*%
G04 APERTURE END LIST*
D10*
X95072190Y-32884095D02*
X95529333Y-32884095D01*
X95300761Y-33684095D02*
X95300761Y-32884095D01*
X95719809Y-32884095D02*
X96253143Y-33684095D01*
X96253143Y-32884095D02*
X95719809Y-33684095D01*
X92849619Y-33684095D02*
X92582952Y-33303142D01*
X92392476Y-33684095D02*
X92392476Y-32884095D01*
X92392476Y-32884095D02*
X92697238Y-32884095D01*
X92697238Y-32884095D02*
X92773428Y-32922190D01*
X92773428Y-32922190D02*
X92811523Y-32960285D01*
X92811523Y-32960285D02*
X92849619Y-33036476D01*
X92849619Y-33036476D02*
X92849619Y-33150761D01*
X92849619Y-33150761D02*
X92811523Y-33226952D01*
X92811523Y-33226952D02*
X92773428Y-33265047D01*
X92773428Y-33265047D02*
X92697238Y-33303142D01*
X92697238Y-33303142D02*
X92392476Y-33303142D01*
X93116285Y-32884095D02*
X93649619Y-33684095D01*
X93649619Y-32884095D02*
X93116285Y-33684095D01*
X122250190Y-37964095D02*
X122516857Y-38764095D01*
X122516857Y-38764095D02*
X122783523Y-37964095D01*
X122859714Y-38840285D02*
X123469237Y-38840285D01*
X124040666Y-38764095D02*
X123659714Y-38764095D01*
X123659714Y-38764095D02*
X123659714Y-37964095D01*
X124307333Y-38345047D02*
X124573999Y-38345047D01*
X124688285Y-38764095D02*
X124307333Y-38764095D01*
X124307333Y-38764095D02*
X124307333Y-37964095D01*
X124307333Y-37964095D02*
X124688285Y-37964095D01*
X125031143Y-38764095D02*
X125031143Y-37964095D01*
X125031143Y-37964095D02*
X125221619Y-37964095D01*
X125221619Y-37964095D02*
X125335905Y-38002190D01*
X125335905Y-38002190D02*
X125412095Y-38078380D01*
X125412095Y-38078380D02*
X125450190Y-38154571D01*
X125450190Y-38154571D02*
X125488286Y-38306952D01*
X125488286Y-38306952D02*
X125488286Y-38421238D01*
X125488286Y-38421238D02*
X125450190Y-38573619D01*
X125450190Y-38573619D02*
X125412095Y-38649809D01*
X125412095Y-38649809D02*
X125335905Y-38726000D01*
X125335905Y-38726000D02*
X125221619Y-38764095D01*
X125221619Y-38764095D02*
X125031143Y-38764095D01*
X122745428Y-40758095D02*
X122364476Y-40758095D01*
X122364476Y-40758095D02*
X122326380Y-41139047D01*
X122326380Y-41139047D02*
X122364476Y-41100952D01*
X122364476Y-41100952D02*
X122440666Y-41062857D01*
X122440666Y-41062857D02*
X122631142Y-41062857D01*
X122631142Y-41062857D02*
X122707333Y-41100952D01*
X122707333Y-41100952D02*
X122745428Y-41139047D01*
X122745428Y-41139047D02*
X122783523Y-41215238D01*
X122783523Y-41215238D02*
X122783523Y-41405714D01*
X122783523Y-41405714D02*
X122745428Y-41481904D01*
X122745428Y-41481904D02*
X122707333Y-41520000D01*
X122707333Y-41520000D02*
X122631142Y-41558095D01*
X122631142Y-41558095D02*
X122440666Y-41558095D01*
X122440666Y-41558095D02*
X122364476Y-41520000D01*
X122364476Y-41520000D02*
X122326380Y-41481904D01*
X123012095Y-40758095D02*
X123278762Y-41558095D01*
X123278762Y-41558095D02*
X123545428Y-40758095D01*
X122783523Y-36224095D02*
X122326380Y-36224095D01*
X122554952Y-36224095D02*
X122554952Y-35424095D01*
X122554952Y-35424095D02*
X122478761Y-35538380D01*
X122478761Y-35538380D02*
X122402571Y-35614571D01*
X122402571Y-35614571D02*
X122326380Y-35652666D01*
X123088285Y-35500285D02*
X123126381Y-35462190D01*
X123126381Y-35462190D02*
X123202571Y-35424095D01*
X123202571Y-35424095D02*
X123393047Y-35424095D01*
X123393047Y-35424095D02*
X123469238Y-35462190D01*
X123469238Y-35462190D02*
X123507333Y-35500285D01*
X123507333Y-35500285D02*
X123545428Y-35576476D01*
X123545428Y-35576476D02*
X123545428Y-35652666D01*
X123545428Y-35652666D02*
X123507333Y-35766952D01*
X123507333Y-35766952D02*
X123050190Y-36224095D01*
X123050190Y-36224095D02*
X123545428Y-36224095D01*
X123774000Y-35424095D02*
X124040667Y-36224095D01*
X124040667Y-36224095D02*
X124307333Y-35424095D01*
X86728285Y-63592095D02*
X87261619Y-63592095D01*
X87261619Y-63592095D02*
X86728285Y-64392095D01*
X86728285Y-64392095D02*
X87261619Y-64392095D01*
X87566381Y-64392095D02*
X87566381Y-63858761D01*
X87566381Y-63592095D02*
X87528285Y-63630190D01*
X87528285Y-63630190D02*
X87566381Y-63668285D01*
X87566381Y-63668285D02*
X87604476Y-63630190D01*
X87604476Y-63630190D02*
X87566381Y-63592095D01*
X87566381Y-63592095D02*
X87566381Y-63668285D01*
X88290190Y-63858761D02*
X88290190Y-64506380D01*
X88290190Y-64506380D02*
X88252095Y-64582571D01*
X88252095Y-64582571D02*
X88213999Y-64620666D01*
X88213999Y-64620666D02*
X88137809Y-64658761D01*
X88137809Y-64658761D02*
X88023523Y-64658761D01*
X88023523Y-64658761D02*
X87947333Y-64620666D01*
X88290190Y-64354000D02*
X88213999Y-64392095D01*
X88213999Y-64392095D02*
X88061618Y-64392095D01*
X88061618Y-64392095D02*
X87985428Y-64354000D01*
X87985428Y-64354000D02*
X87947333Y-64315904D01*
X87947333Y-64315904D02*
X87909237Y-64239714D01*
X87909237Y-64239714D02*
X87909237Y-64011142D01*
X87909237Y-64011142D02*
X87947333Y-63934952D01*
X87947333Y-63934952D02*
X87985428Y-63896857D01*
X87985428Y-63896857D02*
X88061618Y-63858761D01*
X88061618Y-63858761D02*
X88213999Y-63858761D01*
X88213999Y-63858761D02*
X88290190Y-63896857D01*
X88671143Y-64392095D02*
X88671143Y-63592095D01*
X88671143Y-63896857D02*
X88747333Y-63858761D01*
X88747333Y-63858761D02*
X88899714Y-63858761D01*
X88899714Y-63858761D02*
X88975905Y-63896857D01*
X88975905Y-63896857D02*
X89014000Y-63934952D01*
X89014000Y-63934952D02*
X89052095Y-64011142D01*
X89052095Y-64011142D02*
X89052095Y-64239714D01*
X89052095Y-64239714D02*
X89014000Y-64315904D01*
X89014000Y-64315904D02*
X88975905Y-64354000D01*
X88975905Y-64354000D02*
X88899714Y-64392095D01*
X88899714Y-64392095D02*
X88747333Y-64392095D01*
X88747333Y-64392095D02*
X88671143Y-64354000D01*
X89699715Y-64354000D02*
X89623524Y-64392095D01*
X89623524Y-64392095D02*
X89471143Y-64392095D01*
X89471143Y-64392095D02*
X89394953Y-64354000D01*
X89394953Y-64354000D02*
X89356857Y-64277809D01*
X89356857Y-64277809D02*
X89356857Y-63973047D01*
X89356857Y-63973047D02*
X89394953Y-63896857D01*
X89394953Y-63896857D02*
X89471143Y-63858761D01*
X89471143Y-63858761D02*
X89623524Y-63858761D01*
X89623524Y-63858761D02*
X89699715Y-63896857D01*
X89699715Y-63896857D02*
X89737810Y-63973047D01*
X89737810Y-63973047D02*
X89737810Y-64049238D01*
X89737810Y-64049238D02*
X89356857Y-64125428D01*
X90385429Y-64354000D02*
X90309238Y-64392095D01*
X90309238Y-64392095D02*
X90156857Y-64392095D01*
X90156857Y-64392095D02*
X90080667Y-64354000D01*
X90080667Y-64354000D02*
X90042571Y-64277809D01*
X90042571Y-64277809D02*
X90042571Y-63973047D01*
X90042571Y-63973047D02*
X90080667Y-63896857D01*
X90080667Y-63896857D02*
X90156857Y-63858761D01*
X90156857Y-63858761D02*
X90309238Y-63858761D01*
X90309238Y-63858761D02*
X90385429Y-63896857D01*
X90385429Y-63896857D02*
X90423524Y-63973047D01*
X90423524Y-63973047D02*
X90423524Y-64049238D01*
X90423524Y-64049238D02*
X90042571Y-64125428D01*
X91375905Y-64392095D02*
X91375905Y-63592095D01*
X91375905Y-63592095D02*
X91680667Y-63592095D01*
X91680667Y-63592095D02*
X91756857Y-63630190D01*
X91756857Y-63630190D02*
X91794952Y-63668285D01*
X91794952Y-63668285D02*
X91833048Y-63744476D01*
X91833048Y-63744476D02*
X91833048Y-63858761D01*
X91833048Y-63858761D02*
X91794952Y-63934952D01*
X91794952Y-63934952D02*
X91756857Y-63973047D01*
X91756857Y-63973047D02*
X91680667Y-64011142D01*
X91680667Y-64011142D02*
X91375905Y-64011142D01*
X92099714Y-63592095D02*
X92290190Y-64392095D01*
X92290190Y-64392095D02*
X92442571Y-63820666D01*
X92442571Y-63820666D02*
X92594952Y-64392095D01*
X92594952Y-64392095D02*
X92785429Y-63592095D01*
X93090191Y-64392095D02*
X93090191Y-63592095D01*
X93090191Y-63592095D02*
X93356857Y-64163523D01*
X93356857Y-64163523D02*
X93623524Y-63592095D01*
X93623524Y-63592095D02*
X93623524Y-64392095D01*
X94614001Y-64392095D02*
X94614001Y-63592095D01*
X94614001Y-63896857D02*
X94690191Y-63858761D01*
X94690191Y-63858761D02*
X94842572Y-63858761D01*
X94842572Y-63858761D02*
X94918763Y-63896857D01*
X94918763Y-63896857D02*
X94956858Y-63934952D01*
X94956858Y-63934952D02*
X94994953Y-64011142D01*
X94994953Y-64011142D02*
X94994953Y-64239714D01*
X94994953Y-64239714D02*
X94956858Y-64315904D01*
X94956858Y-64315904D02*
X94918763Y-64354000D01*
X94918763Y-64354000D02*
X94842572Y-64392095D01*
X94842572Y-64392095D02*
X94690191Y-64392095D01*
X94690191Y-64392095D02*
X94614001Y-64354000D01*
X95680668Y-64392095D02*
X95680668Y-63973047D01*
X95680668Y-63973047D02*
X95642573Y-63896857D01*
X95642573Y-63896857D02*
X95566382Y-63858761D01*
X95566382Y-63858761D02*
X95414001Y-63858761D01*
X95414001Y-63858761D02*
X95337811Y-63896857D01*
X95680668Y-64354000D02*
X95604477Y-64392095D01*
X95604477Y-64392095D02*
X95414001Y-64392095D01*
X95414001Y-64392095D02*
X95337811Y-64354000D01*
X95337811Y-64354000D02*
X95299715Y-64277809D01*
X95299715Y-64277809D02*
X95299715Y-64201619D01*
X95299715Y-64201619D02*
X95337811Y-64125428D01*
X95337811Y-64125428D02*
X95414001Y-64087333D01*
X95414001Y-64087333D02*
X95604477Y-64087333D01*
X95604477Y-64087333D02*
X95680668Y-64049238D01*
X96023525Y-64354000D02*
X96099716Y-64392095D01*
X96099716Y-64392095D02*
X96252097Y-64392095D01*
X96252097Y-64392095D02*
X96328287Y-64354000D01*
X96328287Y-64354000D02*
X96366383Y-64277809D01*
X96366383Y-64277809D02*
X96366383Y-64239714D01*
X96366383Y-64239714D02*
X96328287Y-64163523D01*
X96328287Y-64163523D02*
X96252097Y-64125428D01*
X96252097Y-64125428D02*
X96137811Y-64125428D01*
X96137811Y-64125428D02*
X96061621Y-64087333D01*
X96061621Y-64087333D02*
X96023525Y-64011142D01*
X96023525Y-64011142D02*
X96023525Y-63973047D01*
X96023525Y-63973047D02*
X96061621Y-63896857D01*
X96061621Y-63896857D02*
X96137811Y-63858761D01*
X96137811Y-63858761D02*
X96252097Y-63858761D01*
X96252097Y-63858761D02*
X96328287Y-63896857D01*
X97014002Y-64354000D02*
X96937811Y-64392095D01*
X96937811Y-64392095D02*
X96785430Y-64392095D01*
X96785430Y-64392095D02*
X96709240Y-64354000D01*
X96709240Y-64354000D02*
X96671144Y-64277809D01*
X96671144Y-64277809D02*
X96671144Y-63973047D01*
X96671144Y-63973047D02*
X96709240Y-63896857D01*
X96709240Y-63896857D02*
X96785430Y-63858761D01*
X96785430Y-63858761D02*
X96937811Y-63858761D01*
X96937811Y-63858761D02*
X97014002Y-63896857D01*
X97014002Y-63896857D02*
X97052097Y-63973047D01*
X97052097Y-63973047D02*
X97052097Y-64049238D01*
X97052097Y-64049238D02*
X96671144Y-64125428D01*
X98004478Y-64392095D02*
X98004478Y-63592095D01*
X98004478Y-63896857D02*
X98080668Y-63858761D01*
X98080668Y-63858761D02*
X98233049Y-63858761D01*
X98233049Y-63858761D02*
X98309240Y-63896857D01*
X98309240Y-63896857D02*
X98347335Y-63934952D01*
X98347335Y-63934952D02*
X98385430Y-64011142D01*
X98385430Y-64011142D02*
X98385430Y-64239714D01*
X98385430Y-64239714D02*
X98347335Y-64315904D01*
X98347335Y-64315904D02*
X98309240Y-64354000D01*
X98309240Y-64354000D02*
X98233049Y-64392095D01*
X98233049Y-64392095D02*
X98080668Y-64392095D01*
X98080668Y-64392095D02*
X98004478Y-64354000D01*
X98842573Y-64392095D02*
X98766383Y-64354000D01*
X98766383Y-64354000D02*
X98728288Y-64315904D01*
X98728288Y-64315904D02*
X98690192Y-64239714D01*
X98690192Y-64239714D02*
X98690192Y-64011142D01*
X98690192Y-64011142D02*
X98728288Y-63934952D01*
X98728288Y-63934952D02*
X98766383Y-63896857D01*
X98766383Y-63896857D02*
X98842573Y-63858761D01*
X98842573Y-63858761D02*
X98956859Y-63858761D01*
X98956859Y-63858761D02*
X99033050Y-63896857D01*
X99033050Y-63896857D02*
X99071145Y-63934952D01*
X99071145Y-63934952D02*
X99109240Y-64011142D01*
X99109240Y-64011142D02*
X99109240Y-64239714D01*
X99109240Y-64239714D02*
X99071145Y-64315904D01*
X99071145Y-64315904D02*
X99033050Y-64354000D01*
X99033050Y-64354000D02*
X98956859Y-64392095D01*
X98956859Y-64392095D02*
X98842573Y-64392095D01*
X99794955Y-64392095D02*
X99794955Y-63973047D01*
X99794955Y-63973047D02*
X99756860Y-63896857D01*
X99756860Y-63896857D02*
X99680669Y-63858761D01*
X99680669Y-63858761D02*
X99528288Y-63858761D01*
X99528288Y-63858761D02*
X99452098Y-63896857D01*
X99794955Y-64354000D02*
X99718764Y-64392095D01*
X99718764Y-64392095D02*
X99528288Y-64392095D01*
X99528288Y-64392095D02*
X99452098Y-64354000D01*
X99452098Y-64354000D02*
X99414002Y-64277809D01*
X99414002Y-64277809D02*
X99414002Y-64201619D01*
X99414002Y-64201619D02*
X99452098Y-64125428D01*
X99452098Y-64125428D02*
X99528288Y-64087333D01*
X99528288Y-64087333D02*
X99718764Y-64087333D01*
X99718764Y-64087333D02*
X99794955Y-64049238D01*
X100175908Y-64392095D02*
X100175908Y-63858761D01*
X100175908Y-64011142D02*
X100214003Y-63934952D01*
X100214003Y-63934952D02*
X100252098Y-63896857D01*
X100252098Y-63896857D02*
X100328289Y-63858761D01*
X100328289Y-63858761D02*
X100404479Y-63858761D01*
X101014003Y-64392095D02*
X101014003Y-63592095D01*
X101014003Y-64354000D02*
X100937812Y-64392095D01*
X100937812Y-64392095D02*
X100785431Y-64392095D01*
X100785431Y-64392095D02*
X100709241Y-64354000D01*
X100709241Y-64354000D02*
X100671146Y-64315904D01*
X100671146Y-64315904D02*
X100633050Y-64239714D01*
X100633050Y-64239714D02*
X100633050Y-64011142D01*
X100633050Y-64011142D02*
X100671146Y-63934952D01*
X100671146Y-63934952D02*
X100709241Y-63896857D01*
X100709241Y-63896857D02*
X100785431Y-63858761D01*
X100785431Y-63858761D02*
X100937812Y-63858761D01*
X100937812Y-63858761D02*
X101014003Y-63896857D01*
X101928289Y-63858761D02*
X102118765Y-64392095D01*
X102118765Y-64392095D02*
X102309242Y-63858761D01*
X103033051Y-64392095D02*
X102575908Y-64392095D01*
X102804480Y-64392095D02*
X102804480Y-63592095D01*
X102804480Y-63592095D02*
X102728289Y-63706380D01*
X102728289Y-63706380D02*
X102652099Y-63782571D01*
X102652099Y-63782571D02*
X102575908Y-63820666D01*
X87452095Y-65078571D02*
X87375904Y-65040476D01*
X87375904Y-65040476D02*
X87223523Y-65040476D01*
X87223523Y-65040476D02*
X87147333Y-65078571D01*
X87147333Y-65078571D02*
X87071142Y-65154761D01*
X87071142Y-65154761D02*
X87033047Y-65230952D01*
X87033047Y-65230952D02*
X87033047Y-65383333D01*
X87033047Y-65383333D02*
X87071142Y-65459523D01*
X87071142Y-65459523D02*
X87147333Y-65535714D01*
X87147333Y-65535714D02*
X87223523Y-65573809D01*
X87223523Y-65573809D02*
X87375904Y-65573809D01*
X87375904Y-65573809D02*
X87452095Y-65535714D01*
X87299714Y-64773809D02*
X87109238Y-64811904D01*
X87109238Y-64811904D02*
X86918761Y-64926190D01*
X86918761Y-64926190D02*
X86804476Y-65116666D01*
X86804476Y-65116666D02*
X86766380Y-65307142D01*
X86766380Y-65307142D02*
X86804476Y-65497619D01*
X86804476Y-65497619D02*
X86918761Y-65688095D01*
X86918761Y-65688095D02*
X87109238Y-65802380D01*
X87109238Y-65802380D02*
X87299714Y-65840476D01*
X87299714Y-65840476D02*
X87490190Y-65802380D01*
X87490190Y-65802380D02*
X87680666Y-65688095D01*
X87680666Y-65688095D02*
X87794952Y-65497619D01*
X87794952Y-65497619D02*
X87833047Y-65307142D01*
X87833047Y-65307142D02*
X87794952Y-65116666D01*
X87794952Y-65116666D02*
X87680666Y-64926190D01*
X87680666Y-64926190D02*
X87490190Y-64811904D01*
X87490190Y-64811904D02*
X87299714Y-64773809D01*
X88785429Y-65688095D02*
X88785429Y-64888095D01*
X88785429Y-64888095D02*
X89052095Y-65459523D01*
X89052095Y-65459523D02*
X89318762Y-64888095D01*
X89318762Y-64888095D02*
X89318762Y-65688095D01*
X89699715Y-65688095D02*
X89699715Y-64888095D01*
X89699715Y-64888095D02*
X90004477Y-64888095D01*
X90004477Y-64888095D02*
X90080667Y-64926190D01*
X90080667Y-64926190D02*
X90118762Y-64964285D01*
X90118762Y-64964285D02*
X90156858Y-65040476D01*
X90156858Y-65040476D02*
X90156858Y-65154761D01*
X90156858Y-65154761D02*
X90118762Y-65230952D01*
X90118762Y-65230952D02*
X90080667Y-65269047D01*
X90080667Y-65269047D02*
X90004477Y-65307142D01*
X90004477Y-65307142D02*
X89699715Y-65307142D01*
X90499715Y-65688095D02*
X90499715Y-64888095D01*
X90956858Y-65688095D02*
X90614000Y-65230952D01*
X90956858Y-64888095D02*
X90499715Y-65345238D01*
X91871143Y-64964285D02*
X91909239Y-64926190D01*
X91909239Y-64926190D02*
X91985429Y-64888095D01*
X91985429Y-64888095D02*
X92175905Y-64888095D01*
X92175905Y-64888095D02*
X92252096Y-64926190D01*
X92252096Y-64926190D02*
X92290191Y-64964285D01*
X92290191Y-64964285D02*
X92328286Y-65040476D01*
X92328286Y-65040476D02*
X92328286Y-65116666D01*
X92328286Y-65116666D02*
X92290191Y-65230952D01*
X92290191Y-65230952D02*
X91833048Y-65688095D01*
X91833048Y-65688095D02*
X92328286Y-65688095D01*
X92823525Y-64888095D02*
X92899715Y-64888095D01*
X92899715Y-64888095D02*
X92975906Y-64926190D01*
X92975906Y-64926190D02*
X93014001Y-64964285D01*
X93014001Y-64964285D02*
X93052096Y-65040476D01*
X93052096Y-65040476D02*
X93090191Y-65192857D01*
X93090191Y-65192857D02*
X93090191Y-65383333D01*
X93090191Y-65383333D02*
X93052096Y-65535714D01*
X93052096Y-65535714D02*
X93014001Y-65611904D01*
X93014001Y-65611904D02*
X92975906Y-65650000D01*
X92975906Y-65650000D02*
X92899715Y-65688095D01*
X92899715Y-65688095D02*
X92823525Y-65688095D01*
X92823525Y-65688095D02*
X92747334Y-65650000D01*
X92747334Y-65650000D02*
X92709239Y-65611904D01*
X92709239Y-65611904D02*
X92671144Y-65535714D01*
X92671144Y-65535714D02*
X92633048Y-65383333D01*
X92633048Y-65383333D02*
X92633048Y-65192857D01*
X92633048Y-65192857D02*
X92671144Y-65040476D01*
X92671144Y-65040476D02*
X92709239Y-64964285D01*
X92709239Y-64964285D02*
X92747334Y-64926190D01*
X92747334Y-64926190D02*
X92823525Y-64888095D01*
X93394953Y-64964285D02*
X93433049Y-64926190D01*
X93433049Y-64926190D02*
X93509239Y-64888095D01*
X93509239Y-64888095D02*
X93699715Y-64888095D01*
X93699715Y-64888095D02*
X93775906Y-64926190D01*
X93775906Y-64926190D02*
X93814001Y-64964285D01*
X93814001Y-64964285D02*
X93852096Y-65040476D01*
X93852096Y-65040476D02*
X93852096Y-65116666D01*
X93852096Y-65116666D02*
X93814001Y-65230952D01*
X93814001Y-65230952D02*
X93356858Y-65688095D01*
X93356858Y-65688095D02*
X93852096Y-65688095D01*
X94118763Y-64888095D02*
X94614001Y-64888095D01*
X94614001Y-64888095D02*
X94347335Y-65192857D01*
X94347335Y-65192857D02*
X94461620Y-65192857D01*
X94461620Y-65192857D02*
X94537811Y-65230952D01*
X94537811Y-65230952D02*
X94575906Y-65269047D01*
X94575906Y-65269047D02*
X94614001Y-65345238D01*
X94614001Y-65345238D02*
X94614001Y-65535714D01*
X94614001Y-65535714D02*
X94575906Y-65611904D01*
X94575906Y-65611904D02*
X94537811Y-65650000D01*
X94537811Y-65650000D02*
X94461620Y-65688095D01*
X94461620Y-65688095D02*
X94233049Y-65688095D01*
X94233049Y-65688095D02*
X94156858Y-65650000D01*
X94156858Y-65650000D02*
X94118763Y-65611904D01*
D11*
%TO.C,G\u002A\u002A\u002A*%
X50240572Y-44985357D02*
X50097715Y-44913928D01*
X50097715Y-44913928D02*
X49883429Y-44913928D01*
X49883429Y-44913928D02*
X49669143Y-44985357D01*
X49669143Y-44985357D02*
X49526286Y-45128214D01*
X49526286Y-45128214D02*
X49454857Y-45271071D01*
X49454857Y-45271071D02*
X49383429Y-45556785D01*
X49383429Y-45556785D02*
X49383429Y-45771071D01*
X49383429Y-45771071D02*
X49454857Y-46056785D01*
X49454857Y-46056785D02*
X49526286Y-46199642D01*
X49526286Y-46199642D02*
X49669143Y-46342500D01*
X49669143Y-46342500D02*
X49883429Y-46413928D01*
X49883429Y-46413928D02*
X50026286Y-46413928D01*
X50026286Y-46413928D02*
X50240572Y-46342500D01*
X50240572Y-46342500D02*
X50312000Y-46271071D01*
X50312000Y-46271071D02*
X50312000Y-45771071D01*
X50312000Y-45771071D02*
X50026286Y-45771071D01*
X51169143Y-44913928D02*
X51169143Y-45271071D01*
X50812000Y-45128214D02*
X51169143Y-45271071D01*
X51169143Y-45271071D02*
X51526286Y-45128214D01*
X50954857Y-45556785D02*
X51169143Y-45271071D01*
X51169143Y-45271071D02*
X51383429Y-45556785D01*
X52312000Y-44913928D02*
X52312000Y-45271071D01*
X51954857Y-45128214D02*
X52312000Y-45271071D01*
X52312000Y-45271071D02*
X52669143Y-45128214D01*
X52097714Y-45556785D02*
X52312000Y-45271071D01*
X52312000Y-45271071D02*
X52526286Y-45556785D01*
X53454857Y-44913928D02*
X53454857Y-45271071D01*
X53097714Y-45128214D02*
X53454857Y-45271071D01*
X53454857Y-45271071D02*
X53812000Y-45128214D01*
X53240571Y-45556785D02*
X53454857Y-45271071D01*
X53454857Y-45271071D02*
X53669143Y-45556785D01*
D10*
X44989619Y-52455714D02*
X44894380Y-52408095D01*
X44894380Y-52408095D02*
X44703904Y-52408095D01*
X44703904Y-52408095D02*
X44608666Y-52455714D01*
X44608666Y-52455714D02*
X44513428Y-52550952D01*
X44513428Y-52550952D02*
X44465809Y-52646190D01*
X44465809Y-52646190D02*
X44465809Y-52836666D01*
X44465809Y-52836666D02*
X44513428Y-52931904D01*
X44513428Y-52931904D02*
X44608666Y-53027142D01*
X44608666Y-53027142D02*
X44703904Y-53074761D01*
X44703904Y-53074761D02*
X44894380Y-53074761D01*
X44894380Y-53074761D02*
X44989619Y-53027142D01*
X44799142Y-52074761D02*
X44561047Y-52122380D01*
X44561047Y-52122380D02*
X44322952Y-52265238D01*
X44322952Y-52265238D02*
X44180095Y-52503333D01*
X44180095Y-52503333D02*
X44132476Y-52741428D01*
X44132476Y-52741428D02*
X44180095Y-52979523D01*
X44180095Y-52979523D02*
X44322952Y-53217619D01*
X44322952Y-53217619D02*
X44561047Y-53360476D01*
X44561047Y-53360476D02*
X44799142Y-53408095D01*
X44799142Y-53408095D02*
X45037238Y-53360476D01*
X45037238Y-53360476D02*
X45275333Y-53217619D01*
X45275333Y-53217619D02*
X45418190Y-52979523D01*
X45418190Y-52979523D02*
X45465809Y-52741428D01*
X45465809Y-52741428D02*
X45418190Y-52503333D01*
X45418190Y-52503333D02*
X45275333Y-52265238D01*
X45275333Y-52265238D02*
X45037238Y-52122380D01*
X45037238Y-52122380D02*
X44799142Y-52074761D01*
X46608667Y-52931904D02*
X47084857Y-52931904D01*
X46513429Y-53217619D02*
X46846762Y-52217619D01*
X46846762Y-52217619D02*
X47180095Y-53217619D01*
X47942000Y-53170000D02*
X47846762Y-53217619D01*
X47846762Y-53217619D02*
X47656286Y-53217619D01*
X47656286Y-53217619D02*
X47561048Y-53170000D01*
X47561048Y-53170000D02*
X47513429Y-53122380D01*
X47513429Y-53122380D02*
X47465810Y-53027142D01*
X47465810Y-53027142D02*
X47465810Y-52741428D01*
X47465810Y-52741428D02*
X47513429Y-52646190D01*
X47513429Y-52646190D02*
X47561048Y-52598571D01*
X47561048Y-52598571D02*
X47656286Y-52550952D01*
X47656286Y-52550952D02*
X47846762Y-52550952D01*
X47846762Y-52550952D02*
X47942000Y-52598571D01*
X48370572Y-53217619D02*
X48370572Y-52217619D01*
X48799143Y-53217619D02*
X48799143Y-52693809D01*
X48799143Y-52693809D02*
X48751524Y-52598571D01*
X48751524Y-52598571D02*
X48656286Y-52550952D01*
X48656286Y-52550952D02*
X48513429Y-52550952D01*
X48513429Y-52550952D02*
X48418191Y-52598571D01*
X48418191Y-52598571D02*
X48370572Y-52646190D01*
X49656286Y-53170000D02*
X49561048Y-53217619D01*
X49561048Y-53217619D02*
X49370572Y-53217619D01*
X49370572Y-53217619D02*
X49275334Y-53170000D01*
X49275334Y-53170000D02*
X49227715Y-53074761D01*
X49227715Y-53074761D02*
X49227715Y-52693809D01*
X49227715Y-52693809D02*
X49275334Y-52598571D01*
X49275334Y-52598571D02*
X49370572Y-52550952D01*
X49370572Y-52550952D02*
X49561048Y-52550952D01*
X49561048Y-52550952D02*
X49656286Y-52598571D01*
X49656286Y-52598571D02*
X49703905Y-52693809D01*
X49703905Y-52693809D02*
X49703905Y-52789047D01*
X49703905Y-52789047D02*
X49227715Y-52884285D01*
X50132477Y-52550952D02*
X50132477Y-53217619D01*
X50132477Y-52646190D02*
X50180096Y-52598571D01*
X50180096Y-52598571D02*
X50275334Y-52550952D01*
X50275334Y-52550952D02*
X50418191Y-52550952D01*
X50418191Y-52550952D02*
X50513429Y-52598571D01*
X50513429Y-52598571D02*
X50561048Y-52693809D01*
X50561048Y-52693809D02*
X50561048Y-53217619D01*
X51465810Y-53217619D02*
X51465810Y-52693809D01*
X51465810Y-52693809D02*
X51418191Y-52598571D01*
X51418191Y-52598571D02*
X51322953Y-52550952D01*
X51322953Y-52550952D02*
X51132477Y-52550952D01*
X51132477Y-52550952D02*
X51037239Y-52598571D01*
X51465810Y-53170000D02*
X51370572Y-53217619D01*
X51370572Y-53217619D02*
X51132477Y-53217619D01*
X51132477Y-53217619D02*
X51037239Y-53170000D01*
X51037239Y-53170000D02*
X50989620Y-53074761D01*
X50989620Y-53074761D02*
X50989620Y-52979523D01*
X50989620Y-52979523D02*
X51037239Y-52884285D01*
X51037239Y-52884285D02*
X51132477Y-52836666D01*
X51132477Y-52836666D02*
X51370572Y-52836666D01*
X51370572Y-52836666D02*
X51465810Y-52789047D01*
X51942001Y-53217619D02*
X51942001Y-52550952D01*
X51942001Y-52741428D02*
X51989620Y-52646190D01*
X51989620Y-52646190D02*
X52037239Y-52598571D01*
X52037239Y-52598571D02*
X52132477Y-52550952D01*
X52132477Y-52550952D02*
X52227715Y-52550952D01*
X52561049Y-53217619D02*
X52561049Y-52550952D01*
X52561049Y-52217619D02*
X52513430Y-52265238D01*
X52513430Y-52265238D02*
X52561049Y-52312857D01*
X52561049Y-52312857D02*
X52608668Y-52265238D01*
X52608668Y-52265238D02*
X52561049Y-52217619D01*
X52561049Y-52217619D02*
X52561049Y-52312857D01*
X53465810Y-53217619D02*
X53465810Y-52693809D01*
X53465810Y-52693809D02*
X53418191Y-52598571D01*
X53418191Y-52598571D02*
X53322953Y-52550952D01*
X53322953Y-52550952D02*
X53132477Y-52550952D01*
X53132477Y-52550952D02*
X53037239Y-52598571D01*
X53465810Y-53170000D02*
X53370572Y-53217619D01*
X53370572Y-53217619D02*
X53132477Y-53217619D01*
X53132477Y-53217619D02*
X53037239Y-53170000D01*
X53037239Y-53170000D02*
X52989620Y-53074761D01*
X52989620Y-53074761D02*
X52989620Y-52979523D01*
X52989620Y-52979523D02*
X53037239Y-52884285D01*
X53037239Y-52884285D02*
X53132477Y-52836666D01*
X53132477Y-52836666D02*
X53370572Y-52836666D01*
X53370572Y-52836666D02*
X53465810Y-52789047D01*
X53942001Y-52550952D02*
X53942001Y-53217619D01*
X53942001Y-52646190D02*
X53989620Y-52598571D01*
X53989620Y-52598571D02*
X54084858Y-52550952D01*
X54084858Y-52550952D02*
X54227715Y-52550952D01*
X54227715Y-52550952D02*
X54322953Y-52598571D01*
X54322953Y-52598571D02*
X54370572Y-52693809D01*
X54370572Y-52693809D02*
X54370572Y-53217619D01*
X55608668Y-52693809D02*
X55942001Y-52693809D01*
X56084858Y-53217619D02*
X55608668Y-53217619D01*
X55608668Y-53217619D02*
X55608668Y-52217619D01*
X55608668Y-52217619D02*
X56084858Y-52217619D01*
X56513430Y-53217619D02*
X56513430Y-52550952D01*
X56513430Y-52646190D02*
X56561049Y-52598571D01*
X56561049Y-52598571D02*
X56656287Y-52550952D01*
X56656287Y-52550952D02*
X56799144Y-52550952D01*
X56799144Y-52550952D02*
X56894382Y-52598571D01*
X56894382Y-52598571D02*
X56942001Y-52693809D01*
X56942001Y-52693809D02*
X56942001Y-53217619D01*
X56942001Y-52693809D02*
X56989620Y-52598571D01*
X56989620Y-52598571D02*
X57084858Y-52550952D01*
X57084858Y-52550952D02*
X57227715Y-52550952D01*
X57227715Y-52550952D02*
X57322954Y-52598571D01*
X57322954Y-52598571D02*
X57370573Y-52693809D01*
X57370573Y-52693809D02*
X57370573Y-53217619D01*
X57846763Y-52550952D02*
X57846763Y-53550952D01*
X57846763Y-52598571D02*
X57942001Y-52550952D01*
X57942001Y-52550952D02*
X58132477Y-52550952D01*
X58132477Y-52550952D02*
X58227715Y-52598571D01*
X58227715Y-52598571D02*
X58275334Y-52646190D01*
X58275334Y-52646190D02*
X58322953Y-52741428D01*
X58322953Y-52741428D02*
X58322953Y-53027142D01*
X58322953Y-53027142D02*
X58275334Y-53122380D01*
X58275334Y-53122380D02*
X58227715Y-53170000D01*
X58227715Y-53170000D02*
X58132477Y-53217619D01*
X58132477Y-53217619D02*
X57942001Y-53217619D01*
X57942001Y-53217619D02*
X57846763Y-53170000D01*
X58751525Y-53217619D02*
X58751525Y-52550952D01*
X58751525Y-52217619D02*
X58703906Y-52265238D01*
X58703906Y-52265238D02*
X58751525Y-52312857D01*
X58751525Y-52312857D02*
X58799144Y-52265238D01*
X58799144Y-52265238D02*
X58751525Y-52217619D01*
X58751525Y-52217619D02*
X58751525Y-52312857D01*
X59227715Y-53217619D02*
X59227715Y-52550952D01*
X59227715Y-52741428D02*
X59275334Y-52646190D01*
X59275334Y-52646190D02*
X59322953Y-52598571D01*
X59322953Y-52598571D02*
X59418191Y-52550952D01*
X59418191Y-52550952D02*
X59513429Y-52550952D01*
X60227715Y-53170000D02*
X60132477Y-53217619D01*
X60132477Y-53217619D02*
X59942001Y-53217619D01*
X59942001Y-53217619D02*
X59846763Y-53170000D01*
X59846763Y-53170000D02*
X59799144Y-53074761D01*
X59799144Y-53074761D02*
X59799144Y-52693809D01*
X59799144Y-52693809D02*
X59846763Y-52598571D01*
X59846763Y-52598571D02*
X59942001Y-52550952D01*
X59942001Y-52550952D02*
X60132477Y-52550952D01*
X60132477Y-52550952D02*
X60227715Y-52598571D01*
X60227715Y-52598571D02*
X60275334Y-52693809D01*
X60275334Y-52693809D02*
X60275334Y-52789047D01*
X60275334Y-52789047D02*
X59799144Y-52884285D01*
%TO.C,J4*%
X124380666Y-58644619D02*
X124380666Y-59358904D01*
X124380666Y-59358904D02*
X124333047Y-59501761D01*
X124333047Y-59501761D02*
X124237809Y-59597000D01*
X124237809Y-59597000D02*
X124094952Y-59644619D01*
X124094952Y-59644619D02*
X123999714Y-59644619D01*
X125285428Y-58977952D02*
X125285428Y-59644619D01*
X125047333Y-58597000D02*
X124809238Y-59311285D01*
X124809238Y-59311285D02*
X125428285Y-59311285D01*
%TO.C,RST*%
X76965619Y-64346619D02*
X76489428Y-64679952D01*
X76965619Y-64918047D02*
X75965619Y-64918047D01*
X75965619Y-64918047D02*
X75965619Y-64537095D01*
X75965619Y-64537095D02*
X76013238Y-64441857D01*
X76013238Y-64441857D02*
X76060857Y-64394238D01*
X76060857Y-64394238D02*
X76156095Y-64346619D01*
X76156095Y-64346619D02*
X76298952Y-64346619D01*
X76298952Y-64346619D02*
X76394190Y-64394238D01*
X76394190Y-64394238D02*
X76441809Y-64441857D01*
X76441809Y-64441857D02*
X76489428Y-64537095D01*
X76489428Y-64537095D02*
X76489428Y-64918047D01*
X76918000Y-63965666D02*
X76965619Y-63822809D01*
X76965619Y-63822809D02*
X76965619Y-63584714D01*
X76965619Y-63584714D02*
X76918000Y-63489476D01*
X76918000Y-63489476D02*
X76870380Y-63441857D01*
X76870380Y-63441857D02*
X76775142Y-63394238D01*
X76775142Y-63394238D02*
X76679904Y-63394238D01*
X76679904Y-63394238D02*
X76584666Y-63441857D01*
X76584666Y-63441857D02*
X76537047Y-63489476D01*
X76537047Y-63489476D02*
X76489428Y-63584714D01*
X76489428Y-63584714D02*
X76441809Y-63775190D01*
X76441809Y-63775190D02*
X76394190Y-63870428D01*
X76394190Y-63870428D02*
X76346571Y-63918047D01*
X76346571Y-63918047D02*
X76251333Y-63965666D01*
X76251333Y-63965666D02*
X76156095Y-63965666D01*
X76156095Y-63965666D02*
X76060857Y-63918047D01*
X76060857Y-63918047D02*
X76013238Y-63870428D01*
X76013238Y-63870428D02*
X75965619Y-63775190D01*
X75965619Y-63775190D02*
X75965619Y-63537095D01*
X75965619Y-63537095D02*
X76013238Y-63394238D01*
X75965619Y-63108523D02*
X75965619Y-62537095D01*
X76965619Y-62822809D02*
X75965619Y-62822809D01*
%TO.C,JP3*%
X116246766Y-42769619D02*
X116246766Y-43483904D01*
X116246766Y-43483904D02*
X116199147Y-43626761D01*
X116199147Y-43626761D02*
X116103909Y-43722000D01*
X116103909Y-43722000D02*
X115961052Y-43769619D01*
X115961052Y-43769619D02*
X115865814Y-43769619D01*
X116722957Y-43769619D02*
X116722957Y-42769619D01*
X116722957Y-42769619D02*
X117103909Y-42769619D01*
X117103909Y-42769619D02*
X117199147Y-42817238D01*
X117199147Y-42817238D02*
X117246766Y-42864857D01*
X117246766Y-42864857D02*
X117294385Y-42960095D01*
X117294385Y-42960095D02*
X117294385Y-43102952D01*
X117294385Y-43102952D02*
X117246766Y-43198190D01*
X117246766Y-43198190D02*
X117199147Y-43245809D01*
X117199147Y-43245809D02*
X117103909Y-43293428D01*
X117103909Y-43293428D02*
X116722957Y-43293428D01*
X117627719Y-42769619D02*
X118246766Y-42769619D01*
X118246766Y-42769619D02*
X117913433Y-43150571D01*
X117913433Y-43150571D02*
X118056290Y-43150571D01*
X118056290Y-43150571D02*
X118151528Y-43198190D01*
X118151528Y-43198190D02*
X118199147Y-43245809D01*
X118199147Y-43245809D02*
X118246766Y-43341047D01*
X118246766Y-43341047D02*
X118246766Y-43579142D01*
X118246766Y-43579142D02*
X118199147Y-43674380D01*
X118199147Y-43674380D02*
X118151528Y-43722000D01*
X118151528Y-43722000D02*
X118056290Y-43769619D01*
X118056290Y-43769619D02*
X117770576Y-43769619D01*
X117770576Y-43769619D02*
X117675338Y-43722000D01*
X117675338Y-43722000D02*
X117627719Y-43674380D01*
%TO.C,D3*%
X74828005Y-40086619D02*
X74828005Y-39086619D01*
X74828005Y-39086619D02*
X75066100Y-39086619D01*
X75066100Y-39086619D02*
X75208957Y-39134238D01*
X75208957Y-39134238D02*
X75304195Y-39229476D01*
X75304195Y-39229476D02*
X75351814Y-39324714D01*
X75351814Y-39324714D02*
X75399433Y-39515190D01*
X75399433Y-39515190D02*
X75399433Y-39658047D01*
X75399433Y-39658047D02*
X75351814Y-39848523D01*
X75351814Y-39848523D02*
X75304195Y-39943761D01*
X75304195Y-39943761D02*
X75208957Y-40039000D01*
X75208957Y-40039000D02*
X75066100Y-40086619D01*
X75066100Y-40086619D02*
X74828005Y-40086619D01*
X75732767Y-39086619D02*
X76351814Y-39086619D01*
X76351814Y-39086619D02*
X76018481Y-39467571D01*
X76018481Y-39467571D02*
X76161338Y-39467571D01*
X76161338Y-39467571D02*
X76256576Y-39515190D01*
X76256576Y-39515190D02*
X76304195Y-39562809D01*
X76304195Y-39562809D02*
X76351814Y-39658047D01*
X76351814Y-39658047D02*
X76351814Y-39896142D01*
X76351814Y-39896142D02*
X76304195Y-39991380D01*
X76304195Y-39991380D02*
X76256576Y-40039000D01*
X76256576Y-40039000D02*
X76161338Y-40086619D01*
X76161338Y-40086619D02*
X75875624Y-40086619D01*
X75875624Y-40086619D02*
X75780386Y-40039000D01*
X75780386Y-40039000D02*
X75732767Y-39991380D01*
%TO.C,JP2*%
X115498666Y-34006619D02*
X115498666Y-34720904D01*
X115498666Y-34720904D02*
X115451047Y-34863761D01*
X115451047Y-34863761D02*
X115355809Y-34959000D01*
X115355809Y-34959000D02*
X115212952Y-35006619D01*
X115212952Y-35006619D02*
X115117714Y-35006619D01*
X115974857Y-35006619D02*
X115974857Y-34006619D01*
X115974857Y-34006619D02*
X116355809Y-34006619D01*
X116355809Y-34006619D02*
X116451047Y-34054238D01*
X116451047Y-34054238D02*
X116498666Y-34101857D01*
X116498666Y-34101857D02*
X116546285Y-34197095D01*
X116546285Y-34197095D02*
X116546285Y-34339952D01*
X116546285Y-34339952D02*
X116498666Y-34435190D01*
X116498666Y-34435190D02*
X116451047Y-34482809D01*
X116451047Y-34482809D02*
X116355809Y-34530428D01*
X116355809Y-34530428D02*
X115974857Y-34530428D01*
X116927238Y-34101857D02*
X116974857Y-34054238D01*
X116974857Y-34054238D02*
X117070095Y-34006619D01*
X117070095Y-34006619D02*
X117308190Y-34006619D01*
X117308190Y-34006619D02*
X117403428Y-34054238D01*
X117403428Y-34054238D02*
X117451047Y-34101857D01*
X117451047Y-34101857D02*
X117498666Y-34197095D01*
X117498666Y-34197095D02*
X117498666Y-34292333D01*
X117498666Y-34292333D02*
X117451047Y-34435190D01*
X117451047Y-34435190D02*
X116879619Y-35006619D01*
X116879619Y-35006619D02*
X117498666Y-35006619D01*
%TO.C,L1*%
X61021933Y-54072619D02*
X60545743Y-54072619D01*
X60545743Y-54072619D02*
X60545743Y-53072619D01*
X61879076Y-54072619D02*
X61307648Y-54072619D01*
X61593362Y-54072619D02*
X61593362Y-53072619D01*
X61593362Y-53072619D02*
X61498124Y-53215476D01*
X61498124Y-53215476D02*
X61402886Y-53310714D01*
X61402886Y-53310714D02*
X61307648Y-53358333D01*
%TO.C,R14*%
X102632742Y-51676619D02*
X102299409Y-51200428D01*
X102061314Y-51676619D02*
X102061314Y-50676619D01*
X102061314Y-50676619D02*
X102442266Y-50676619D01*
X102442266Y-50676619D02*
X102537504Y-50724238D01*
X102537504Y-50724238D02*
X102585123Y-50771857D01*
X102585123Y-50771857D02*
X102632742Y-50867095D01*
X102632742Y-50867095D02*
X102632742Y-51009952D01*
X102632742Y-51009952D02*
X102585123Y-51105190D01*
X102585123Y-51105190D02*
X102537504Y-51152809D01*
X102537504Y-51152809D02*
X102442266Y-51200428D01*
X102442266Y-51200428D02*
X102061314Y-51200428D01*
X103585123Y-51676619D02*
X103013695Y-51676619D01*
X103299409Y-51676619D02*
X103299409Y-50676619D01*
X103299409Y-50676619D02*
X103204171Y-50819476D01*
X103204171Y-50819476D02*
X103108933Y-50914714D01*
X103108933Y-50914714D02*
X103013695Y-50962333D01*
X104442266Y-51009952D02*
X104442266Y-51676619D01*
X104204171Y-50629000D02*
X103966076Y-51343285D01*
X103966076Y-51343285D02*
X104585123Y-51343285D01*
%TO.C,U1*%
X58166095Y-34768619D02*
X58166095Y-35578142D01*
X58166095Y-35578142D02*
X58213714Y-35673380D01*
X58213714Y-35673380D02*
X58261333Y-35721000D01*
X58261333Y-35721000D02*
X58356571Y-35768619D01*
X58356571Y-35768619D02*
X58547047Y-35768619D01*
X58547047Y-35768619D02*
X58642285Y-35721000D01*
X58642285Y-35721000D02*
X58689904Y-35673380D01*
X58689904Y-35673380D02*
X58737523Y-35578142D01*
X58737523Y-35578142D02*
X58737523Y-34768619D01*
X59737523Y-35768619D02*
X59166095Y-35768619D01*
X59451809Y-35768619D02*
X59451809Y-34768619D01*
X59451809Y-34768619D02*
X59356571Y-34911476D01*
X59356571Y-34911476D02*
X59261333Y-35006714D01*
X59261333Y-35006714D02*
X59166095Y-35054333D01*
%TO.C,SCL*%
X60151624Y-46603000D02*
X60294481Y-46650619D01*
X60294481Y-46650619D02*
X60532576Y-46650619D01*
X60532576Y-46650619D02*
X60627814Y-46603000D01*
X60627814Y-46603000D02*
X60675433Y-46555380D01*
X60675433Y-46555380D02*
X60723052Y-46460142D01*
X60723052Y-46460142D02*
X60723052Y-46364904D01*
X60723052Y-46364904D02*
X60675433Y-46269666D01*
X60675433Y-46269666D02*
X60627814Y-46222047D01*
X60627814Y-46222047D02*
X60532576Y-46174428D01*
X60532576Y-46174428D02*
X60342100Y-46126809D01*
X60342100Y-46126809D02*
X60246862Y-46079190D01*
X60246862Y-46079190D02*
X60199243Y-46031571D01*
X60199243Y-46031571D02*
X60151624Y-45936333D01*
X60151624Y-45936333D02*
X60151624Y-45841095D01*
X60151624Y-45841095D02*
X60199243Y-45745857D01*
X60199243Y-45745857D02*
X60246862Y-45698238D01*
X60246862Y-45698238D02*
X60342100Y-45650619D01*
X60342100Y-45650619D02*
X60580195Y-45650619D01*
X60580195Y-45650619D02*
X60723052Y-45698238D01*
X61723052Y-46555380D02*
X61675433Y-46603000D01*
X61675433Y-46603000D02*
X61532576Y-46650619D01*
X61532576Y-46650619D02*
X61437338Y-46650619D01*
X61437338Y-46650619D02*
X61294481Y-46603000D01*
X61294481Y-46603000D02*
X61199243Y-46507761D01*
X61199243Y-46507761D02*
X61151624Y-46412523D01*
X61151624Y-46412523D02*
X61104005Y-46222047D01*
X61104005Y-46222047D02*
X61104005Y-46079190D01*
X61104005Y-46079190D02*
X61151624Y-45888714D01*
X61151624Y-45888714D02*
X61199243Y-45793476D01*
X61199243Y-45793476D02*
X61294481Y-45698238D01*
X61294481Y-45698238D02*
X61437338Y-45650619D01*
X61437338Y-45650619D02*
X61532576Y-45650619D01*
X61532576Y-45650619D02*
X61675433Y-45698238D01*
X61675433Y-45698238D02*
X61723052Y-45745857D01*
X62627814Y-46650619D02*
X62151624Y-46650619D01*
X62151624Y-46650619D02*
X62151624Y-45650619D01*
%TO.C,R7*%
X113903933Y-53675619D02*
X113570600Y-53199428D01*
X113332505Y-53675619D02*
X113332505Y-52675619D01*
X113332505Y-52675619D02*
X113713457Y-52675619D01*
X113713457Y-52675619D02*
X113808695Y-52723238D01*
X113808695Y-52723238D02*
X113856314Y-52770857D01*
X113856314Y-52770857D02*
X113903933Y-52866095D01*
X113903933Y-52866095D02*
X113903933Y-53008952D01*
X113903933Y-53008952D02*
X113856314Y-53104190D01*
X113856314Y-53104190D02*
X113808695Y-53151809D01*
X113808695Y-53151809D02*
X113713457Y-53199428D01*
X113713457Y-53199428D02*
X113332505Y-53199428D01*
X114237267Y-52675619D02*
X114903933Y-52675619D01*
X114903933Y-52675619D02*
X114475362Y-53675619D01*
%TO.C,SDA*%
X64930314Y-46603000D02*
X65073171Y-46650619D01*
X65073171Y-46650619D02*
X65311266Y-46650619D01*
X65311266Y-46650619D02*
X65406504Y-46603000D01*
X65406504Y-46603000D02*
X65454123Y-46555380D01*
X65454123Y-46555380D02*
X65501742Y-46460142D01*
X65501742Y-46460142D02*
X65501742Y-46364904D01*
X65501742Y-46364904D02*
X65454123Y-46269666D01*
X65454123Y-46269666D02*
X65406504Y-46222047D01*
X65406504Y-46222047D02*
X65311266Y-46174428D01*
X65311266Y-46174428D02*
X65120790Y-46126809D01*
X65120790Y-46126809D02*
X65025552Y-46079190D01*
X65025552Y-46079190D02*
X64977933Y-46031571D01*
X64977933Y-46031571D02*
X64930314Y-45936333D01*
X64930314Y-45936333D02*
X64930314Y-45841095D01*
X64930314Y-45841095D02*
X64977933Y-45745857D01*
X64977933Y-45745857D02*
X65025552Y-45698238D01*
X65025552Y-45698238D02*
X65120790Y-45650619D01*
X65120790Y-45650619D02*
X65358885Y-45650619D01*
X65358885Y-45650619D02*
X65501742Y-45698238D01*
X65930314Y-46650619D02*
X65930314Y-45650619D01*
X65930314Y-45650619D02*
X66168409Y-45650619D01*
X66168409Y-45650619D02*
X66311266Y-45698238D01*
X66311266Y-45698238D02*
X66406504Y-45793476D01*
X66406504Y-45793476D02*
X66454123Y-45888714D01*
X66454123Y-45888714D02*
X66501742Y-46079190D01*
X66501742Y-46079190D02*
X66501742Y-46222047D01*
X66501742Y-46222047D02*
X66454123Y-46412523D01*
X66454123Y-46412523D02*
X66406504Y-46507761D01*
X66406504Y-46507761D02*
X66311266Y-46603000D01*
X66311266Y-46603000D02*
X66168409Y-46650619D01*
X66168409Y-46650619D02*
X65930314Y-46650619D01*
X66882695Y-46364904D02*
X67358885Y-46364904D01*
X66787457Y-46650619D02*
X67120790Y-45650619D01*
X67120790Y-45650619D02*
X67454123Y-46650619D01*
%TO.C,R20*%
X106221719Y-62642357D02*
X105745528Y-62975690D01*
X106221719Y-63213785D02*
X105221719Y-63213785D01*
X105221719Y-63213785D02*
X105221719Y-62832833D01*
X105221719Y-62832833D02*
X105269338Y-62737595D01*
X105269338Y-62737595D02*
X105316957Y-62689976D01*
X105316957Y-62689976D02*
X105412195Y-62642357D01*
X105412195Y-62642357D02*
X105555052Y-62642357D01*
X105555052Y-62642357D02*
X105650290Y-62689976D01*
X105650290Y-62689976D02*
X105697909Y-62737595D01*
X105697909Y-62737595D02*
X105745528Y-62832833D01*
X105745528Y-62832833D02*
X105745528Y-63213785D01*
X105316957Y-62261404D02*
X105269338Y-62213785D01*
X105269338Y-62213785D02*
X105221719Y-62118547D01*
X105221719Y-62118547D02*
X105221719Y-61880452D01*
X105221719Y-61880452D02*
X105269338Y-61785214D01*
X105269338Y-61785214D02*
X105316957Y-61737595D01*
X105316957Y-61737595D02*
X105412195Y-61689976D01*
X105412195Y-61689976D02*
X105507433Y-61689976D01*
X105507433Y-61689976D02*
X105650290Y-61737595D01*
X105650290Y-61737595D02*
X106221719Y-62309023D01*
X106221719Y-62309023D02*
X106221719Y-61689976D01*
X105221719Y-61070928D02*
X105221719Y-60975690D01*
X105221719Y-60975690D02*
X105269338Y-60880452D01*
X105269338Y-60880452D02*
X105316957Y-60832833D01*
X105316957Y-60832833D02*
X105412195Y-60785214D01*
X105412195Y-60785214D02*
X105602671Y-60737595D01*
X105602671Y-60737595D02*
X105840766Y-60737595D01*
X105840766Y-60737595D02*
X106031242Y-60785214D01*
X106031242Y-60785214D02*
X106126480Y-60832833D01*
X106126480Y-60832833D02*
X106174100Y-60880452D01*
X106174100Y-60880452D02*
X106221719Y-60975690D01*
X106221719Y-60975690D02*
X106221719Y-61070928D01*
X106221719Y-61070928D02*
X106174100Y-61166166D01*
X106174100Y-61166166D02*
X106126480Y-61213785D01*
X106126480Y-61213785D02*
X106031242Y-61261404D01*
X106031242Y-61261404D02*
X105840766Y-61309023D01*
X105840766Y-61309023D02*
X105602671Y-61309023D01*
X105602671Y-61309023D02*
X105412195Y-61261404D01*
X105412195Y-61261404D02*
X105316957Y-61213785D01*
X105316957Y-61213785D02*
X105269338Y-61166166D01*
X105269338Y-61166166D02*
X105221719Y-61070928D01*
%TO.C,J2*%
X95170666Y-38070619D02*
X95170666Y-38784904D01*
X95170666Y-38784904D02*
X95123047Y-38927761D01*
X95123047Y-38927761D02*
X95027809Y-39023000D01*
X95027809Y-39023000D02*
X94884952Y-39070619D01*
X94884952Y-39070619D02*
X94789714Y-39070619D01*
X95599238Y-38165857D02*
X95646857Y-38118238D01*
X95646857Y-38118238D02*
X95742095Y-38070619D01*
X95742095Y-38070619D02*
X95980190Y-38070619D01*
X95980190Y-38070619D02*
X96075428Y-38118238D01*
X96075428Y-38118238D02*
X96123047Y-38165857D01*
X96123047Y-38165857D02*
X96170666Y-38261095D01*
X96170666Y-38261095D02*
X96170666Y-38356333D01*
X96170666Y-38356333D02*
X96123047Y-38499190D01*
X96123047Y-38499190D02*
X95551619Y-39070619D01*
X95551619Y-39070619D02*
X96170666Y-39070619D01*
%TO.C,R4*%
X88253719Y-38611416D02*
X87777528Y-38944749D01*
X88253719Y-39182844D02*
X87253719Y-39182844D01*
X87253719Y-39182844D02*
X87253719Y-38801892D01*
X87253719Y-38801892D02*
X87301338Y-38706654D01*
X87301338Y-38706654D02*
X87348957Y-38659035D01*
X87348957Y-38659035D02*
X87444195Y-38611416D01*
X87444195Y-38611416D02*
X87587052Y-38611416D01*
X87587052Y-38611416D02*
X87682290Y-38659035D01*
X87682290Y-38659035D02*
X87729909Y-38706654D01*
X87729909Y-38706654D02*
X87777528Y-38801892D01*
X87777528Y-38801892D02*
X87777528Y-39182844D01*
X87587052Y-37754273D02*
X88253719Y-37754273D01*
X87206100Y-37992368D02*
X87920385Y-38230463D01*
X87920385Y-38230463D02*
X87920385Y-37611416D01*
%TO.C,JP5*%
X116332266Y-54199619D02*
X116332266Y-54913904D01*
X116332266Y-54913904D02*
X116284647Y-55056761D01*
X116284647Y-55056761D02*
X116189409Y-55152000D01*
X116189409Y-55152000D02*
X116046552Y-55199619D01*
X116046552Y-55199619D02*
X115951314Y-55199619D01*
X116808457Y-55199619D02*
X116808457Y-54199619D01*
X116808457Y-54199619D02*
X117189409Y-54199619D01*
X117189409Y-54199619D02*
X117284647Y-54247238D01*
X117284647Y-54247238D02*
X117332266Y-54294857D01*
X117332266Y-54294857D02*
X117379885Y-54390095D01*
X117379885Y-54390095D02*
X117379885Y-54532952D01*
X117379885Y-54532952D02*
X117332266Y-54628190D01*
X117332266Y-54628190D02*
X117284647Y-54675809D01*
X117284647Y-54675809D02*
X117189409Y-54723428D01*
X117189409Y-54723428D02*
X116808457Y-54723428D01*
X118284647Y-54199619D02*
X117808457Y-54199619D01*
X117808457Y-54199619D02*
X117760838Y-54675809D01*
X117760838Y-54675809D02*
X117808457Y-54628190D01*
X117808457Y-54628190D02*
X117903695Y-54580571D01*
X117903695Y-54580571D02*
X118141790Y-54580571D01*
X118141790Y-54580571D02*
X118237028Y-54628190D01*
X118237028Y-54628190D02*
X118284647Y-54675809D01*
X118284647Y-54675809D02*
X118332266Y-54771047D01*
X118332266Y-54771047D02*
X118332266Y-55009142D01*
X118332266Y-55009142D02*
X118284647Y-55104380D01*
X118284647Y-55104380D02*
X118237028Y-55152000D01*
X118237028Y-55152000D02*
X118141790Y-55199619D01*
X118141790Y-55199619D02*
X117903695Y-55199619D01*
X117903695Y-55199619D02*
X117808457Y-55152000D01*
X117808457Y-55152000D02*
X117760838Y-55104380D01*
%TO.C,J6*%
X43658619Y-41735333D02*
X44372904Y-41735333D01*
X44372904Y-41735333D02*
X44515761Y-41782952D01*
X44515761Y-41782952D02*
X44611000Y-41878190D01*
X44611000Y-41878190D02*
X44658619Y-42021047D01*
X44658619Y-42021047D02*
X44658619Y-42116285D01*
X43658619Y-40830571D02*
X43658619Y-41021047D01*
X43658619Y-41021047D02*
X43706238Y-41116285D01*
X43706238Y-41116285D02*
X43753857Y-41163904D01*
X43753857Y-41163904D02*
X43896714Y-41259142D01*
X43896714Y-41259142D02*
X44087190Y-41306761D01*
X44087190Y-41306761D02*
X44468142Y-41306761D01*
X44468142Y-41306761D02*
X44563380Y-41259142D01*
X44563380Y-41259142D02*
X44611000Y-41211523D01*
X44611000Y-41211523D02*
X44658619Y-41116285D01*
X44658619Y-41116285D02*
X44658619Y-40925809D01*
X44658619Y-40925809D02*
X44611000Y-40830571D01*
X44611000Y-40830571D02*
X44563380Y-40782952D01*
X44563380Y-40782952D02*
X44468142Y-40735333D01*
X44468142Y-40735333D02*
X44230047Y-40735333D01*
X44230047Y-40735333D02*
X44134809Y-40782952D01*
X44134809Y-40782952D02*
X44087190Y-40830571D01*
X44087190Y-40830571D02*
X44039571Y-40925809D01*
X44039571Y-40925809D02*
X44039571Y-41116285D01*
X44039571Y-41116285D02*
X44087190Y-41211523D01*
X44087190Y-41211523D02*
X44134809Y-41259142D01*
X44134809Y-41259142D02*
X44230047Y-41306761D01*
%TO.C,R3*%
X71438933Y-39832619D02*
X71105600Y-39356428D01*
X70867505Y-39832619D02*
X70867505Y-38832619D01*
X70867505Y-38832619D02*
X71248457Y-38832619D01*
X71248457Y-38832619D02*
X71343695Y-38880238D01*
X71343695Y-38880238D02*
X71391314Y-38927857D01*
X71391314Y-38927857D02*
X71438933Y-39023095D01*
X71438933Y-39023095D02*
X71438933Y-39165952D01*
X71438933Y-39165952D02*
X71391314Y-39261190D01*
X71391314Y-39261190D02*
X71343695Y-39308809D01*
X71343695Y-39308809D02*
X71248457Y-39356428D01*
X71248457Y-39356428D02*
X70867505Y-39356428D01*
X71772267Y-38832619D02*
X72391314Y-38832619D01*
X72391314Y-38832619D02*
X72057981Y-39213571D01*
X72057981Y-39213571D02*
X72200838Y-39213571D01*
X72200838Y-39213571D02*
X72296076Y-39261190D01*
X72296076Y-39261190D02*
X72343695Y-39308809D01*
X72343695Y-39308809D02*
X72391314Y-39404047D01*
X72391314Y-39404047D02*
X72391314Y-39642142D01*
X72391314Y-39642142D02*
X72343695Y-39737380D01*
X72343695Y-39737380D02*
X72296076Y-39785000D01*
X72296076Y-39785000D02*
X72200838Y-39832619D01*
X72200838Y-39832619D02*
X71915124Y-39832619D01*
X71915124Y-39832619D02*
X71819886Y-39785000D01*
X71819886Y-39785000D02*
X71772267Y-39737380D01*
%TO.C,R10*%
X117007242Y-59296619D02*
X116673909Y-58820428D01*
X116435814Y-59296619D02*
X116435814Y-58296619D01*
X116435814Y-58296619D02*
X116816766Y-58296619D01*
X116816766Y-58296619D02*
X116912004Y-58344238D01*
X116912004Y-58344238D02*
X116959623Y-58391857D01*
X116959623Y-58391857D02*
X117007242Y-58487095D01*
X117007242Y-58487095D02*
X117007242Y-58629952D01*
X117007242Y-58629952D02*
X116959623Y-58725190D01*
X116959623Y-58725190D02*
X116912004Y-58772809D01*
X116912004Y-58772809D02*
X116816766Y-58820428D01*
X116816766Y-58820428D02*
X116435814Y-58820428D01*
X117959623Y-59296619D02*
X117388195Y-59296619D01*
X117673909Y-59296619D02*
X117673909Y-58296619D01*
X117673909Y-58296619D02*
X117578671Y-58439476D01*
X117578671Y-58439476D02*
X117483433Y-58534714D01*
X117483433Y-58534714D02*
X117388195Y-58582333D01*
X118578671Y-58296619D02*
X118673909Y-58296619D01*
X118673909Y-58296619D02*
X118769147Y-58344238D01*
X118769147Y-58344238D02*
X118816766Y-58391857D01*
X118816766Y-58391857D02*
X118864385Y-58487095D01*
X118864385Y-58487095D02*
X118912004Y-58677571D01*
X118912004Y-58677571D02*
X118912004Y-58915666D01*
X118912004Y-58915666D02*
X118864385Y-59106142D01*
X118864385Y-59106142D02*
X118816766Y-59201380D01*
X118816766Y-59201380D02*
X118769147Y-59249000D01*
X118769147Y-59249000D02*
X118673909Y-59296619D01*
X118673909Y-59296619D02*
X118578671Y-59296619D01*
X118578671Y-59296619D02*
X118483433Y-59249000D01*
X118483433Y-59249000D02*
X118435814Y-59201380D01*
X118435814Y-59201380D02*
X118388195Y-59106142D01*
X118388195Y-59106142D02*
X118340576Y-58915666D01*
X118340576Y-58915666D02*
X118340576Y-58677571D01*
X118340576Y-58677571D02*
X118388195Y-58487095D01*
X118388195Y-58487095D02*
X118435814Y-58391857D01*
X118435814Y-58391857D02*
X118483433Y-58344238D01*
X118483433Y-58344238D02*
X118578671Y-58296619D01*
%TO.C,R19*%
X106292219Y-57030857D02*
X105816028Y-57364190D01*
X106292219Y-57602285D02*
X105292219Y-57602285D01*
X105292219Y-57602285D02*
X105292219Y-57221333D01*
X105292219Y-57221333D02*
X105339838Y-57126095D01*
X105339838Y-57126095D02*
X105387457Y-57078476D01*
X105387457Y-57078476D02*
X105482695Y-57030857D01*
X105482695Y-57030857D02*
X105625552Y-57030857D01*
X105625552Y-57030857D02*
X105720790Y-57078476D01*
X105720790Y-57078476D02*
X105768409Y-57126095D01*
X105768409Y-57126095D02*
X105816028Y-57221333D01*
X105816028Y-57221333D02*
X105816028Y-57602285D01*
X106292219Y-56078476D02*
X106292219Y-56649904D01*
X106292219Y-56364190D02*
X105292219Y-56364190D01*
X105292219Y-56364190D02*
X105435076Y-56459428D01*
X105435076Y-56459428D02*
X105530314Y-56554666D01*
X105530314Y-56554666D02*
X105577933Y-56649904D01*
X106292219Y-55602285D02*
X106292219Y-55411809D01*
X106292219Y-55411809D02*
X106244600Y-55316571D01*
X106244600Y-55316571D02*
X106196980Y-55268952D01*
X106196980Y-55268952D02*
X106054123Y-55173714D01*
X106054123Y-55173714D02*
X105863647Y-55126095D01*
X105863647Y-55126095D02*
X105482695Y-55126095D01*
X105482695Y-55126095D02*
X105387457Y-55173714D01*
X105387457Y-55173714D02*
X105339838Y-55221333D01*
X105339838Y-55221333D02*
X105292219Y-55316571D01*
X105292219Y-55316571D02*
X105292219Y-55507047D01*
X105292219Y-55507047D02*
X105339838Y-55602285D01*
X105339838Y-55602285D02*
X105387457Y-55649904D01*
X105387457Y-55649904D02*
X105482695Y-55697523D01*
X105482695Y-55697523D02*
X105720790Y-55697523D01*
X105720790Y-55697523D02*
X105816028Y-55649904D01*
X105816028Y-55649904D02*
X105863647Y-55602285D01*
X105863647Y-55602285D02*
X105911266Y-55507047D01*
X105911266Y-55507047D02*
X105911266Y-55316571D01*
X105911266Y-55316571D02*
X105863647Y-55221333D01*
X105863647Y-55221333D02*
X105816028Y-55173714D01*
X105816028Y-55173714D02*
X105720790Y-55126095D01*
%TO.C,D1*%
X80346719Y-37568094D02*
X79346719Y-37568094D01*
X79346719Y-37568094D02*
X79346719Y-37329999D01*
X79346719Y-37329999D02*
X79394338Y-37187142D01*
X79394338Y-37187142D02*
X79489576Y-37091904D01*
X79489576Y-37091904D02*
X79584814Y-37044285D01*
X79584814Y-37044285D02*
X79775290Y-36996666D01*
X79775290Y-36996666D02*
X79918147Y-36996666D01*
X79918147Y-36996666D02*
X80108623Y-37044285D01*
X80108623Y-37044285D02*
X80203861Y-37091904D01*
X80203861Y-37091904D02*
X80299100Y-37187142D01*
X80299100Y-37187142D02*
X80346719Y-37329999D01*
X80346719Y-37329999D02*
X80346719Y-37568094D01*
X80346719Y-36044285D02*
X80346719Y-36615713D01*
X80346719Y-36329999D02*
X79346719Y-36329999D01*
X79346719Y-36329999D02*
X79489576Y-36425237D01*
X79489576Y-36425237D02*
X79584814Y-36520475D01*
X79584814Y-36520475D02*
X79632433Y-36615713D01*
%TO.C,J3*%
X41068666Y-45182619D02*
X41068666Y-45896904D01*
X41068666Y-45896904D02*
X41021047Y-46039761D01*
X41021047Y-46039761D02*
X40925809Y-46135000D01*
X40925809Y-46135000D02*
X40782952Y-46182619D01*
X40782952Y-46182619D02*
X40687714Y-46182619D01*
X41449619Y-45182619D02*
X42068666Y-45182619D01*
X42068666Y-45182619D02*
X41735333Y-45563571D01*
X41735333Y-45563571D02*
X41878190Y-45563571D01*
X41878190Y-45563571D02*
X41973428Y-45611190D01*
X41973428Y-45611190D02*
X42021047Y-45658809D01*
X42021047Y-45658809D02*
X42068666Y-45754047D01*
X42068666Y-45754047D02*
X42068666Y-45992142D01*
X42068666Y-45992142D02*
X42021047Y-46087380D01*
X42021047Y-46087380D02*
X41973428Y-46135000D01*
X41973428Y-46135000D02*
X41878190Y-46182619D01*
X41878190Y-46182619D02*
X41592476Y-46182619D01*
X41592476Y-46182619D02*
X41497238Y-46135000D01*
X41497238Y-46135000D02*
X41449619Y-46087380D01*
%TO.C,Q3*%
X110217861Y-54545857D02*
X110122623Y-54498238D01*
X110122623Y-54498238D02*
X110027385Y-54403000D01*
X110027385Y-54403000D02*
X109884528Y-54260142D01*
X109884528Y-54260142D02*
X109789290Y-54212523D01*
X109789290Y-54212523D02*
X109694052Y-54212523D01*
X109741671Y-54450619D02*
X109646433Y-54403000D01*
X109646433Y-54403000D02*
X109551195Y-54307761D01*
X109551195Y-54307761D02*
X109503576Y-54117285D01*
X109503576Y-54117285D02*
X109503576Y-53783952D01*
X109503576Y-53783952D02*
X109551195Y-53593476D01*
X109551195Y-53593476D02*
X109646433Y-53498238D01*
X109646433Y-53498238D02*
X109741671Y-53450619D01*
X109741671Y-53450619D02*
X109932147Y-53450619D01*
X109932147Y-53450619D02*
X110027385Y-53498238D01*
X110027385Y-53498238D02*
X110122623Y-53593476D01*
X110122623Y-53593476D02*
X110170242Y-53783952D01*
X110170242Y-53783952D02*
X110170242Y-54117285D01*
X110170242Y-54117285D02*
X110122623Y-54307761D01*
X110122623Y-54307761D02*
X110027385Y-54403000D01*
X110027385Y-54403000D02*
X109932147Y-54450619D01*
X109932147Y-54450619D02*
X109741671Y-54450619D01*
X110503576Y-53450619D02*
X111122623Y-53450619D01*
X111122623Y-53450619D02*
X110789290Y-53831571D01*
X110789290Y-53831571D02*
X110932147Y-53831571D01*
X110932147Y-53831571D02*
X111027385Y-53879190D01*
X111027385Y-53879190D02*
X111075004Y-53926809D01*
X111075004Y-53926809D02*
X111122623Y-54022047D01*
X111122623Y-54022047D02*
X111122623Y-54260142D01*
X111122623Y-54260142D02*
X111075004Y-54355380D01*
X111075004Y-54355380D02*
X111027385Y-54403000D01*
X111027385Y-54403000D02*
X110932147Y-54450619D01*
X110932147Y-54450619D02*
X110646433Y-54450619D01*
X110646433Y-54450619D02*
X110551195Y-54403000D01*
X110551195Y-54403000D02*
X110503576Y-54355380D01*
%TO.C,R11*%
X113507742Y-64884619D02*
X113174409Y-64408428D01*
X112936314Y-64884619D02*
X112936314Y-63884619D01*
X112936314Y-63884619D02*
X113317266Y-63884619D01*
X113317266Y-63884619D02*
X113412504Y-63932238D01*
X113412504Y-63932238D02*
X113460123Y-63979857D01*
X113460123Y-63979857D02*
X113507742Y-64075095D01*
X113507742Y-64075095D02*
X113507742Y-64217952D01*
X113507742Y-64217952D02*
X113460123Y-64313190D01*
X113460123Y-64313190D02*
X113412504Y-64360809D01*
X113412504Y-64360809D02*
X113317266Y-64408428D01*
X113317266Y-64408428D02*
X112936314Y-64408428D01*
X114460123Y-64884619D02*
X113888695Y-64884619D01*
X114174409Y-64884619D02*
X114174409Y-63884619D01*
X114174409Y-63884619D02*
X114079171Y-64027476D01*
X114079171Y-64027476D02*
X113983933Y-64122714D01*
X113983933Y-64122714D02*
X113888695Y-64170333D01*
X115412504Y-64884619D02*
X114841076Y-64884619D01*
X115126790Y-64884619D02*
X115126790Y-63884619D01*
X115126790Y-63884619D02*
X115031552Y-64027476D01*
X115031552Y-64027476D02*
X114936314Y-64122714D01*
X114936314Y-64122714D02*
X114841076Y-64170333D01*
%TO.C,C2*%
X53173333Y-54977380D02*
X53125714Y-55025000D01*
X53125714Y-55025000D02*
X52982857Y-55072619D01*
X52982857Y-55072619D02*
X52887619Y-55072619D01*
X52887619Y-55072619D02*
X52744762Y-55025000D01*
X52744762Y-55025000D02*
X52649524Y-54929761D01*
X52649524Y-54929761D02*
X52601905Y-54834523D01*
X52601905Y-54834523D02*
X52554286Y-54644047D01*
X52554286Y-54644047D02*
X52554286Y-54501190D01*
X52554286Y-54501190D02*
X52601905Y-54310714D01*
X52601905Y-54310714D02*
X52649524Y-54215476D01*
X52649524Y-54215476D02*
X52744762Y-54120238D01*
X52744762Y-54120238D02*
X52887619Y-54072619D01*
X52887619Y-54072619D02*
X52982857Y-54072619D01*
X52982857Y-54072619D02*
X53125714Y-54120238D01*
X53125714Y-54120238D02*
X53173333Y-54167857D01*
X53554286Y-54167857D02*
X53601905Y-54120238D01*
X53601905Y-54120238D02*
X53697143Y-54072619D01*
X53697143Y-54072619D02*
X53935238Y-54072619D01*
X53935238Y-54072619D02*
X54030476Y-54120238D01*
X54030476Y-54120238D02*
X54078095Y-54167857D01*
X54078095Y-54167857D02*
X54125714Y-54263095D01*
X54125714Y-54263095D02*
X54125714Y-54358333D01*
X54125714Y-54358333D02*
X54078095Y-54501190D01*
X54078095Y-54501190D02*
X53506667Y-55072619D01*
X53506667Y-55072619D02*
X54125714Y-55072619D01*
%TO.C,GND*%
X57912095Y-65042238D02*
X57816857Y-64994619D01*
X57816857Y-64994619D02*
X57674000Y-64994619D01*
X57674000Y-64994619D02*
X57531143Y-65042238D01*
X57531143Y-65042238D02*
X57435905Y-65137476D01*
X57435905Y-65137476D02*
X57388286Y-65232714D01*
X57388286Y-65232714D02*
X57340667Y-65423190D01*
X57340667Y-65423190D02*
X57340667Y-65566047D01*
X57340667Y-65566047D02*
X57388286Y-65756523D01*
X57388286Y-65756523D02*
X57435905Y-65851761D01*
X57435905Y-65851761D02*
X57531143Y-65947000D01*
X57531143Y-65947000D02*
X57674000Y-65994619D01*
X57674000Y-65994619D02*
X57769238Y-65994619D01*
X57769238Y-65994619D02*
X57912095Y-65947000D01*
X57912095Y-65947000D02*
X57959714Y-65899380D01*
X57959714Y-65899380D02*
X57959714Y-65566047D01*
X57959714Y-65566047D02*
X57769238Y-65566047D01*
X58388286Y-65994619D02*
X58388286Y-64994619D01*
X58388286Y-64994619D02*
X58959714Y-65994619D01*
X58959714Y-65994619D02*
X58959714Y-64994619D01*
X59435905Y-65994619D02*
X59435905Y-64994619D01*
X59435905Y-64994619D02*
X59674000Y-64994619D01*
X59674000Y-64994619D02*
X59816857Y-65042238D01*
X59816857Y-65042238D02*
X59912095Y-65137476D01*
X59912095Y-65137476D02*
X59959714Y-65232714D01*
X59959714Y-65232714D02*
X60007333Y-65423190D01*
X60007333Y-65423190D02*
X60007333Y-65566047D01*
X60007333Y-65566047D02*
X59959714Y-65756523D01*
X59959714Y-65756523D02*
X59912095Y-65851761D01*
X59912095Y-65851761D02*
X59816857Y-65947000D01*
X59816857Y-65947000D02*
X59674000Y-65994619D01*
X59674000Y-65994619D02*
X59435905Y-65994619D01*
%TO.C,C4*%
X62756933Y-60404380D02*
X62709314Y-60452000D01*
X62709314Y-60452000D02*
X62566457Y-60499619D01*
X62566457Y-60499619D02*
X62471219Y-60499619D01*
X62471219Y-60499619D02*
X62328362Y-60452000D01*
X62328362Y-60452000D02*
X62233124Y-60356761D01*
X62233124Y-60356761D02*
X62185505Y-60261523D01*
X62185505Y-60261523D02*
X62137886Y-60071047D01*
X62137886Y-60071047D02*
X62137886Y-59928190D01*
X62137886Y-59928190D02*
X62185505Y-59737714D01*
X62185505Y-59737714D02*
X62233124Y-59642476D01*
X62233124Y-59642476D02*
X62328362Y-59547238D01*
X62328362Y-59547238D02*
X62471219Y-59499619D01*
X62471219Y-59499619D02*
X62566457Y-59499619D01*
X62566457Y-59499619D02*
X62709314Y-59547238D01*
X62709314Y-59547238D02*
X62756933Y-59594857D01*
X63614076Y-59832952D02*
X63614076Y-60499619D01*
X63375981Y-59452000D02*
X63137886Y-60166285D01*
X63137886Y-60166285D02*
X63756933Y-60166285D01*
%TO.C,JP1*%
X68991266Y-62752619D02*
X68991266Y-63466904D01*
X68991266Y-63466904D02*
X68943647Y-63609761D01*
X68943647Y-63609761D02*
X68848409Y-63705000D01*
X68848409Y-63705000D02*
X68705552Y-63752619D01*
X68705552Y-63752619D02*
X68610314Y-63752619D01*
X69467457Y-63752619D02*
X69467457Y-62752619D01*
X69467457Y-62752619D02*
X69848409Y-62752619D01*
X69848409Y-62752619D02*
X69943647Y-62800238D01*
X69943647Y-62800238D02*
X69991266Y-62847857D01*
X69991266Y-62847857D02*
X70038885Y-62943095D01*
X70038885Y-62943095D02*
X70038885Y-63085952D01*
X70038885Y-63085952D02*
X69991266Y-63181190D01*
X69991266Y-63181190D02*
X69943647Y-63228809D01*
X69943647Y-63228809D02*
X69848409Y-63276428D01*
X69848409Y-63276428D02*
X69467457Y-63276428D01*
X70991266Y-63752619D02*
X70419838Y-63752619D01*
X70705552Y-63752619D02*
X70705552Y-62752619D01*
X70705552Y-62752619D02*
X70610314Y-62895476D01*
X70610314Y-62895476D02*
X70515076Y-62990714D01*
X70515076Y-62990714D02*
X70419838Y-63038333D01*
%TO.C,D2*%
X51770619Y-65508094D02*
X50770619Y-65508094D01*
X50770619Y-65508094D02*
X50770619Y-65269999D01*
X50770619Y-65269999D02*
X50818238Y-65127142D01*
X50818238Y-65127142D02*
X50913476Y-65031904D01*
X50913476Y-65031904D02*
X51008714Y-64984285D01*
X51008714Y-64984285D02*
X51199190Y-64936666D01*
X51199190Y-64936666D02*
X51342047Y-64936666D01*
X51342047Y-64936666D02*
X51532523Y-64984285D01*
X51532523Y-64984285D02*
X51627761Y-65031904D01*
X51627761Y-65031904D02*
X51723000Y-65127142D01*
X51723000Y-65127142D02*
X51770619Y-65269999D01*
X51770619Y-65269999D02*
X51770619Y-65508094D01*
X50865857Y-64555713D02*
X50818238Y-64508094D01*
X50818238Y-64508094D02*
X50770619Y-64412856D01*
X50770619Y-64412856D02*
X50770619Y-64174761D01*
X50770619Y-64174761D02*
X50818238Y-64079523D01*
X50818238Y-64079523D02*
X50865857Y-64031904D01*
X50865857Y-64031904D02*
X50961095Y-63984285D01*
X50961095Y-63984285D02*
X51056333Y-63984285D01*
X51056333Y-63984285D02*
X51199190Y-64031904D01*
X51199190Y-64031904D02*
X51770619Y-64603332D01*
X51770619Y-64603332D02*
X51770619Y-63984285D01*
%TO.C,Q2*%
X110043861Y-48830857D02*
X109948623Y-48783238D01*
X109948623Y-48783238D02*
X109853385Y-48688000D01*
X109853385Y-48688000D02*
X109710528Y-48545142D01*
X109710528Y-48545142D02*
X109615290Y-48497523D01*
X109615290Y-48497523D02*
X109520052Y-48497523D01*
X109567671Y-48735619D02*
X109472433Y-48688000D01*
X109472433Y-48688000D02*
X109377195Y-48592761D01*
X109377195Y-48592761D02*
X109329576Y-48402285D01*
X109329576Y-48402285D02*
X109329576Y-48068952D01*
X109329576Y-48068952D02*
X109377195Y-47878476D01*
X109377195Y-47878476D02*
X109472433Y-47783238D01*
X109472433Y-47783238D02*
X109567671Y-47735619D01*
X109567671Y-47735619D02*
X109758147Y-47735619D01*
X109758147Y-47735619D02*
X109853385Y-47783238D01*
X109853385Y-47783238D02*
X109948623Y-47878476D01*
X109948623Y-47878476D02*
X109996242Y-48068952D01*
X109996242Y-48068952D02*
X109996242Y-48402285D01*
X109996242Y-48402285D02*
X109948623Y-48592761D01*
X109948623Y-48592761D02*
X109853385Y-48688000D01*
X109853385Y-48688000D02*
X109758147Y-48735619D01*
X109758147Y-48735619D02*
X109567671Y-48735619D01*
X110377195Y-47830857D02*
X110424814Y-47783238D01*
X110424814Y-47783238D02*
X110520052Y-47735619D01*
X110520052Y-47735619D02*
X110758147Y-47735619D01*
X110758147Y-47735619D02*
X110853385Y-47783238D01*
X110853385Y-47783238D02*
X110901004Y-47830857D01*
X110901004Y-47830857D02*
X110948623Y-47926095D01*
X110948623Y-47926095D02*
X110948623Y-48021333D01*
X110948623Y-48021333D02*
X110901004Y-48164190D01*
X110901004Y-48164190D02*
X110329576Y-48735619D01*
X110329576Y-48735619D02*
X110948623Y-48735619D01*
%TO.C,JP4*%
X116158266Y-48357619D02*
X116158266Y-49071904D01*
X116158266Y-49071904D02*
X116110647Y-49214761D01*
X116110647Y-49214761D02*
X116015409Y-49310000D01*
X116015409Y-49310000D02*
X115872552Y-49357619D01*
X115872552Y-49357619D02*
X115777314Y-49357619D01*
X116634457Y-49357619D02*
X116634457Y-48357619D01*
X116634457Y-48357619D02*
X117015409Y-48357619D01*
X117015409Y-48357619D02*
X117110647Y-48405238D01*
X117110647Y-48405238D02*
X117158266Y-48452857D01*
X117158266Y-48452857D02*
X117205885Y-48548095D01*
X117205885Y-48548095D02*
X117205885Y-48690952D01*
X117205885Y-48690952D02*
X117158266Y-48786190D01*
X117158266Y-48786190D02*
X117110647Y-48833809D01*
X117110647Y-48833809D02*
X117015409Y-48881428D01*
X117015409Y-48881428D02*
X116634457Y-48881428D01*
X118063028Y-48690952D02*
X118063028Y-49357619D01*
X117824933Y-48310000D02*
X117586838Y-49024285D01*
X117586838Y-49024285D02*
X118205885Y-49024285D01*
%TO.C,3v3*%
X79835524Y-33498619D02*
X80454571Y-33498619D01*
X80454571Y-33498619D02*
X80121238Y-33879571D01*
X80121238Y-33879571D02*
X80264095Y-33879571D01*
X80264095Y-33879571D02*
X80359333Y-33927190D01*
X80359333Y-33927190D02*
X80406952Y-33974809D01*
X80406952Y-33974809D02*
X80454571Y-34070047D01*
X80454571Y-34070047D02*
X80454571Y-34308142D01*
X80454571Y-34308142D02*
X80406952Y-34403380D01*
X80406952Y-34403380D02*
X80359333Y-34451000D01*
X80359333Y-34451000D02*
X80264095Y-34498619D01*
X80264095Y-34498619D02*
X79978381Y-34498619D01*
X79978381Y-34498619D02*
X79883143Y-34451000D01*
X79883143Y-34451000D02*
X79835524Y-34403380D01*
X80787905Y-33831952D02*
X81026000Y-34498619D01*
X81026000Y-34498619D02*
X81264095Y-33831952D01*
X81549810Y-33498619D02*
X82168857Y-33498619D01*
X82168857Y-33498619D02*
X81835524Y-33879571D01*
X81835524Y-33879571D02*
X81978381Y-33879571D01*
X81978381Y-33879571D02*
X82073619Y-33927190D01*
X82073619Y-33927190D02*
X82121238Y-33974809D01*
X82121238Y-33974809D02*
X82168857Y-34070047D01*
X82168857Y-34070047D02*
X82168857Y-34308142D01*
X82168857Y-34308142D02*
X82121238Y-34403380D01*
X82121238Y-34403380D02*
X82073619Y-34451000D01*
X82073619Y-34451000D02*
X81978381Y-34498619D01*
X81978381Y-34498619D02*
X81692667Y-34498619D01*
X81692667Y-34498619D02*
X81597429Y-34451000D01*
X81597429Y-34451000D02*
X81549810Y-34403380D01*
%TO.C,J1*%
X83790619Y-64595333D02*
X84504904Y-64595333D01*
X84504904Y-64595333D02*
X84647761Y-64642952D01*
X84647761Y-64642952D02*
X84743000Y-64738190D01*
X84743000Y-64738190D02*
X84790619Y-64881047D01*
X84790619Y-64881047D02*
X84790619Y-64976285D01*
X84790619Y-63595333D02*
X84790619Y-64166761D01*
X84790619Y-63881047D02*
X83790619Y-63881047D01*
X83790619Y-63881047D02*
X83933476Y-63976285D01*
X83933476Y-63976285D02*
X84028714Y-64071523D01*
X84028714Y-64071523D02*
X84076333Y-64166761D01*
%TO.C,Q1*%
X110126861Y-43115857D02*
X110031623Y-43068238D01*
X110031623Y-43068238D02*
X109936385Y-42973000D01*
X109936385Y-42973000D02*
X109793528Y-42830142D01*
X109793528Y-42830142D02*
X109698290Y-42782523D01*
X109698290Y-42782523D02*
X109603052Y-42782523D01*
X109650671Y-43020619D02*
X109555433Y-42973000D01*
X109555433Y-42973000D02*
X109460195Y-42877761D01*
X109460195Y-42877761D02*
X109412576Y-42687285D01*
X109412576Y-42687285D02*
X109412576Y-42353952D01*
X109412576Y-42353952D02*
X109460195Y-42163476D01*
X109460195Y-42163476D02*
X109555433Y-42068238D01*
X109555433Y-42068238D02*
X109650671Y-42020619D01*
X109650671Y-42020619D02*
X109841147Y-42020619D01*
X109841147Y-42020619D02*
X109936385Y-42068238D01*
X109936385Y-42068238D02*
X110031623Y-42163476D01*
X110031623Y-42163476D02*
X110079242Y-42353952D01*
X110079242Y-42353952D02*
X110079242Y-42687285D01*
X110079242Y-42687285D02*
X110031623Y-42877761D01*
X110031623Y-42877761D02*
X109936385Y-42973000D01*
X109936385Y-42973000D02*
X109841147Y-43020619D01*
X109841147Y-43020619D02*
X109650671Y-43020619D01*
X111031623Y-43020619D02*
X110460195Y-43020619D01*
X110745909Y-43020619D02*
X110745909Y-42020619D01*
X110745909Y-42020619D02*
X110650671Y-42163476D01*
X110650671Y-42163476D02*
X110555433Y-42258714D01*
X110555433Y-42258714D02*
X110460195Y-42306333D01*
%TO.C,C5*%
X55179933Y-62216380D02*
X55132314Y-62264000D01*
X55132314Y-62264000D02*
X54989457Y-62311619D01*
X54989457Y-62311619D02*
X54894219Y-62311619D01*
X54894219Y-62311619D02*
X54751362Y-62264000D01*
X54751362Y-62264000D02*
X54656124Y-62168761D01*
X54656124Y-62168761D02*
X54608505Y-62073523D01*
X54608505Y-62073523D02*
X54560886Y-61883047D01*
X54560886Y-61883047D02*
X54560886Y-61740190D01*
X54560886Y-61740190D02*
X54608505Y-61549714D01*
X54608505Y-61549714D02*
X54656124Y-61454476D01*
X54656124Y-61454476D02*
X54751362Y-61359238D01*
X54751362Y-61359238D02*
X54894219Y-61311619D01*
X54894219Y-61311619D02*
X54989457Y-61311619D01*
X54989457Y-61311619D02*
X55132314Y-61359238D01*
X55132314Y-61359238D02*
X55179933Y-61406857D01*
X56084695Y-61311619D02*
X55608505Y-61311619D01*
X55608505Y-61311619D02*
X55560886Y-61787809D01*
X55560886Y-61787809D02*
X55608505Y-61740190D01*
X55608505Y-61740190D02*
X55703743Y-61692571D01*
X55703743Y-61692571D02*
X55941838Y-61692571D01*
X55941838Y-61692571D02*
X56037076Y-61740190D01*
X56037076Y-61740190D02*
X56084695Y-61787809D01*
X56084695Y-61787809D02*
X56132314Y-61883047D01*
X56132314Y-61883047D02*
X56132314Y-62121142D01*
X56132314Y-62121142D02*
X56084695Y-62216380D01*
X56084695Y-62216380D02*
X56037076Y-62264000D01*
X56037076Y-62264000D02*
X55941838Y-62311619D01*
X55941838Y-62311619D02*
X55703743Y-62311619D01*
X55703743Y-62311619D02*
X55608505Y-62264000D01*
X55608505Y-62264000D02*
X55560886Y-62216380D01*
%TO.C,R5*%
X113992433Y-47866619D02*
X113659100Y-47390428D01*
X113421005Y-47866619D02*
X113421005Y-46866619D01*
X113421005Y-46866619D02*
X113801957Y-46866619D01*
X113801957Y-46866619D02*
X113897195Y-46914238D01*
X113897195Y-46914238D02*
X113944814Y-46961857D01*
X113944814Y-46961857D02*
X113992433Y-47057095D01*
X113992433Y-47057095D02*
X113992433Y-47199952D01*
X113992433Y-47199952D02*
X113944814Y-47295190D01*
X113944814Y-47295190D02*
X113897195Y-47342809D01*
X113897195Y-47342809D02*
X113801957Y-47390428D01*
X113801957Y-47390428D02*
X113421005Y-47390428D01*
X114897195Y-46866619D02*
X114421005Y-46866619D01*
X114421005Y-46866619D02*
X114373386Y-47342809D01*
X114373386Y-47342809D02*
X114421005Y-47295190D01*
X114421005Y-47295190D02*
X114516243Y-47247571D01*
X114516243Y-47247571D02*
X114754338Y-47247571D01*
X114754338Y-47247571D02*
X114849576Y-47295190D01*
X114849576Y-47295190D02*
X114897195Y-47342809D01*
X114897195Y-47342809D02*
X114944814Y-47438047D01*
X114944814Y-47438047D02*
X114944814Y-47676142D01*
X114944814Y-47676142D02*
X114897195Y-47771380D01*
X114897195Y-47771380D02*
X114849576Y-47819000D01*
X114849576Y-47819000D02*
X114754338Y-47866619D01*
X114754338Y-47866619D02*
X114516243Y-47866619D01*
X114516243Y-47866619D02*
X114421005Y-47819000D01*
X114421005Y-47819000D02*
X114373386Y-47771380D01*
%TO.C,R9*%
X114054433Y-59296619D02*
X113721100Y-58820428D01*
X113483005Y-59296619D02*
X113483005Y-58296619D01*
X113483005Y-58296619D02*
X113863957Y-58296619D01*
X113863957Y-58296619D02*
X113959195Y-58344238D01*
X113959195Y-58344238D02*
X114006814Y-58391857D01*
X114006814Y-58391857D02*
X114054433Y-58487095D01*
X114054433Y-58487095D02*
X114054433Y-58629952D01*
X114054433Y-58629952D02*
X114006814Y-58725190D01*
X114006814Y-58725190D02*
X113959195Y-58772809D01*
X113959195Y-58772809D02*
X113863957Y-58820428D01*
X113863957Y-58820428D02*
X113483005Y-58820428D01*
X114530624Y-59296619D02*
X114721100Y-59296619D01*
X114721100Y-59296619D02*
X114816338Y-59249000D01*
X114816338Y-59249000D02*
X114863957Y-59201380D01*
X114863957Y-59201380D02*
X114959195Y-59058523D01*
X114959195Y-59058523D02*
X115006814Y-58868047D01*
X115006814Y-58868047D02*
X115006814Y-58487095D01*
X115006814Y-58487095D02*
X114959195Y-58391857D01*
X114959195Y-58391857D02*
X114911576Y-58344238D01*
X114911576Y-58344238D02*
X114816338Y-58296619D01*
X114816338Y-58296619D02*
X114625862Y-58296619D01*
X114625862Y-58296619D02*
X114530624Y-58344238D01*
X114530624Y-58344238D02*
X114483005Y-58391857D01*
X114483005Y-58391857D02*
X114435386Y-58487095D01*
X114435386Y-58487095D02*
X114435386Y-58725190D01*
X114435386Y-58725190D02*
X114483005Y-58820428D01*
X114483005Y-58820428D02*
X114530624Y-58868047D01*
X114530624Y-58868047D02*
X114625862Y-58915666D01*
X114625862Y-58915666D02*
X114816338Y-58915666D01*
X114816338Y-58915666D02*
X114911576Y-58868047D01*
X114911576Y-58868047D02*
X114959195Y-58820428D01*
X114959195Y-58820428D02*
X115006814Y-58725190D01*
%TO.C,R18*%
X106118219Y-51339357D02*
X105642028Y-51672690D01*
X106118219Y-51910785D02*
X105118219Y-51910785D01*
X105118219Y-51910785D02*
X105118219Y-51529833D01*
X105118219Y-51529833D02*
X105165838Y-51434595D01*
X105165838Y-51434595D02*
X105213457Y-51386976D01*
X105213457Y-51386976D02*
X105308695Y-51339357D01*
X105308695Y-51339357D02*
X105451552Y-51339357D01*
X105451552Y-51339357D02*
X105546790Y-51386976D01*
X105546790Y-51386976D02*
X105594409Y-51434595D01*
X105594409Y-51434595D02*
X105642028Y-51529833D01*
X105642028Y-51529833D02*
X105642028Y-51910785D01*
X106118219Y-50386976D02*
X106118219Y-50958404D01*
X106118219Y-50672690D02*
X105118219Y-50672690D01*
X105118219Y-50672690D02*
X105261076Y-50767928D01*
X105261076Y-50767928D02*
X105356314Y-50863166D01*
X105356314Y-50863166D02*
X105403933Y-50958404D01*
X105546790Y-49815547D02*
X105499171Y-49910785D01*
X105499171Y-49910785D02*
X105451552Y-49958404D01*
X105451552Y-49958404D02*
X105356314Y-50006023D01*
X105356314Y-50006023D02*
X105308695Y-50006023D01*
X105308695Y-50006023D02*
X105213457Y-49958404D01*
X105213457Y-49958404D02*
X105165838Y-49910785D01*
X105165838Y-49910785D02*
X105118219Y-49815547D01*
X105118219Y-49815547D02*
X105118219Y-49625071D01*
X105118219Y-49625071D02*
X105165838Y-49529833D01*
X105165838Y-49529833D02*
X105213457Y-49482214D01*
X105213457Y-49482214D02*
X105308695Y-49434595D01*
X105308695Y-49434595D02*
X105356314Y-49434595D01*
X105356314Y-49434595D02*
X105451552Y-49482214D01*
X105451552Y-49482214D02*
X105499171Y-49529833D01*
X105499171Y-49529833D02*
X105546790Y-49625071D01*
X105546790Y-49625071D02*
X105546790Y-49815547D01*
X105546790Y-49815547D02*
X105594409Y-49910785D01*
X105594409Y-49910785D02*
X105642028Y-49958404D01*
X105642028Y-49958404D02*
X105737266Y-50006023D01*
X105737266Y-50006023D02*
X105927742Y-50006023D01*
X105927742Y-50006023D02*
X106022980Y-49958404D01*
X106022980Y-49958404D02*
X106070600Y-49910785D01*
X106070600Y-49910785D02*
X106118219Y-49815547D01*
X106118219Y-49815547D02*
X106118219Y-49625071D01*
X106118219Y-49625071D02*
X106070600Y-49529833D01*
X106070600Y-49529833D02*
X106022980Y-49482214D01*
X106022980Y-49482214D02*
X105927742Y-49434595D01*
X105927742Y-49434595D02*
X105737266Y-49434595D01*
X105737266Y-49434595D02*
X105642028Y-49482214D01*
X105642028Y-49482214D02*
X105594409Y-49529833D01*
X105594409Y-49529833D02*
X105546790Y-49625071D01*
%TO.C,JP7*%
X46913719Y-39528333D02*
X47628004Y-39528333D01*
X47628004Y-39528333D02*
X47770861Y-39575952D01*
X47770861Y-39575952D02*
X47866100Y-39671190D01*
X47866100Y-39671190D02*
X47913719Y-39814047D01*
X47913719Y-39814047D02*
X47913719Y-39909285D01*
X47913719Y-39052142D02*
X46913719Y-39052142D01*
X46913719Y-39052142D02*
X46913719Y-38671190D01*
X46913719Y-38671190D02*
X46961338Y-38575952D01*
X46961338Y-38575952D02*
X47008957Y-38528333D01*
X47008957Y-38528333D02*
X47104195Y-38480714D01*
X47104195Y-38480714D02*
X47247052Y-38480714D01*
X47247052Y-38480714D02*
X47342290Y-38528333D01*
X47342290Y-38528333D02*
X47389909Y-38575952D01*
X47389909Y-38575952D02*
X47437528Y-38671190D01*
X47437528Y-38671190D02*
X47437528Y-39052142D01*
X46913719Y-38147380D02*
X46913719Y-37480714D01*
X46913719Y-37480714D02*
X47913719Y-37909285D01*
%TO.C,R15*%
X102679742Y-57391619D02*
X102346409Y-56915428D01*
X102108314Y-57391619D02*
X102108314Y-56391619D01*
X102108314Y-56391619D02*
X102489266Y-56391619D01*
X102489266Y-56391619D02*
X102584504Y-56439238D01*
X102584504Y-56439238D02*
X102632123Y-56486857D01*
X102632123Y-56486857D02*
X102679742Y-56582095D01*
X102679742Y-56582095D02*
X102679742Y-56724952D01*
X102679742Y-56724952D02*
X102632123Y-56820190D01*
X102632123Y-56820190D02*
X102584504Y-56867809D01*
X102584504Y-56867809D02*
X102489266Y-56915428D01*
X102489266Y-56915428D02*
X102108314Y-56915428D01*
X103632123Y-57391619D02*
X103060695Y-57391619D01*
X103346409Y-57391619D02*
X103346409Y-56391619D01*
X103346409Y-56391619D02*
X103251171Y-56534476D01*
X103251171Y-56534476D02*
X103155933Y-56629714D01*
X103155933Y-56629714D02*
X103060695Y-56677333D01*
X104536885Y-56391619D02*
X104060695Y-56391619D01*
X104060695Y-56391619D02*
X104013076Y-56867809D01*
X104013076Y-56867809D02*
X104060695Y-56820190D01*
X104060695Y-56820190D02*
X104155933Y-56772571D01*
X104155933Y-56772571D02*
X104394028Y-56772571D01*
X104394028Y-56772571D02*
X104489266Y-56820190D01*
X104489266Y-56820190D02*
X104536885Y-56867809D01*
X104536885Y-56867809D02*
X104584504Y-56963047D01*
X104584504Y-56963047D02*
X104584504Y-57201142D01*
X104584504Y-57201142D02*
X104536885Y-57296380D01*
X104536885Y-57296380D02*
X104489266Y-57344000D01*
X104489266Y-57344000D02*
X104394028Y-57391619D01*
X104394028Y-57391619D02*
X104155933Y-57391619D01*
X104155933Y-57391619D02*
X104060695Y-57344000D01*
X104060695Y-57344000D02*
X104013076Y-57296380D01*
%TO.C,R16*%
X102609242Y-62979619D02*
X102275909Y-62503428D01*
X102037814Y-62979619D02*
X102037814Y-61979619D01*
X102037814Y-61979619D02*
X102418766Y-61979619D01*
X102418766Y-61979619D02*
X102514004Y-62027238D01*
X102514004Y-62027238D02*
X102561623Y-62074857D01*
X102561623Y-62074857D02*
X102609242Y-62170095D01*
X102609242Y-62170095D02*
X102609242Y-62312952D01*
X102609242Y-62312952D02*
X102561623Y-62408190D01*
X102561623Y-62408190D02*
X102514004Y-62455809D01*
X102514004Y-62455809D02*
X102418766Y-62503428D01*
X102418766Y-62503428D02*
X102037814Y-62503428D01*
X103561623Y-62979619D02*
X102990195Y-62979619D01*
X103275909Y-62979619D02*
X103275909Y-61979619D01*
X103275909Y-61979619D02*
X103180671Y-62122476D01*
X103180671Y-62122476D02*
X103085433Y-62217714D01*
X103085433Y-62217714D02*
X102990195Y-62265333D01*
X104418766Y-61979619D02*
X104228290Y-61979619D01*
X104228290Y-61979619D02*
X104133052Y-62027238D01*
X104133052Y-62027238D02*
X104085433Y-62074857D01*
X104085433Y-62074857D02*
X103990195Y-62217714D01*
X103990195Y-62217714D02*
X103942576Y-62408190D01*
X103942576Y-62408190D02*
X103942576Y-62789142D01*
X103942576Y-62789142D02*
X103990195Y-62884380D01*
X103990195Y-62884380D02*
X104037814Y-62932000D01*
X104037814Y-62932000D02*
X104133052Y-62979619D01*
X104133052Y-62979619D02*
X104323528Y-62979619D01*
X104323528Y-62979619D02*
X104418766Y-62932000D01*
X104418766Y-62932000D02*
X104466385Y-62884380D01*
X104466385Y-62884380D02*
X104514004Y-62789142D01*
X104514004Y-62789142D02*
X104514004Y-62551047D01*
X104514004Y-62551047D02*
X104466385Y-62455809D01*
X104466385Y-62455809D02*
X104418766Y-62408190D01*
X104418766Y-62408190D02*
X104323528Y-62360571D01*
X104323528Y-62360571D02*
X104133052Y-62360571D01*
X104133052Y-62360571D02*
X104037814Y-62408190D01*
X104037814Y-62408190D02*
X103990195Y-62455809D01*
X103990195Y-62455809D02*
X103942576Y-62551047D01*
%TO.C,R22*%
X78060719Y-41028857D02*
X77584528Y-41362190D01*
X78060719Y-41600285D02*
X77060719Y-41600285D01*
X77060719Y-41600285D02*
X77060719Y-41219333D01*
X77060719Y-41219333D02*
X77108338Y-41124095D01*
X77108338Y-41124095D02*
X77155957Y-41076476D01*
X77155957Y-41076476D02*
X77251195Y-41028857D01*
X77251195Y-41028857D02*
X77394052Y-41028857D01*
X77394052Y-41028857D02*
X77489290Y-41076476D01*
X77489290Y-41076476D02*
X77536909Y-41124095D01*
X77536909Y-41124095D02*
X77584528Y-41219333D01*
X77584528Y-41219333D02*
X77584528Y-41600285D01*
X77155957Y-40647904D02*
X77108338Y-40600285D01*
X77108338Y-40600285D02*
X77060719Y-40505047D01*
X77060719Y-40505047D02*
X77060719Y-40266952D01*
X77060719Y-40266952D02*
X77108338Y-40171714D01*
X77108338Y-40171714D02*
X77155957Y-40124095D01*
X77155957Y-40124095D02*
X77251195Y-40076476D01*
X77251195Y-40076476D02*
X77346433Y-40076476D01*
X77346433Y-40076476D02*
X77489290Y-40124095D01*
X77489290Y-40124095D02*
X78060719Y-40695523D01*
X78060719Y-40695523D02*
X78060719Y-40076476D01*
X77155957Y-39695523D02*
X77108338Y-39647904D01*
X77108338Y-39647904D02*
X77060719Y-39552666D01*
X77060719Y-39552666D02*
X77060719Y-39314571D01*
X77060719Y-39314571D02*
X77108338Y-39219333D01*
X77108338Y-39219333D02*
X77155957Y-39171714D01*
X77155957Y-39171714D02*
X77251195Y-39124095D01*
X77251195Y-39124095D02*
X77346433Y-39124095D01*
X77346433Y-39124095D02*
X77489290Y-39171714D01*
X77489290Y-39171714D02*
X78060719Y-39743142D01*
X78060719Y-39743142D02*
X78060719Y-39124095D01*
%TO.C,JP8*%
X49712666Y-33752619D02*
X49712666Y-34466904D01*
X49712666Y-34466904D02*
X49665047Y-34609761D01*
X49665047Y-34609761D02*
X49569809Y-34705000D01*
X49569809Y-34705000D02*
X49426952Y-34752619D01*
X49426952Y-34752619D02*
X49331714Y-34752619D01*
X50188857Y-34752619D02*
X50188857Y-33752619D01*
X50188857Y-33752619D02*
X50569809Y-33752619D01*
X50569809Y-33752619D02*
X50665047Y-33800238D01*
X50665047Y-33800238D02*
X50712666Y-33847857D01*
X50712666Y-33847857D02*
X50760285Y-33943095D01*
X50760285Y-33943095D02*
X50760285Y-34085952D01*
X50760285Y-34085952D02*
X50712666Y-34181190D01*
X50712666Y-34181190D02*
X50665047Y-34228809D01*
X50665047Y-34228809D02*
X50569809Y-34276428D01*
X50569809Y-34276428D02*
X50188857Y-34276428D01*
X51331714Y-34181190D02*
X51236476Y-34133571D01*
X51236476Y-34133571D02*
X51188857Y-34085952D01*
X51188857Y-34085952D02*
X51141238Y-33990714D01*
X51141238Y-33990714D02*
X51141238Y-33943095D01*
X51141238Y-33943095D02*
X51188857Y-33847857D01*
X51188857Y-33847857D02*
X51236476Y-33800238D01*
X51236476Y-33800238D02*
X51331714Y-33752619D01*
X51331714Y-33752619D02*
X51522190Y-33752619D01*
X51522190Y-33752619D02*
X51617428Y-33800238D01*
X51617428Y-33800238D02*
X51665047Y-33847857D01*
X51665047Y-33847857D02*
X51712666Y-33943095D01*
X51712666Y-33943095D02*
X51712666Y-33990714D01*
X51712666Y-33990714D02*
X51665047Y-34085952D01*
X51665047Y-34085952D02*
X51617428Y-34133571D01*
X51617428Y-34133571D02*
X51522190Y-34181190D01*
X51522190Y-34181190D02*
X51331714Y-34181190D01*
X51331714Y-34181190D02*
X51236476Y-34228809D01*
X51236476Y-34228809D02*
X51188857Y-34276428D01*
X51188857Y-34276428D02*
X51141238Y-34371666D01*
X51141238Y-34371666D02*
X51141238Y-34562142D01*
X51141238Y-34562142D02*
X51188857Y-34657380D01*
X51188857Y-34657380D02*
X51236476Y-34705000D01*
X51236476Y-34705000D02*
X51331714Y-34752619D01*
X51331714Y-34752619D02*
X51522190Y-34752619D01*
X51522190Y-34752619D02*
X51617428Y-34705000D01*
X51617428Y-34705000D02*
X51665047Y-34657380D01*
X51665047Y-34657380D02*
X51712666Y-34562142D01*
X51712666Y-34562142D02*
X51712666Y-34371666D01*
X51712666Y-34371666D02*
X51665047Y-34276428D01*
X51665047Y-34276428D02*
X51617428Y-34228809D01*
X51617428Y-34228809D02*
X51522190Y-34181190D01*
%TO.C,J5*%
X35734666Y-43404619D02*
X35734666Y-44118904D01*
X35734666Y-44118904D02*
X35687047Y-44261761D01*
X35687047Y-44261761D02*
X35591809Y-44357000D01*
X35591809Y-44357000D02*
X35448952Y-44404619D01*
X35448952Y-44404619D02*
X35353714Y-44404619D01*
X36687047Y-43404619D02*
X36210857Y-43404619D01*
X36210857Y-43404619D02*
X36163238Y-43880809D01*
X36163238Y-43880809D02*
X36210857Y-43833190D01*
X36210857Y-43833190D02*
X36306095Y-43785571D01*
X36306095Y-43785571D02*
X36544190Y-43785571D01*
X36544190Y-43785571D02*
X36639428Y-43833190D01*
X36639428Y-43833190D02*
X36687047Y-43880809D01*
X36687047Y-43880809D02*
X36734666Y-43976047D01*
X36734666Y-43976047D02*
X36734666Y-44214142D01*
X36734666Y-44214142D02*
X36687047Y-44309380D01*
X36687047Y-44309380D02*
X36639428Y-44357000D01*
X36639428Y-44357000D02*
X36544190Y-44404619D01*
X36544190Y-44404619D02*
X36306095Y-44404619D01*
X36306095Y-44404619D02*
X36210857Y-44357000D01*
X36210857Y-44357000D02*
X36163238Y-44309380D01*
%TO.C,U3*%
X51562095Y-56866619D02*
X51562095Y-57676142D01*
X51562095Y-57676142D02*
X51609714Y-57771380D01*
X51609714Y-57771380D02*
X51657333Y-57819000D01*
X51657333Y-57819000D02*
X51752571Y-57866619D01*
X51752571Y-57866619D02*
X51943047Y-57866619D01*
X51943047Y-57866619D02*
X52038285Y-57819000D01*
X52038285Y-57819000D02*
X52085904Y-57771380D01*
X52085904Y-57771380D02*
X52133523Y-57676142D01*
X52133523Y-57676142D02*
X52133523Y-56866619D01*
X52514476Y-56866619D02*
X53133523Y-56866619D01*
X53133523Y-56866619D02*
X52800190Y-57247571D01*
X52800190Y-57247571D02*
X52943047Y-57247571D01*
X52943047Y-57247571D02*
X53038285Y-57295190D01*
X53038285Y-57295190D02*
X53085904Y-57342809D01*
X53085904Y-57342809D02*
X53133523Y-57438047D01*
X53133523Y-57438047D02*
X53133523Y-57676142D01*
X53133523Y-57676142D02*
X53085904Y-57771380D01*
X53085904Y-57771380D02*
X53038285Y-57819000D01*
X53038285Y-57819000D02*
X52943047Y-57866619D01*
X52943047Y-57866619D02*
X52657333Y-57866619D01*
X52657333Y-57866619D02*
X52562095Y-57819000D01*
X52562095Y-57819000D02*
X52514476Y-57771380D01*
%TO.C,R13*%
X102721242Y-45961619D02*
X102387909Y-45485428D01*
X102149814Y-45961619D02*
X102149814Y-44961619D01*
X102149814Y-44961619D02*
X102530766Y-44961619D01*
X102530766Y-44961619D02*
X102626004Y-45009238D01*
X102626004Y-45009238D02*
X102673623Y-45056857D01*
X102673623Y-45056857D02*
X102721242Y-45152095D01*
X102721242Y-45152095D02*
X102721242Y-45294952D01*
X102721242Y-45294952D02*
X102673623Y-45390190D01*
X102673623Y-45390190D02*
X102626004Y-45437809D01*
X102626004Y-45437809D02*
X102530766Y-45485428D01*
X102530766Y-45485428D02*
X102149814Y-45485428D01*
X103673623Y-45961619D02*
X103102195Y-45961619D01*
X103387909Y-45961619D02*
X103387909Y-44961619D01*
X103387909Y-44961619D02*
X103292671Y-45104476D01*
X103292671Y-45104476D02*
X103197433Y-45199714D01*
X103197433Y-45199714D02*
X103102195Y-45247333D01*
X104006957Y-44961619D02*
X104626004Y-44961619D01*
X104626004Y-44961619D02*
X104292671Y-45342571D01*
X104292671Y-45342571D02*
X104435528Y-45342571D01*
X104435528Y-45342571D02*
X104530766Y-45390190D01*
X104530766Y-45390190D02*
X104578385Y-45437809D01*
X104578385Y-45437809D02*
X104626004Y-45533047D01*
X104626004Y-45533047D02*
X104626004Y-45771142D01*
X104626004Y-45771142D02*
X104578385Y-45866380D01*
X104578385Y-45866380D02*
X104530766Y-45914000D01*
X104530766Y-45914000D02*
X104435528Y-45961619D01*
X104435528Y-45961619D02*
X104149814Y-45961619D01*
X104149814Y-45961619D02*
X104054576Y-45914000D01*
X104054576Y-45914000D02*
X104006957Y-45866380D01*
%TO.C,R1*%
X69688219Y-36592166D02*
X69212028Y-36925499D01*
X69688219Y-37163594D02*
X68688219Y-37163594D01*
X68688219Y-37163594D02*
X68688219Y-36782642D01*
X68688219Y-36782642D02*
X68735838Y-36687404D01*
X68735838Y-36687404D02*
X68783457Y-36639785D01*
X68783457Y-36639785D02*
X68878695Y-36592166D01*
X68878695Y-36592166D02*
X69021552Y-36592166D01*
X69021552Y-36592166D02*
X69116790Y-36639785D01*
X69116790Y-36639785D02*
X69164409Y-36687404D01*
X69164409Y-36687404D02*
X69212028Y-36782642D01*
X69212028Y-36782642D02*
X69212028Y-37163594D01*
X69688219Y-35639785D02*
X69688219Y-36211213D01*
X69688219Y-35925499D02*
X68688219Y-35925499D01*
X68688219Y-35925499D02*
X68831076Y-36020737D01*
X68831076Y-36020737D02*
X68926314Y-36115975D01*
X68926314Y-36115975D02*
X68973933Y-36211213D01*
%TO.C,R21*%
X52032219Y-62110857D02*
X51556028Y-62444190D01*
X52032219Y-62682285D02*
X51032219Y-62682285D01*
X51032219Y-62682285D02*
X51032219Y-62301333D01*
X51032219Y-62301333D02*
X51079838Y-62206095D01*
X51079838Y-62206095D02*
X51127457Y-62158476D01*
X51127457Y-62158476D02*
X51222695Y-62110857D01*
X51222695Y-62110857D02*
X51365552Y-62110857D01*
X51365552Y-62110857D02*
X51460790Y-62158476D01*
X51460790Y-62158476D02*
X51508409Y-62206095D01*
X51508409Y-62206095D02*
X51556028Y-62301333D01*
X51556028Y-62301333D02*
X51556028Y-62682285D01*
X51127457Y-61729904D02*
X51079838Y-61682285D01*
X51079838Y-61682285D02*
X51032219Y-61587047D01*
X51032219Y-61587047D02*
X51032219Y-61348952D01*
X51032219Y-61348952D02*
X51079838Y-61253714D01*
X51079838Y-61253714D02*
X51127457Y-61206095D01*
X51127457Y-61206095D02*
X51222695Y-61158476D01*
X51222695Y-61158476D02*
X51317933Y-61158476D01*
X51317933Y-61158476D02*
X51460790Y-61206095D01*
X51460790Y-61206095D02*
X52032219Y-61777523D01*
X52032219Y-61777523D02*
X52032219Y-61158476D01*
X52032219Y-60206095D02*
X52032219Y-60777523D01*
X52032219Y-60491809D02*
X51032219Y-60491809D01*
X51032219Y-60491809D02*
X51175076Y-60587047D01*
X51175076Y-60587047D02*
X51270314Y-60682285D01*
X51270314Y-60682285D02*
X51317933Y-60777523D01*
%TO.C,C3*%
X62756933Y-62944380D02*
X62709314Y-62992000D01*
X62709314Y-62992000D02*
X62566457Y-63039619D01*
X62566457Y-63039619D02*
X62471219Y-63039619D01*
X62471219Y-63039619D02*
X62328362Y-62992000D01*
X62328362Y-62992000D02*
X62233124Y-62896761D01*
X62233124Y-62896761D02*
X62185505Y-62801523D01*
X62185505Y-62801523D02*
X62137886Y-62611047D01*
X62137886Y-62611047D02*
X62137886Y-62468190D01*
X62137886Y-62468190D02*
X62185505Y-62277714D01*
X62185505Y-62277714D02*
X62233124Y-62182476D01*
X62233124Y-62182476D02*
X62328362Y-62087238D01*
X62328362Y-62087238D02*
X62471219Y-62039619D01*
X62471219Y-62039619D02*
X62566457Y-62039619D01*
X62566457Y-62039619D02*
X62709314Y-62087238D01*
X62709314Y-62087238D02*
X62756933Y-62134857D01*
X63090267Y-62039619D02*
X63709314Y-62039619D01*
X63709314Y-62039619D02*
X63375981Y-62420571D01*
X63375981Y-62420571D02*
X63518838Y-62420571D01*
X63518838Y-62420571D02*
X63614076Y-62468190D01*
X63614076Y-62468190D02*
X63661695Y-62515809D01*
X63661695Y-62515809D02*
X63709314Y-62611047D01*
X63709314Y-62611047D02*
X63709314Y-62849142D01*
X63709314Y-62849142D02*
X63661695Y-62944380D01*
X63661695Y-62944380D02*
X63614076Y-62992000D01*
X63614076Y-62992000D02*
X63518838Y-63039619D01*
X63518838Y-63039619D02*
X63233124Y-63039619D01*
X63233124Y-63039619D02*
X63137886Y-62992000D01*
X63137886Y-62992000D02*
X63090267Y-62944380D01*
%TO.C,C1*%
X63056933Y-34276380D02*
X63009314Y-34324000D01*
X63009314Y-34324000D02*
X62866457Y-34371619D01*
X62866457Y-34371619D02*
X62771219Y-34371619D01*
X62771219Y-34371619D02*
X62628362Y-34324000D01*
X62628362Y-34324000D02*
X62533124Y-34228761D01*
X62533124Y-34228761D02*
X62485505Y-34133523D01*
X62485505Y-34133523D02*
X62437886Y-33943047D01*
X62437886Y-33943047D02*
X62437886Y-33800190D01*
X62437886Y-33800190D02*
X62485505Y-33609714D01*
X62485505Y-33609714D02*
X62533124Y-33514476D01*
X62533124Y-33514476D02*
X62628362Y-33419238D01*
X62628362Y-33419238D02*
X62771219Y-33371619D01*
X62771219Y-33371619D02*
X62866457Y-33371619D01*
X62866457Y-33371619D02*
X63009314Y-33419238D01*
X63009314Y-33419238D02*
X63056933Y-33466857D01*
X64009314Y-34371619D02*
X63437886Y-34371619D01*
X63723600Y-34371619D02*
X63723600Y-33371619D01*
X63723600Y-33371619D02*
X63628362Y-33514476D01*
X63628362Y-33514476D02*
X63533124Y-33609714D01*
X63533124Y-33609714D02*
X63437886Y-33657333D01*
%TO.C,D4*%
X88728719Y-36538094D02*
X87728719Y-36538094D01*
X87728719Y-36538094D02*
X87728719Y-36299999D01*
X87728719Y-36299999D02*
X87776338Y-36157142D01*
X87776338Y-36157142D02*
X87871576Y-36061904D01*
X87871576Y-36061904D02*
X87966814Y-36014285D01*
X87966814Y-36014285D02*
X88157290Y-35966666D01*
X88157290Y-35966666D02*
X88300147Y-35966666D01*
X88300147Y-35966666D02*
X88490623Y-36014285D01*
X88490623Y-36014285D02*
X88585861Y-36061904D01*
X88585861Y-36061904D02*
X88681100Y-36157142D01*
X88681100Y-36157142D02*
X88728719Y-36299999D01*
X88728719Y-36299999D02*
X88728719Y-36538094D01*
X88062052Y-35109523D02*
X88728719Y-35109523D01*
X87681100Y-35347618D02*
X88395385Y-35585713D01*
X88395385Y-35585713D02*
X88395385Y-34966666D01*
%TO.C,R8*%
X117356433Y-53581619D02*
X117023100Y-53105428D01*
X116785005Y-53581619D02*
X116785005Y-52581619D01*
X116785005Y-52581619D02*
X117165957Y-52581619D01*
X117165957Y-52581619D02*
X117261195Y-52629238D01*
X117261195Y-52629238D02*
X117308814Y-52676857D01*
X117308814Y-52676857D02*
X117356433Y-52772095D01*
X117356433Y-52772095D02*
X117356433Y-52914952D01*
X117356433Y-52914952D02*
X117308814Y-53010190D01*
X117308814Y-53010190D02*
X117261195Y-53057809D01*
X117261195Y-53057809D02*
X117165957Y-53105428D01*
X117165957Y-53105428D02*
X116785005Y-53105428D01*
X117927862Y-53010190D02*
X117832624Y-52962571D01*
X117832624Y-52962571D02*
X117785005Y-52914952D01*
X117785005Y-52914952D02*
X117737386Y-52819714D01*
X117737386Y-52819714D02*
X117737386Y-52772095D01*
X117737386Y-52772095D02*
X117785005Y-52676857D01*
X117785005Y-52676857D02*
X117832624Y-52629238D01*
X117832624Y-52629238D02*
X117927862Y-52581619D01*
X117927862Y-52581619D02*
X118118338Y-52581619D01*
X118118338Y-52581619D02*
X118213576Y-52629238D01*
X118213576Y-52629238D02*
X118261195Y-52676857D01*
X118261195Y-52676857D02*
X118308814Y-52772095D01*
X118308814Y-52772095D02*
X118308814Y-52819714D01*
X118308814Y-52819714D02*
X118261195Y-52914952D01*
X118261195Y-52914952D02*
X118213576Y-52962571D01*
X118213576Y-52962571D02*
X118118338Y-53010190D01*
X118118338Y-53010190D02*
X117927862Y-53010190D01*
X117927862Y-53010190D02*
X117832624Y-53057809D01*
X117832624Y-53057809D02*
X117785005Y-53105428D01*
X117785005Y-53105428D02*
X117737386Y-53200666D01*
X117737386Y-53200666D02*
X117737386Y-53391142D01*
X117737386Y-53391142D02*
X117785005Y-53486380D01*
X117785005Y-53486380D02*
X117832624Y-53534000D01*
X117832624Y-53534000D02*
X117927862Y-53581619D01*
X117927862Y-53581619D02*
X118118338Y-53581619D01*
X118118338Y-53581619D02*
X118213576Y-53534000D01*
X118213576Y-53534000D02*
X118261195Y-53486380D01*
X118261195Y-53486380D02*
X118308814Y-53391142D01*
X118308814Y-53391142D02*
X118308814Y-53200666D01*
X118308814Y-53200666D02*
X118261195Y-53105428D01*
X118261195Y-53105428D02*
X118213576Y-53057809D01*
X118213576Y-53057809D02*
X118118338Y-53010190D01*
%TO.C,JP6*%
X116261766Y-59660619D02*
X116261766Y-60374904D01*
X116261766Y-60374904D02*
X116214147Y-60517761D01*
X116214147Y-60517761D02*
X116118909Y-60613000D01*
X116118909Y-60613000D02*
X115976052Y-60660619D01*
X115976052Y-60660619D02*
X115880814Y-60660619D01*
X116737957Y-60660619D02*
X116737957Y-59660619D01*
X116737957Y-59660619D02*
X117118909Y-59660619D01*
X117118909Y-59660619D02*
X117214147Y-59708238D01*
X117214147Y-59708238D02*
X117261766Y-59755857D01*
X117261766Y-59755857D02*
X117309385Y-59851095D01*
X117309385Y-59851095D02*
X117309385Y-59993952D01*
X117309385Y-59993952D02*
X117261766Y-60089190D01*
X117261766Y-60089190D02*
X117214147Y-60136809D01*
X117214147Y-60136809D02*
X117118909Y-60184428D01*
X117118909Y-60184428D02*
X116737957Y-60184428D01*
X118166528Y-59660619D02*
X117976052Y-59660619D01*
X117976052Y-59660619D02*
X117880814Y-59708238D01*
X117880814Y-59708238D02*
X117833195Y-59755857D01*
X117833195Y-59755857D02*
X117737957Y-59898714D01*
X117737957Y-59898714D02*
X117690338Y-60089190D01*
X117690338Y-60089190D02*
X117690338Y-60470142D01*
X117690338Y-60470142D02*
X117737957Y-60565380D01*
X117737957Y-60565380D02*
X117785576Y-60613000D01*
X117785576Y-60613000D02*
X117880814Y-60660619D01*
X117880814Y-60660619D02*
X118071290Y-60660619D01*
X118071290Y-60660619D02*
X118166528Y-60613000D01*
X118166528Y-60613000D02*
X118214147Y-60565380D01*
X118214147Y-60565380D02*
X118261766Y-60470142D01*
X118261766Y-60470142D02*
X118261766Y-60232047D01*
X118261766Y-60232047D02*
X118214147Y-60136809D01*
X118214147Y-60136809D02*
X118166528Y-60089190D01*
X118166528Y-60089190D02*
X118071290Y-60041571D01*
X118071290Y-60041571D02*
X117880814Y-60041571D01*
X117880814Y-60041571D02*
X117785576Y-60089190D01*
X117785576Y-60089190D02*
X117737957Y-60136809D01*
X117737957Y-60136809D02*
X117690338Y-60232047D01*
%TO.C,J7*%
X45894666Y-55088619D02*
X45894666Y-55802904D01*
X45894666Y-55802904D02*
X45847047Y-55945761D01*
X45847047Y-55945761D02*
X45751809Y-56041000D01*
X45751809Y-56041000D02*
X45608952Y-56088619D01*
X45608952Y-56088619D02*
X45513714Y-56088619D01*
X46275619Y-55088619D02*
X46942285Y-55088619D01*
X46942285Y-55088619D02*
X46513714Y-56088619D01*
%TO.C,5V*%
X66103523Y-58136619D02*
X65627333Y-58136619D01*
X65627333Y-58136619D02*
X65579714Y-58612809D01*
X65579714Y-58612809D02*
X65627333Y-58565190D01*
X65627333Y-58565190D02*
X65722571Y-58517571D01*
X65722571Y-58517571D02*
X65960666Y-58517571D01*
X65960666Y-58517571D02*
X66055904Y-58565190D01*
X66055904Y-58565190D02*
X66103523Y-58612809D01*
X66103523Y-58612809D02*
X66151142Y-58708047D01*
X66151142Y-58708047D02*
X66151142Y-58946142D01*
X66151142Y-58946142D02*
X66103523Y-59041380D01*
X66103523Y-59041380D02*
X66055904Y-59089000D01*
X66055904Y-59089000D02*
X65960666Y-59136619D01*
X65960666Y-59136619D02*
X65722571Y-59136619D01*
X65722571Y-59136619D02*
X65627333Y-59089000D01*
X65627333Y-59089000D02*
X65579714Y-59041380D01*
X66436857Y-58136619D02*
X66770190Y-59136619D01*
X66770190Y-59136619D02*
X67103523Y-58136619D01*
%TO.C,R17*%
X106206719Y-45600857D02*
X105730528Y-45934190D01*
X106206719Y-46172285D02*
X105206719Y-46172285D01*
X105206719Y-46172285D02*
X105206719Y-45791333D01*
X105206719Y-45791333D02*
X105254338Y-45696095D01*
X105254338Y-45696095D02*
X105301957Y-45648476D01*
X105301957Y-45648476D02*
X105397195Y-45600857D01*
X105397195Y-45600857D02*
X105540052Y-45600857D01*
X105540052Y-45600857D02*
X105635290Y-45648476D01*
X105635290Y-45648476D02*
X105682909Y-45696095D01*
X105682909Y-45696095D02*
X105730528Y-45791333D01*
X105730528Y-45791333D02*
X105730528Y-46172285D01*
X106206719Y-44648476D02*
X106206719Y-45219904D01*
X106206719Y-44934190D02*
X105206719Y-44934190D01*
X105206719Y-44934190D02*
X105349576Y-45029428D01*
X105349576Y-45029428D02*
X105444814Y-45124666D01*
X105444814Y-45124666D02*
X105492433Y-45219904D01*
X105206719Y-44315142D02*
X105206719Y-43648476D01*
X105206719Y-43648476D02*
X106206719Y-44077047D01*
%TO.C,R23*%
X86480242Y-33830619D02*
X86146909Y-33354428D01*
X85908814Y-33830619D02*
X85908814Y-32830619D01*
X85908814Y-32830619D02*
X86289766Y-32830619D01*
X86289766Y-32830619D02*
X86385004Y-32878238D01*
X86385004Y-32878238D02*
X86432623Y-32925857D01*
X86432623Y-32925857D02*
X86480242Y-33021095D01*
X86480242Y-33021095D02*
X86480242Y-33163952D01*
X86480242Y-33163952D02*
X86432623Y-33259190D01*
X86432623Y-33259190D02*
X86385004Y-33306809D01*
X86385004Y-33306809D02*
X86289766Y-33354428D01*
X86289766Y-33354428D02*
X85908814Y-33354428D01*
X86861195Y-32925857D02*
X86908814Y-32878238D01*
X86908814Y-32878238D02*
X87004052Y-32830619D01*
X87004052Y-32830619D02*
X87242147Y-32830619D01*
X87242147Y-32830619D02*
X87337385Y-32878238D01*
X87337385Y-32878238D02*
X87385004Y-32925857D01*
X87385004Y-32925857D02*
X87432623Y-33021095D01*
X87432623Y-33021095D02*
X87432623Y-33116333D01*
X87432623Y-33116333D02*
X87385004Y-33259190D01*
X87385004Y-33259190D02*
X86813576Y-33830619D01*
X86813576Y-33830619D02*
X87432623Y-33830619D01*
X87765957Y-32830619D02*
X88385004Y-32830619D01*
X88385004Y-32830619D02*
X88051671Y-33211571D01*
X88051671Y-33211571D02*
X88194528Y-33211571D01*
X88194528Y-33211571D02*
X88289766Y-33259190D01*
X88289766Y-33259190D02*
X88337385Y-33306809D01*
X88337385Y-33306809D02*
X88385004Y-33402047D01*
X88385004Y-33402047D02*
X88385004Y-33640142D01*
X88385004Y-33640142D02*
X88337385Y-33735380D01*
X88337385Y-33735380D02*
X88289766Y-33783000D01*
X88289766Y-33783000D02*
X88194528Y-33830619D01*
X88194528Y-33830619D02*
X87908814Y-33830619D01*
X87908814Y-33830619D02*
X87813576Y-33783000D01*
X87813576Y-33783000D02*
X87765957Y-33735380D01*
%TO.C,R12*%
X116936742Y-64884619D02*
X116603409Y-64408428D01*
X116365314Y-64884619D02*
X116365314Y-63884619D01*
X116365314Y-63884619D02*
X116746266Y-63884619D01*
X116746266Y-63884619D02*
X116841504Y-63932238D01*
X116841504Y-63932238D02*
X116889123Y-63979857D01*
X116889123Y-63979857D02*
X116936742Y-64075095D01*
X116936742Y-64075095D02*
X116936742Y-64217952D01*
X116936742Y-64217952D02*
X116889123Y-64313190D01*
X116889123Y-64313190D02*
X116841504Y-64360809D01*
X116841504Y-64360809D02*
X116746266Y-64408428D01*
X116746266Y-64408428D02*
X116365314Y-64408428D01*
X117889123Y-64884619D02*
X117317695Y-64884619D01*
X117603409Y-64884619D02*
X117603409Y-63884619D01*
X117603409Y-63884619D02*
X117508171Y-64027476D01*
X117508171Y-64027476D02*
X117412933Y-64122714D01*
X117412933Y-64122714D02*
X117317695Y-64170333D01*
X118270076Y-63979857D02*
X118317695Y-63932238D01*
X118317695Y-63932238D02*
X118412933Y-63884619D01*
X118412933Y-63884619D02*
X118651028Y-63884619D01*
X118651028Y-63884619D02*
X118746266Y-63932238D01*
X118746266Y-63932238D02*
X118793885Y-63979857D01*
X118793885Y-63979857D02*
X118841504Y-64075095D01*
X118841504Y-64075095D02*
X118841504Y-64170333D01*
X118841504Y-64170333D02*
X118793885Y-64313190D01*
X118793885Y-64313190D02*
X118222457Y-64884619D01*
X118222457Y-64884619D02*
X118841504Y-64884619D01*
%TO.C,Q4*%
X110147361Y-60133857D02*
X110052123Y-60086238D01*
X110052123Y-60086238D02*
X109956885Y-59991000D01*
X109956885Y-59991000D02*
X109814028Y-59848142D01*
X109814028Y-59848142D02*
X109718790Y-59800523D01*
X109718790Y-59800523D02*
X109623552Y-59800523D01*
X109671171Y-60038619D02*
X109575933Y-59991000D01*
X109575933Y-59991000D02*
X109480695Y-59895761D01*
X109480695Y-59895761D02*
X109433076Y-59705285D01*
X109433076Y-59705285D02*
X109433076Y-59371952D01*
X109433076Y-59371952D02*
X109480695Y-59181476D01*
X109480695Y-59181476D02*
X109575933Y-59086238D01*
X109575933Y-59086238D02*
X109671171Y-59038619D01*
X109671171Y-59038619D02*
X109861647Y-59038619D01*
X109861647Y-59038619D02*
X109956885Y-59086238D01*
X109956885Y-59086238D02*
X110052123Y-59181476D01*
X110052123Y-59181476D02*
X110099742Y-59371952D01*
X110099742Y-59371952D02*
X110099742Y-59705285D01*
X110099742Y-59705285D02*
X110052123Y-59895761D01*
X110052123Y-59895761D02*
X109956885Y-59991000D01*
X109956885Y-59991000D02*
X109861647Y-60038619D01*
X109861647Y-60038619D02*
X109671171Y-60038619D01*
X110956885Y-59371952D02*
X110956885Y-60038619D01*
X110718790Y-58991000D02*
X110480695Y-59705285D01*
X110480695Y-59705285D02*
X111099742Y-59705285D01*
%TO.C,R2*%
X68644933Y-42786619D02*
X68311600Y-42310428D01*
X68073505Y-42786619D02*
X68073505Y-41786619D01*
X68073505Y-41786619D02*
X68454457Y-41786619D01*
X68454457Y-41786619D02*
X68549695Y-41834238D01*
X68549695Y-41834238D02*
X68597314Y-41881857D01*
X68597314Y-41881857D02*
X68644933Y-41977095D01*
X68644933Y-41977095D02*
X68644933Y-42119952D01*
X68644933Y-42119952D02*
X68597314Y-42215190D01*
X68597314Y-42215190D02*
X68549695Y-42262809D01*
X68549695Y-42262809D02*
X68454457Y-42310428D01*
X68454457Y-42310428D02*
X68073505Y-42310428D01*
X69025886Y-41881857D02*
X69073505Y-41834238D01*
X69073505Y-41834238D02*
X69168743Y-41786619D01*
X69168743Y-41786619D02*
X69406838Y-41786619D01*
X69406838Y-41786619D02*
X69502076Y-41834238D01*
X69502076Y-41834238D02*
X69549695Y-41881857D01*
X69549695Y-41881857D02*
X69597314Y-41977095D01*
X69597314Y-41977095D02*
X69597314Y-42072333D01*
X69597314Y-42072333D02*
X69549695Y-42215190D01*
X69549695Y-42215190D02*
X68978267Y-42786619D01*
X68978267Y-42786619D02*
X69597314Y-42786619D01*
%TO.C,R6*%
X117444933Y-47866619D02*
X117111600Y-47390428D01*
X116873505Y-47866619D02*
X116873505Y-46866619D01*
X116873505Y-46866619D02*
X117254457Y-46866619D01*
X117254457Y-46866619D02*
X117349695Y-46914238D01*
X117349695Y-46914238D02*
X117397314Y-46961857D01*
X117397314Y-46961857D02*
X117444933Y-47057095D01*
X117444933Y-47057095D02*
X117444933Y-47199952D01*
X117444933Y-47199952D02*
X117397314Y-47295190D01*
X117397314Y-47295190D02*
X117349695Y-47342809D01*
X117349695Y-47342809D02*
X117254457Y-47390428D01*
X117254457Y-47390428D02*
X116873505Y-47390428D01*
X118302076Y-46866619D02*
X118111600Y-46866619D01*
X118111600Y-46866619D02*
X118016362Y-46914238D01*
X118016362Y-46914238D02*
X117968743Y-46961857D01*
X117968743Y-46961857D02*
X117873505Y-47104714D01*
X117873505Y-47104714D02*
X117825886Y-47295190D01*
X117825886Y-47295190D02*
X117825886Y-47676142D01*
X117825886Y-47676142D02*
X117873505Y-47771380D01*
X117873505Y-47771380D02*
X117921124Y-47819000D01*
X117921124Y-47819000D02*
X118016362Y-47866619D01*
X118016362Y-47866619D02*
X118206838Y-47866619D01*
X118206838Y-47866619D02*
X118302076Y-47819000D01*
X118302076Y-47819000D02*
X118349695Y-47771380D01*
X118349695Y-47771380D02*
X118397314Y-47676142D01*
X118397314Y-47676142D02*
X118397314Y-47438047D01*
X118397314Y-47438047D02*
X118349695Y-47342809D01*
X118349695Y-47342809D02*
X118302076Y-47295190D01*
X118302076Y-47295190D02*
X118206838Y-47247571D01*
X118206838Y-47247571D02*
X118016362Y-47247571D01*
X118016362Y-47247571D02*
X117921124Y-47295190D01*
X117921124Y-47295190D02*
X117873505Y-47342809D01*
X117873505Y-47342809D02*
X117825886Y-47438047D01*
%TO.C,G\u002A\u002A\u002A*%
G36*
X52356102Y-48428883D02*
G01*
X52365132Y-48433580D01*
X52526789Y-48546777D01*
X52658071Y-48696030D01*
X52744787Y-48864864D01*
X52749898Y-48880385D01*
X52781523Y-49001488D01*
X52783465Y-49071435D01*
X52754548Y-49090725D01*
X52693594Y-49059862D01*
X52599424Y-48979348D01*
X52574300Y-48955185D01*
X52432121Y-48803928D01*
X52339143Y-48674159D01*
X52291376Y-48559498D01*
X52282679Y-48488910D01*
X52285436Y-48423160D01*
X52304581Y-48406728D01*
X52356102Y-48428883D01*
G37*
G36*
X50562484Y-48355427D02*
G01*
X50591680Y-48364152D01*
X50670950Y-48394290D01*
X50569033Y-48499443D01*
X50449619Y-48598858D01*
X50303800Y-48685372D01*
X50151824Y-48749243D01*
X50013940Y-48780726D01*
X49980963Y-48782411D01*
X49902169Y-48777785D01*
X49856093Y-48766125D01*
X49851112Y-48759893D01*
X49878419Y-48704986D01*
X49952202Y-48635066D01*
X50063016Y-48556995D01*
X50201417Y-48477636D01*
X50315770Y-48422239D01*
X50428198Y-48375348D01*
X50504880Y-48354247D01*
X50562484Y-48355427D01*
G37*
G36*
X52653217Y-48344643D02*
G01*
X52754062Y-48377749D01*
X52873401Y-48424393D01*
X52993793Y-48477595D01*
X53097794Y-48530374D01*
X53128176Y-48548119D01*
X53237052Y-48631200D01*
X53291190Y-48705992D01*
X53295885Y-48765572D01*
X53256432Y-48803018D01*
X53178124Y-48811407D01*
X53066256Y-48783817D01*
X52978650Y-48743630D01*
X52866486Y-48675728D01*
X52761622Y-48598378D01*
X52671170Y-48519077D01*
X52602242Y-48445323D01*
X52561948Y-48384616D01*
X52557401Y-48344452D01*
X52588310Y-48332056D01*
X52653217Y-48344643D01*
G37*
G36*
X50940842Y-48399856D02*
G01*
X50950828Y-48435243D01*
X50943431Y-48474669D01*
X50904084Y-48576360D01*
X50831755Y-48703928D01*
X50736658Y-48841535D01*
X50629005Y-48973346D01*
X50604568Y-49000082D01*
X50521851Y-49085133D01*
X50467992Y-49129384D01*
X50433516Y-49138254D01*
X50408949Y-49117163D01*
X50406518Y-49113364D01*
X50402646Y-49064734D01*
X50417705Y-48979888D01*
X50446802Y-48877726D01*
X50485040Y-48777149D01*
X50503822Y-48737642D01*
X50561690Y-48651549D01*
X50643371Y-48561100D01*
X50734409Y-48479168D01*
X50820350Y-48418627D01*
X50886736Y-48392351D01*
X50891816Y-48392104D01*
X50940842Y-48399856D01*
G37*
G36*
X51084092Y-46866908D02*
G01*
X51102401Y-46893968D01*
X51109887Y-46955625D01*
X51110986Y-47048546D01*
X51096674Y-47228428D01*
X51050214Y-47371862D01*
X50964189Y-47490019D01*
X50831180Y-47594072D01*
X50700016Y-47667616D01*
X50612673Y-47710628D01*
X50563321Y-47725739D01*
X50536068Y-47711547D01*
X50515022Y-47666650D01*
X50508979Y-47650756D01*
X50491046Y-47541713D01*
X50500735Y-47405749D01*
X50533235Y-47266476D01*
X50583733Y-47147508D01*
X50622476Y-47093766D01*
X50705341Y-47023198D01*
X50811917Y-46954387D01*
X50922352Y-46898130D01*
X51016793Y-46865226D01*
X51050600Y-46860898D01*
X51084092Y-46866908D01*
G37*
G36*
X52246240Y-46878137D02*
G01*
X52332281Y-46922597D01*
X52431248Y-46983389D01*
X52526403Y-47049627D01*
X52601006Y-47110423D01*
X52636791Y-47151584D01*
X52652749Y-47207084D01*
X52668736Y-47303092D01*
X52681598Y-47420152D01*
X52682890Y-47436080D01*
X52688868Y-47574794D01*
X52678853Y-47662087D01*
X52649741Y-47705185D01*
X52598430Y-47711314D01*
X52567792Y-47704092D01*
X52473990Y-47666295D01*
X52367262Y-47609609D01*
X52271633Y-47547922D01*
X52215804Y-47500605D01*
X52153196Y-47401582D01*
X52106581Y-47273274D01*
X52084406Y-47143934D01*
X52087377Y-47071063D01*
X52109641Y-46959145D01*
X52131807Y-46894906D01*
X52159760Y-46866275D01*
X52189865Y-46860898D01*
X52246240Y-46878137D01*
G37*
G36*
X49247390Y-40759702D02*
G01*
X49303062Y-40823768D01*
X49376416Y-40918057D01*
X49460173Y-41032349D01*
X49547055Y-41156426D01*
X49629784Y-41280070D01*
X49701080Y-41393062D01*
X49753665Y-41485184D01*
X49762021Y-41501678D01*
X49814206Y-41623779D01*
X49857161Y-41751848D01*
X49876410Y-41831938D01*
X49887900Y-41942319D01*
X49888464Y-42061827D01*
X49879577Y-42174341D01*
X49862714Y-42263737D01*
X49839351Y-42313894D01*
X49831857Y-42318707D01*
X49798253Y-42302021D01*
X49743277Y-42247523D01*
X49681844Y-42170965D01*
X49496867Y-41900492D01*
X49353645Y-41652830D01*
X49253984Y-41431712D01*
X49199691Y-41240866D01*
X49190004Y-41155220D01*
X49186102Y-40985370D01*
X49189301Y-40854387D01*
X49199169Y-40769075D01*
X49215273Y-40736234D01*
X49216679Y-40736075D01*
X49247390Y-40759702D01*
G37*
G36*
X54009253Y-40809550D02*
G01*
X54022112Y-40889582D01*
X54023938Y-40956717D01*
X54002394Y-41172497D01*
X53941338Y-41407733D01*
X53846132Y-41641985D01*
X53841831Y-41650760D01*
X53794321Y-41736422D01*
X53725965Y-41846240D01*
X53644342Y-41969500D01*
X53557037Y-42095490D01*
X53471629Y-42213495D01*
X53395701Y-42312801D01*
X53336836Y-42382696D01*
X53302830Y-42412395D01*
X53280718Y-42395226D01*
X53274324Y-42352348D01*
X53278389Y-42293917D01*
X53288577Y-42192100D01*
X53303188Y-42063046D01*
X53314898Y-41967045D01*
X53336914Y-41813962D01*
X53363961Y-41687583D01*
X53402052Y-41573555D01*
X53457200Y-41457523D01*
X53535421Y-41325137D01*
X53642727Y-41162041D01*
X53667504Y-41125509D01*
X53782276Y-40962370D01*
X53871008Y-40850544D01*
X53936530Y-40788692D01*
X53981668Y-40775474D01*
X54009253Y-40809550D01*
G37*
G36*
X52272487Y-49015961D02*
G01*
X52334129Y-49079516D01*
X52413295Y-49173347D01*
X52502172Y-49287556D01*
X52592947Y-49412247D01*
X52677808Y-49537525D01*
X52722345Y-49608378D01*
X52821094Y-49796850D01*
X52871433Y-49965800D01*
X52874208Y-50130053D01*
X52830263Y-50304434D01*
X52770002Y-50444927D01*
X52685024Y-50602788D01*
X52599095Y-50731204D01*
X52517573Y-50824697D01*
X52445817Y-50877789D01*
X52389185Y-50885003D01*
X52362435Y-50861548D01*
X52350102Y-50822850D01*
X52328851Y-50738087D01*
X52301444Y-50620093D01*
X52270645Y-50481704D01*
X52239216Y-50335754D01*
X52209922Y-50195077D01*
X52185524Y-50072509D01*
X52168787Y-49980885D01*
X52162474Y-49933038D01*
X52162472Y-49932747D01*
X52176077Y-49875738D01*
X52210833Y-49790563D01*
X52237532Y-49736798D01*
X52297940Y-49577475D01*
X52307355Y-49413955D01*
X52266140Y-49233111D01*
X52252559Y-49195558D01*
X52214040Y-49090865D01*
X52197096Y-49030049D01*
X52200777Y-49001324D01*
X52224131Y-48992907D01*
X52236182Y-48992576D01*
X52272487Y-49015961D01*
G37*
G36*
X51014542Y-48980608D02*
G01*
X50991508Y-49078798D01*
X50952691Y-49196702D01*
X50906050Y-49334569D01*
X50881307Y-49433999D01*
X50878309Y-49512405D01*
X50896898Y-49587201D01*
X50936920Y-49675801D01*
X50948207Y-49698132D01*
X50991943Y-49795795D01*
X51012575Y-49883923D01*
X51015388Y-49991067D01*
X51012659Y-50046447D01*
X51003794Y-50152547D01*
X50992451Y-50235376D01*
X50981862Y-50274980D01*
X50967267Y-50323980D01*
X50957356Y-50401605D01*
X50957006Y-50407043D01*
X50947121Y-50485352D01*
X50931440Y-50537041D01*
X50930329Y-50538794D01*
X50909342Y-50588027D01*
X50889574Y-50658889D01*
X50859909Y-50766779D01*
X50825911Y-50854272D01*
X50794078Y-50906189D01*
X50780294Y-50914090D01*
X50749430Y-50893280D01*
X50692554Y-50839015D01*
X50629626Y-50771477D01*
X50498797Y-50596902D01*
X50398638Y-50407278D01*
X50336380Y-50218870D01*
X50318665Y-50072231D01*
X50324849Y-49982600D01*
X50346244Y-49891081D01*
X50387034Y-49789135D01*
X50451405Y-49668224D01*
X50543544Y-49519812D01*
X50667636Y-49335359D01*
X50709709Y-49274609D01*
X50827511Y-49110881D01*
X50916645Y-48999697D01*
X50977361Y-48940977D01*
X51009910Y-48934641D01*
X51014542Y-48980608D01*
G37*
G36*
X57737640Y-42220883D02*
G01*
X57782493Y-42280535D01*
X57828481Y-42398718D01*
X57875246Y-42574944D01*
X57878317Y-42588456D01*
X57914595Y-42794254D01*
X57925588Y-42971468D01*
X57910878Y-43109254D01*
X57899812Y-43145551D01*
X57885700Y-43172588D01*
X57861657Y-43196334D01*
X57821903Y-43218105D01*
X57760663Y-43239217D01*
X57672158Y-43260986D01*
X57550610Y-43284726D01*
X57390241Y-43311755D01*
X57185274Y-43343387D01*
X56929930Y-43380939D01*
X56756090Y-43406005D01*
X56629456Y-43423983D01*
X56511591Y-43440373D01*
X56427470Y-43451704D01*
X56425829Y-43451917D01*
X56341093Y-43463395D01*
X56223712Y-43479939D01*
X56110581Y-43496292D01*
X55976410Y-43515241D01*
X55892022Y-43524545D01*
X55847931Y-43524196D01*
X55834652Y-43514185D01*
X55841732Y-43496043D01*
X55872553Y-43466414D01*
X55942621Y-43415369D01*
X56054418Y-43341318D01*
X56210421Y-43242670D01*
X56413110Y-43117834D01*
X56664964Y-42965218D01*
X56726066Y-42928448D01*
X56999768Y-42761609D01*
X57222496Y-42620649D01*
X57396631Y-42503903D01*
X57524552Y-42409700D01*
X57608641Y-42336373D01*
X57651278Y-42282253D01*
X57652770Y-42279145D01*
X57694280Y-42220257D01*
X57737640Y-42220883D01*
G37*
G36*
X55880697Y-40330918D02*
G01*
X55888850Y-40337205D01*
X55908334Y-40380097D01*
X55931045Y-40464113D01*
X55951648Y-40568742D01*
X55969369Y-40798563D01*
X55940280Y-41009013D01*
X55861339Y-41207759D01*
X55729502Y-41402466D01*
X55542048Y-41600498D01*
X55405036Y-41724431D01*
X55282006Y-41823202D01*
X55161865Y-41901770D01*
X55033520Y-41965094D01*
X54885877Y-42018136D01*
X54707842Y-42065855D01*
X54488323Y-42113211D01*
X54324175Y-42145008D01*
X54175383Y-42173782D01*
X54037679Y-42201646D01*
X53928007Y-42225099D01*
X53870337Y-42238728D01*
X53773206Y-42261308D01*
X53717074Y-42264248D01*
X53686115Y-42247317D01*
X53677850Y-42235937D01*
X53672174Y-42213256D01*
X53681950Y-42179323D01*
X53711622Y-42127443D01*
X53765636Y-42050920D01*
X53848436Y-41943059D01*
X53964469Y-41797164D01*
X53991467Y-41763563D01*
X54141999Y-41585739D01*
X54273174Y-41452845D01*
X54394076Y-41356924D01*
X54513789Y-41290021D01*
X54549352Y-41275002D01*
X54744335Y-41190903D01*
X54913170Y-41100025D01*
X55073979Y-40990738D01*
X55244880Y-40851412D01*
X55336671Y-40769676D01*
X55501838Y-40619982D01*
X55628497Y-40506622D01*
X55722264Y-40425198D01*
X55788754Y-40371313D01*
X55833579Y-40340569D01*
X55862356Y-40328570D01*
X55880697Y-40330918D01*
G37*
G36*
X51233296Y-50096895D02*
G01*
X51299070Y-50159204D01*
X51374524Y-50248214D01*
X51448634Y-50351788D01*
X51466447Y-50379806D01*
X51518194Y-50451499D01*
X51565684Y-50498314D01*
X51576677Y-50504488D01*
X51622432Y-50490609D01*
X51693417Y-50425673D01*
X51787425Y-50312038D01*
X51890349Y-50169415D01*
X51955920Y-50096334D01*
X52010333Y-50082105D01*
X52052242Y-50126341D01*
X52079543Y-50223940D01*
X52096710Y-50325844D01*
X52119211Y-50456195D01*
X52139002Y-50568818D01*
X52173391Y-50899343D01*
X52156916Y-51210830D01*
X52091320Y-51492161D01*
X52042079Y-51624679D01*
X51979617Y-51773139D01*
X51908982Y-51927639D01*
X51835226Y-52078276D01*
X51763399Y-52215148D01*
X51698549Y-52328353D01*
X51645728Y-52407988D01*
X51609986Y-52444150D01*
X51605236Y-52445295D01*
X51572619Y-52417775D01*
X51518911Y-52336615D01*
X51445347Y-52203919D01*
X51353161Y-52021791D01*
X51336392Y-51987435D01*
X51227924Y-51758539D01*
X51146303Y-51570004D01*
X51088444Y-51410134D01*
X51051261Y-51267234D01*
X51031669Y-51129610D01*
X51026582Y-50985565D01*
X51032230Y-50834510D01*
X51046863Y-50660009D01*
X51068332Y-50491075D01*
X51094536Y-50337959D01*
X51123372Y-50210916D01*
X51152740Y-50120197D01*
X51180537Y-50076055D01*
X51188225Y-50073428D01*
X51233296Y-50096895D01*
G37*
G36*
X57626637Y-43512612D02*
G01*
X57657003Y-43528032D01*
X57667211Y-43535360D01*
X57690306Y-43557876D01*
X57690642Y-43583200D01*
X57661738Y-43620361D01*
X57597108Y-43678392D01*
X57517092Y-43744470D01*
X57341385Y-43879345D01*
X57171438Y-43989379D01*
X56996602Y-44078490D01*
X56806229Y-44150600D01*
X56589670Y-44209626D01*
X56336278Y-44259487D01*
X56035404Y-44304103D01*
X55975475Y-44311868D01*
X55852243Y-44324599D01*
X55699634Y-44335839D01*
X55527427Y-44345363D01*
X55345405Y-44352946D01*
X55163348Y-44358363D01*
X54991039Y-44361388D01*
X54838259Y-44361797D01*
X54714788Y-44359363D01*
X54630409Y-44353863D01*
X54594903Y-44345071D01*
X54594387Y-44343656D01*
X54620012Y-44301804D01*
X54689722Y-44241764D01*
X54792777Y-44169833D01*
X54918432Y-44092304D01*
X55055944Y-44015474D01*
X55194571Y-43945637D01*
X55323569Y-43889089D01*
X55432196Y-43852125D01*
X55434012Y-43851649D01*
X55635927Y-43804282D01*
X55877311Y-43755967D01*
X56137749Y-43710211D01*
X56396829Y-43670521D01*
X56634135Y-43640405D01*
X56707728Y-43632826D01*
X56814570Y-43618377D01*
X56903825Y-43598863D01*
X56943208Y-43584588D01*
X57019388Y-43566335D01*
X57070756Y-43570481D01*
X57140919Y-43574815D01*
X57239037Y-43565860D01*
X57285631Y-43557694D01*
X57428286Y-43528977D01*
X57524514Y-43512368D01*
X57586553Y-43507152D01*
X57626637Y-43512612D01*
G37*
G36*
X47370236Y-40305642D02*
G01*
X47436221Y-40360455D01*
X47527964Y-40442730D01*
X47637044Y-40545039D01*
X47687306Y-40593463D01*
X47884869Y-40782426D01*
X48046848Y-40930427D01*
X48177899Y-41041074D01*
X48282678Y-41117972D01*
X48365843Y-41164729D01*
X48432051Y-41184951D01*
X48452977Y-41186430D01*
X48559241Y-41210286D01*
X48690351Y-41278046D01*
X48837333Y-41383996D01*
X48991215Y-41522423D01*
X49009547Y-41540773D01*
X49105358Y-41643079D01*
X49207933Y-41761419D01*
X49309506Y-41885722D01*
X49402307Y-42005917D01*
X49478568Y-42111934D01*
X49530520Y-42193701D01*
X49550396Y-42241147D01*
X49550416Y-42241966D01*
X49524087Y-42257952D01*
X49458199Y-42264139D01*
X49372393Y-42260754D01*
X49286314Y-42248023D01*
X49250179Y-42238504D01*
X49182654Y-42221106D01*
X49078754Y-42198897D01*
X48964955Y-42177410D01*
X48793050Y-42143781D01*
X48612697Y-42102872D01*
X48438069Y-42058443D01*
X48283335Y-42014257D01*
X48162667Y-41974075D01*
X48102098Y-41948343D01*
X47915114Y-41831554D01*
X47722254Y-41676325D01*
X47540627Y-41498824D01*
X47387342Y-41315218D01*
X47311703Y-41201442D01*
X47265766Y-41115695D01*
X47239139Y-41038679D01*
X47226767Y-40947997D01*
X47223592Y-40821255D01*
X47223584Y-40811134D01*
X47229692Y-40666885D01*
X47246203Y-40529940D01*
X47270396Y-40412745D01*
X47299552Y-40327744D01*
X47330949Y-40287383D01*
X47338430Y-40285721D01*
X47370236Y-40305642D01*
G37*
G36*
X45514998Y-42198966D02*
G01*
X45571919Y-42253667D01*
X45594963Y-42280892D01*
X45661331Y-42350363D01*
X45757705Y-42435102D01*
X45863892Y-42517422D01*
X45869933Y-42521755D01*
X45969501Y-42590224D01*
X46091741Y-42670411D01*
X46226428Y-42756065D01*
X46363333Y-42840937D01*
X46492231Y-42918777D01*
X46602895Y-42983336D01*
X46685097Y-43028365D01*
X46728610Y-43047613D01*
X46730918Y-43047896D01*
X46757734Y-43070509D01*
X46758217Y-43075718D01*
X46782216Y-43107619D01*
X46796460Y-43113247D01*
X46847369Y-43136396D01*
X46929097Y-43184299D01*
X47029500Y-43248593D01*
X47136433Y-43320917D01*
X47237752Y-43392908D01*
X47321311Y-43456203D01*
X47374966Y-43502438D01*
X47388278Y-43520768D01*
X47364418Y-43548397D01*
X47313670Y-43559824D01*
X47268444Y-43548286D01*
X47266117Y-43546248D01*
X47231566Y-43536068D01*
X47157154Y-43523376D01*
X47103489Y-43516297D01*
X46984931Y-43500581D01*
X46847212Y-43480124D01*
X46773229Y-43468200D01*
X46553648Y-43431803D01*
X46384012Y-43404745D01*
X46255170Y-43385710D01*
X46157972Y-43373384D01*
X46083267Y-43366451D01*
X46052662Y-43364650D01*
X45950061Y-43351641D01*
X45857368Y-43327229D01*
X45848048Y-43323554D01*
X45763768Y-43297124D01*
X45697929Y-43287629D01*
X45585366Y-43273256D01*
X45471459Y-43237190D01*
X45376819Y-43187821D01*
X45322796Y-43134926D01*
X45302080Y-43057833D01*
X45294487Y-42938697D01*
X45298891Y-42793807D01*
X45314172Y-42639454D01*
X45339205Y-42491928D01*
X45372867Y-42367518D01*
X45376369Y-42357776D01*
X45408942Y-42268307D01*
X45431010Y-42205314D01*
X45437177Y-42185140D01*
X45461185Y-42177746D01*
X45474707Y-42177211D01*
X45514998Y-42198966D01*
G37*
G36*
X45808105Y-43526191D02*
G01*
X45930118Y-43549904D01*
X46055515Y-43567214D01*
X46097697Y-43570894D01*
X46199696Y-43580564D01*
X46288636Y-43594054D01*
X46307863Y-43598260D01*
X46385397Y-43613212D01*
X46487039Y-43627660D01*
X46518028Y-43631181D01*
X46672820Y-43649985D01*
X46863466Y-43676863D01*
X47070490Y-43708719D01*
X47274416Y-43742454D01*
X47455768Y-43774970D01*
X47583867Y-43800695D01*
X47689627Y-43820592D01*
X47784740Y-43833242D01*
X47816550Y-43835313D01*
X47876532Y-43842916D01*
X47899116Y-43857106D01*
X47924285Y-43878876D01*
X47989656Y-43915186D01*
X48063941Y-43950374D01*
X48151318Y-43992650D01*
X48211196Y-44028163D01*
X48229071Y-44046182D01*
X48253794Y-44066194D01*
X48274411Y-44068699D01*
X48314823Y-44080945D01*
X48320121Y-44091217D01*
X48343130Y-44119124D01*
X48402221Y-44168852D01*
X48469565Y-44218818D01*
X48568424Y-44296115D01*
X48612492Y-44350136D01*
X48601958Y-44381745D01*
X48537010Y-44391809D01*
X48507094Y-44390765D01*
X48438288Y-44387263D01*
X48322902Y-44382107D01*
X48174364Y-44375869D01*
X48006099Y-44369118D01*
X47914127Y-44365552D01*
X47731749Y-44357569D01*
X47553261Y-44347987D01*
X47395020Y-44337803D01*
X47273385Y-44328017D01*
X47236316Y-44324169D01*
X47089241Y-44314874D01*
X46993440Y-44327707D01*
X46973609Y-44336115D01*
X46924431Y-44355895D01*
X46908753Y-44338345D01*
X46908335Y-44329098D01*
X46878538Y-44296989D01*
X46790012Y-44266894D01*
X46720688Y-44252122D01*
X46615018Y-44232226D01*
X46529345Y-44215786D01*
X46488004Y-44207548D01*
X46445760Y-44195247D01*
X46380588Y-44170008D01*
X46282213Y-44127569D01*
X46140359Y-44063671D01*
X46133456Y-44060527D01*
X46008028Y-43995569D01*
X45876894Y-43914619D01*
X45750537Y-43825795D01*
X45639445Y-43737213D01*
X45554101Y-43656990D01*
X45504991Y-43593244D01*
X45497224Y-43567992D01*
X45523956Y-43528986D01*
X45595875Y-43508618D01*
X45700572Y-43508557D01*
X45808105Y-43526191D01*
G37*
G36*
X57460604Y-45346500D02*
G01*
X57482265Y-45373546D01*
X57488579Y-45434239D01*
X57487760Y-45499345D01*
X57481502Y-45567600D01*
X57464404Y-45641586D01*
X57433928Y-45725279D01*
X57387534Y-45822656D01*
X57322682Y-45937694D01*
X57236833Y-46074369D01*
X57127447Y-46236657D01*
X56991983Y-46428536D01*
X56827903Y-46653982D01*
X56632667Y-46916971D01*
X56403734Y-47221479D01*
X56301787Y-47356288D01*
X56085940Y-47645358D01*
X55907986Y-47892759D01*
X55765891Y-48101671D01*
X55657620Y-48275277D01*
X55581139Y-48416757D01*
X55534416Y-48529292D01*
X55521286Y-48577046D01*
X55467510Y-48715541D01*
X55372923Y-48855558D01*
X55253109Y-48978006D01*
X55124037Y-49063613D01*
X55003462Y-49138847D01*
X54893709Y-49239252D01*
X54806694Y-49350577D01*
X54754336Y-49458572D01*
X54744506Y-49517429D01*
X54771826Y-49606984D01*
X54845035Y-49694896D01*
X54950999Y-49768455D01*
X55042849Y-49806195D01*
X55141642Y-49846408D01*
X55185304Y-49897278D01*
X55178753Y-49969198D01*
X55149813Y-50032312D01*
X55095717Y-50105580D01*
X55033691Y-50130212D01*
X54956931Y-50105346D01*
X54858635Y-50030120D01*
X54816134Y-49990025D01*
X54696196Y-49879053D01*
X54588400Y-49791160D01*
X54502236Y-49733480D01*
X54447793Y-49713144D01*
X54405251Y-49735544D01*
X54333838Y-49796996D01*
X54241189Y-49888875D01*
X54134941Y-50002558D01*
X54022729Y-50129420D01*
X53912189Y-50260838D01*
X53810955Y-50388187D01*
X53726665Y-50502843D01*
X53668726Y-50593052D01*
X53627579Y-50681882D01*
X53605054Y-50762798D01*
X53603607Y-50780699D01*
X53577553Y-50867612D01*
X53510838Y-50932974D01*
X53420631Y-50971394D01*
X53324104Y-50977482D01*
X53238427Y-50945848D01*
X53199991Y-50907409D01*
X53156929Y-50798779D01*
X53169081Y-50687289D01*
X53226947Y-50597477D01*
X53288830Y-50547284D01*
X53340597Y-50523986D01*
X53344029Y-50523782D01*
X53390645Y-50499979D01*
X53462250Y-50434796D01*
X53551690Y-50337574D01*
X53651812Y-50217651D01*
X53755463Y-50084369D01*
X53855487Y-49947067D01*
X53944731Y-49815086D01*
X54016042Y-49697765D01*
X54062266Y-49604444D01*
X54073239Y-49571732D01*
X54070962Y-49463658D01*
X54011905Y-49359214D01*
X53899331Y-49262959D01*
X53819449Y-49217008D01*
X53675955Y-49138420D01*
X53585913Y-49072441D01*
X53545682Y-49013084D01*
X53551619Y-48954362D01*
X53600083Y-48890286D01*
X53613048Y-48877715D01*
X53675949Y-48835786D01*
X53743269Y-48814203D01*
X53795580Y-48816482D01*
X53813773Y-48841414D01*
X53836016Y-48891256D01*
X53892802Y-48960340D01*
X53969219Y-49033855D01*
X54050350Y-49096989D01*
X54100918Y-49126582D01*
X54158282Y-49149306D01*
X54207357Y-49152969D01*
X54254919Y-49131586D01*
X54307746Y-49079174D01*
X54372615Y-48989748D01*
X54456302Y-48857324D01*
X54514244Y-48761604D01*
X54502490Y-48726675D01*
X54447739Y-48669379D01*
X54359463Y-48596558D01*
X54247130Y-48515055D01*
X54120208Y-48431712D01*
X53988168Y-48353371D01*
X53860477Y-48286873D01*
X53851175Y-48282477D01*
X53737996Y-48229272D01*
X53641165Y-48183475D01*
X53577142Y-48152881D01*
X53566485Y-48147679D01*
X53495413Y-48127311D01*
X53437394Y-48121891D01*
X53356567Y-48108484D01*
X53272594Y-48075270D01*
X53206574Y-48032763D01*
X53179719Y-47993519D01*
X53180248Y-47929071D01*
X53181590Y-47916816D01*
X53169616Y-47861312D01*
X53132914Y-47796085D01*
X53087656Y-47745420D01*
X53058234Y-47731584D01*
X53017924Y-47711495D01*
X52958349Y-47661362D01*
X52938832Y-47641786D01*
X52874778Y-47552991D01*
X52853381Y-47452896D01*
X52853016Y-47433392D01*
X52845760Y-47353135D01*
X52827737Y-47301356D01*
X52821771Y-47295486D01*
X52803332Y-47254777D01*
X52807521Y-47222631D01*
X52800275Y-47175702D01*
X52752248Y-47105620D01*
X52659480Y-47006677D01*
X52653668Y-47000941D01*
X52567055Y-46912839D01*
X52514753Y-46847306D01*
X52486814Y-46786332D01*
X52473291Y-46711907D01*
X52469047Y-46666706D01*
X52465807Y-46576164D01*
X52471820Y-46515738D01*
X52481509Y-46500375D01*
X52518192Y-46513155D01*
X52594789Y-46547629D01*
X52698006Y-46597665D01*
X52757934Y-46627874D01*
X52875287Y-46686862D01*
X52951229Y-46720790D01*
X52997489Y-46732562D01*
X53025794Y-46725080D01*
X53047874Y-46701245D01*
X53048885Y-46699867D01*
X53084541Y-46624717D01*
X53116996Y-46511173D01*
X53141404Y-46380864D01*
X53152922Y-46255422D01*
X53153253Y-46233928D01*
X53157700Y-46155588D01*
X53168690Y-46106344D01*
X53171635Y-46101932D01*
X53205098Y-46107754D01*
X53284391Y-46139887D01*
X53403021Y-46195189D01*
X53554490Y-46270517D01*
X53732304Y-46362728D01*
X53929965Y-46468679D01*
X53932162Y-46469875D01*
X54103836Y-46569406D01*
X54256524Y-46669552D01*
X54381096Y-46763502D01*
X54468424Y-46844444D01*
X54506881Y-46898699D01*
X54522719Y-46957849D01*
X54525982Y-47039712D01*
X54516546Y-47157860D01*
X54503603Y-47260112D01*
X54485987Y-47407653D01*
X54481077Y-47508438D01*
X54488743Y-47574368D01*
X54499848Y-47603139D01*
X54535191Y-47690823D01*
X54525509Y-47739579D01*
X54470103Y-47750982D01*
X54436763Y-47745818D01*
X54360764Y-47723891D01*
X54311591Y-47699236D01*
X54310664Y-47698397D01*
X54246851Y-47668532D01*
X54189778Y-47691821D01*
X54154487Y-47761946D01*
X54154025Y-47764188D01*
X54124184Y-47844266D01*
X54072087Y-47872874D01*
X53989764Y-47853111D01*
X53960426Y-47839438D01*
X53862797Y-47799459D01*
X53805705Y-47798976D01*
X53784217Y-47838267D01*
X53783749Y-47849339D01*
X53809761Y-47908322D01*
X53881045Y-47983460D01*
X53987471Y-48067745D01*
X54118909Y-48154172D01*
X54265232Y-48235732D01*
X54416308Y-48305420D01*
X54476885Y-48328794D01*
X54563506Y-48337840D01*
X54665974Y-48306151D01*
X54786785Y-48231718D01*
X54928435Y-48112529D01*
X55093420Y-47946574D01*
X55284238Y-47731841D01*
X55420037Y-47569149D01*
X55488173Y-47486626D01*
X55543886Y-47420398D01*
X55570998Y-47389374D01*
X55598718Y-47355744D01*
X55656551Y-47282929D01*
X55737969Y-47179316D01*
X55836444Y-47053292D01*
X55945448Y-46913245D01*
X56058453Y-46767561D01*
X56168932Y-46624628D01*
X56270355Y-46492832D01*
X56356196Y-46380561D01*
X56356276Y-46380456D01*
X56478726Y-46224377D01*
X56613946Y-46060161D01*
X56753773Y-45896961D01*
X56890047Y-45743928D01*
X57014606Y-45610213D01*
X57119288Y-45504968D01*
X57195932Y-45437345D01*
X57200252Y-45434097D01*
X57309764Y-45365945D01*
X57397193Y-45337315D01*
X57416610Y-45337182D01*
X57460604Y-45346500D01*
G37*
G36*
X45863923Y-45341971D02*
G01*
X45948306Y-45381010D01*
X46045407Y-45450116D01*
X46158572Y-45552597D01*
X46291145Y-45691757D01*
X46446471Y-45870905D01*
X46627895Y-46093346D01*
X46838763Y-46362386D01*
X46855300Y-46383812D01*
X47107634Y-46710583D01*
X47326856Y-46993272D01*
X47516162Y-47235623D01*
X47678748Y-47441381D01*
X47817809Y-47614292D01*
X47936541Y-47758100D01*
X48038140Y-47876549D01*
X48125800Y-47973385D01*
X48202719Y-48052354D01*
X48272091Y-48117198D01*
X48337111Y-48171665D01*
X48400977Y-48219498D01*
X48451237Y-48254072D01*
X48545954Y-48301944D01*
X48644878Y-48328244D01*
X48729750Y-48330348D01*
X48782312Y-48305630D01*
X48784813Y-48302033D01*
X48828395Y-48274065D01*
X48844637Y-48272009D01*
X48891784Y-48257134D01*
X48965639Y-48219555D01*
X49049193Y-48169840D01*
X49125435Y-48118556D01*
X49177357Y-48076271D01*
X49190132Y-48057356D01*
X49214124Y-48033933D01*
X49229934Y-48031820D01*
X49283397Y-48008293D01*
X49342547Y-47952377D01*
X49387620Y-47886066D01*
X49400298Y-47842237D01*
X49390392Y-47803250D01*
X49354531Y-47795984D01*
X49283499Y-47820975D01*
X49217930Y-47852814D01*
X49124875Y-47892058D01*
X49070015Y-47889914D01*
X49044738Y-47842609D01*
X49040014Y-47774847D01*
X49026357Y-47697457D01*
X48989829Y-47669768D01*
X48937094Y-47696460D01*
X48933430Y-47700023D01*
X48887768Y-47722212D01*
X48807952Y-47743334D01*
X48777307Y-47748896D01*
X48697677Y-47759045D01*
X48660722Y-47751033D01*
X48650175Y-47718169D01*
X48649707Y-47696390D01*
X48662834Y-47625743D01*
X48683581Y-47589624D01*
X48702411Y-47540952D01*
X48712526Y-47457151D01*
X48713322Y-47362585D01*
X48704192Y-47281624D01*
X48692112Y-47246950D01*
X48677910Y-47200026D01*
X48664041Y-47116691D01*
X48658329Y-47065846D01*
X48653253Y-46975828D01*
X48665965Y-46915682D01*
X48706460Y-46860273D01*
X48761541Y-46806263D01*
X48848041Y-46735388D01*
X48963546Y-46654518D01*
X49083503Y-46580810D01*
X49086982Y-46578851D01*
X49305257Y-46458206D01*
X49502338Y-46353017D01*
X49672266Y-46266229D01*
X49809079Y-46200790D01*
X49906819Y-46159644D01*
X49959526Y-46145738D01*
X49962523Y-46146036D01*
X49993282Y-46173865D01*
X50023536Y-46248844D01*
X50055507Y-46376809D01*
X50061719Y-46406418D01*
X50097817Y-46556813D01*
X50136358Y-46652972D01*
X50183180Y-46700609D01*
X50244123Y-46705438D01*
X50325027Y-46673175D01*
X50331030Y-46669977D01*
X50400894Y-46632297D01*
X50496473Y-46580697D01*
X50553173Y-46550067D01*
X50665080Y-46493688D01*
X50734514Y-46472144D01*
X50768956Y-46486949D01*
X50775888Y-46539618D01*
X50769352Y-46593837D01*
X50718630Y-46770835D01*
X50622409Y-46921327D01*
X50574554Y-46973039D01*
X50450825Y-47122949D01*
X50378922Y-47271164D01*
X50361166Y-47381679D01*
X50340609Y-47510268D01*
X50274783Y-47624862D01*
X50157050Y-47736495D01*
X50139751Y-47749741D01*
X50071456Y-47810134D01*
X50031918Y-47863001D01*
X50027584Y-47884847D01*
X50042909Y-47956967D01*
X50034030Y-48007167D01*
X49991720Y-48045525D01*
X49906752Y-48082120D01*
X49820629Y-48110907D01*
X49691394Y-48152826D01*
X49596613Y-48185646D01*
X49513433Y-48218201D01*
X49419003Y-48259327D01*
X49318199Y-48305162D01*
X49233260Y-48347593D01*
X49176005Y-48382997D01*
X49160575Y-48399610D01*
X49136186Y-48421070D01*
X49122579Y-48422872D01*
X49071710Y-48442410D01*
X48994148Y-48491446D01*
X48906159Y-48557519D01*
X48824005Y-48628167D01*
X48763952Y-48690932D01*
X48752808Y-48706162D01*
X48724400Y-48757531D01*
X48724007Y-48801125D01*
X48754066Y-48861661D01*
X48770842Y-48889177D01*
X48846064Y-48993568D01*
X48926928Y-49078291D01*
X49000449Y-49131110D01*
X49039707Y-49142560D01*
X49081914Y-49123514D01*
X49154337Y-49072969D01*
X49243496Y-49000615D01*
X49272387Y-48975308D01*
X49376821Y-48887254D01*
X49450372Y-48838713D01*
X49502023Y-48824293D01*
X49519298Y-48827099D01*
X49580639Y-48864963D01*
X49643629Y-48929413D01*
X49689203Y-48998304D01*
X49700534Y-49037592D01*
X49675332Y-49067103D01*
X49608386Y-49112752D01*
X49512690Y-49165986D01*
X49482863Y-49180914D01*
X49339863Y-49258331D01*
X49222485Y-49336485D01*
X49139996Y-49408199D01*
X49101662Y-49466293D01*
X49100061Y-49477473D01*
X49116628Y-49533253D01*
X49161676Y-49625595D01*
X49228230Y-49742602D01*
X49309313Y-49872376D01*
X49397949Y-50003020D01*
X49450393Y-50074934D01*
X49580219Y-50242808D01*
X49685197Y-50366775D01*
X49772202Y-50453912D01*
X49848110Y-50511297D01*
X49900777Y-50538599D01*
X49977521Y-50585619D01*
X50030457Y-50643270D01*
X50031126Y-50644496D01*
X50050559Y-50724706D01*
X50044597Y-50821408D01*
X50017080Y-50906014D01*
X49991486Y-50939360D01*
X49916111Y-50983469D01*
X49829316Y-51010476D01*
X49760881Y-51011136D01*
X49760581Y-51011040D01*
X49688621Y-50970189D01*
X49623297Y-50906024D01*
X49584279Y-50839642D01*
X49580439Y-50817821D01*
X49556399Y-50708082D01*
X49484720Y-50563949D01*
X49366061Y-50386703D01*
X49340757Y-50352696D01*
X49245107Y-50232063D01*
X49137571Y-50106381D01*
X49028229Y-49986405D01*
X48927161Y-49882893D01*
X48844447Y-49806604D01*
X48795717Y-49770993D01*
X48733708Y-49757352D01*
X48657626Y-49780015D01*
X48560870Y-49842569D01*
X48436841Y-49948599D01*
X48392784Y-49989939D01*
X48302765Y-50074235D01*
X48228229Y-50141232D01*
X48180352Y-50181010D01*
X48170225Y-50187487D01*
X48135603Y-50171658D01*
X48089835Y-50117197D01*
X48044087Y-50041221D01*
X48009524Y-49960848D01*
X48000488Y-49927278D01*
X47994217Y-49861861D01*
X48020751Y-49830676D01*
X48068287Y-49816568D01*
X48168953Y-49788034D01*
X48254730Y-49753948D01*
X48308965Y-49721654D01*
X48319446Y-49705815D01*
X48343357Y-49684039D01*
X48356976Y-49682121D01*
X48406312Y-49663068D01*
X48466667Y-49620219D01*
X48515026Y-49572151D01*
X48529612Y-49542784D01*
X48508197Y-49498613D01*
X48451094Y-49426909D01*
X48369014Y-49338255D01*
X48272670Y-49243232D01*
X48172774Y-49152423D01*
X48080038Y-49076410D01*
X48007637Y-49027150D01*
X47886346Y-48944669D01*
X47796928Y-48844372D01*
X47752035Y-48772708D01*
X47702183Y-48674351D01*
X47668455Y-48586310D01*
X47659080Y-48538567D01*
X47641763Y-48488161D01*
X47592190Y-48395573D01*
X47514104Y-48266679D01*
X47411247Y-48107357D01*
X47287363Y-47923486D01*
X47146193Y-47720941D01*
X47073465Y-47618917D01*
X46964923Y-47468371D01*
X46848609Y-47308144D01*
X46731194Y-47147309D01*
X46619347Y-46994941D01*
X46519736Y-46860113D01*
X46439032Y-46751899D01*
X46383904Y-46679373D01*
X46369635Y-46661312D01*
X46311548Y-46586119D01*
X46237182Y-46484961D01*
X46172756Y-46394160D01*
X46108165Y-46302525D01*
X46054240Y-46228205D01*
X46022650Y-46187280D01*
X46022638Y-46187267D01*
X45985343Y-46136404D01*
X45949250Y-46079122D01*
X45910165Y-46013430D01*
X45853782Y-45919711D01*
X45807050Y-45842545D01*
X45731344Y-45695832D01*
X45688231Y-45563575D01*
X45677993Y-45453771D01*
X45700912Y-45374415D01*
X45757273Y-45333503D01*
X45788913Y-45329692D01*
X45863923Y-45341971D01*
G37*
G36*
X52221395Y-39423525D02*
G01*
X53153026Y-39423525D01*
X53153253Y-39470919D01*
X53178232Y-39485365D01*
X53228312Y-39482431D01*
X53287343Y-39483026D01*
X53303371Y-39503629D01*
X53326716Y-39520511D01*
X53379112Y-39517640D01*
X53434098Y-39498158D01*
X53451297Y-39486054D01*
X53440904Y-39462120D01*
X53409752Y-39434709D01*
X53355496Y-39412563D01*
X53281220Y-39400693D01*
X53209042Y-39400064D01*
X53161075Y-39411638D01*
X53153026Y-39423525D01*
X52221395Y-39423525D01*
X52240141Y-39402670D01*
X52271268Y-39387302D01*
X52348537Y-39394828D01*
X52375334Y-39377957D01*
X52351746Y-39333865D01*
X52277861Y-39259730D01*
X52275308Y-39257411D01*
X52177877Y-39155012D01*
X52128721Y-39065680D01*
X52121125Y-39032234D01*
X52117780Y-38964502D01*
X52138728Y-38937847D01*
X52166034Y-38934657D01*
X52222641Y-38955041D01*
X52241686Y-38979692D01*
X52278359Y-39019575D01*
X52298768Y-39024728D01*
X52339212Y-39049643D01*
X52357139Y-39083239D01*
X52395707Y-39139158D01*
X52426715Y-39157325D01*
X52471792Y-39161888D01*
X52566557Y-39165227D01*
X52700657Y-39167192D01*
X52863743Y-39167633D01*
X53045465Y-39166397D01*
X53048170Y-39166367D01*
X53292093Y-39165471D01*
X53485952Y-39170107D01*
X53639602Y-39181906D01*
X53762900Y-39202497D01*
X53865702Y-39233513D01*
X53957863Y-39276583D01*
X54046650Y-39331579D01*
X54173128Y-39447996D01*
X54261390Y-39592807D01*
X54305681Y-39751448D01*
X54300248Y-39909355D01*
X54290151Y-39947955D01*
X54255704Y-40018236D01*
X54205722Y-40041440D01*
X54131511Y-40018305D01*
X54050807Y-39968286D01*
X53979158Y-39922030D01*
X53930737Y-39907856D01*
X53880469Y-39922172D01*
X53846533Y-39939033D01*
X53784396Y-39977894D01*
X53754261Y-40009956D01*
X53753725Y-40013024D01*
X53728290Y-40038873D01*
X53678666Y-40057861D01*
X53622477Y-40080521D01*
X53603607Y-40101961D01*
X53576038Y-40112972D01*
X53502951Y-40119468D01*
X53398781Y-40120348D01*
X53371871Y-40119638D01*
X53250735Y-40119203D01*
X53145785Y-40125081D01*
X53077609Y-40136029D01*
X53072705Y-40137689D01*
X53021603Y-40175310D01*
X52955096Y-40248037D01*
X52894416Y-40330292D01*
X52847039Y-40401116D01*
X52817218Y-40454282D01*
X52806229Y-40502630D01*
X52815351Y-40558998D01*
X52845860Y-40636224D01*
X52899036Y-40747147D01*
X52945264Y-40841158D01*
X53010004Y-40958696D01*
X53071164Y-41043299D01*
X53115723Y-41080961D01*
X53167385Y-41111814D01*
X53183276Y-41133502D01*
X53208481Y-41152127D01*
X53243324Y-41156406D01*
X53292751Y-41174884D01*
X53303546Y-41214991D01*
X53277259Y-41253737D01*
X53235796Y-41267928D01*
X53151302Y-41278844D01*
X53108217Y-41286296D01*
X53031484Y-41285515D01*
X52980617Y-41273094D01*
X52934301Y-41259703D01*
X52917962Y-41270413D01*
X52932320Y-41313403D01*
X52978098Y-41396849D01*
X52993944Y-41423981D01*
X53040898Y-41516743D01*
X53066081Y-41608414D01*
X53075703Y-41725165D01*
X53076509Y-41771891D01*
X53075802Y-41882570D01*
X53068884Y-41946800D01*
X53051891Y-41978131D01*
X53020957Y-41990117D01*
X53013952Y-41991217D01*
X52986644Y-41997912D01*
X52968784Y-42015637D01*
X52958774Y-42054780D01*
X52955015Y-42125729D01*
X52955909Y-42238874D01*
X52958516Y-42351500D01*
X52966896Y-42561393D01*
X52980032Y-42718517D01*
X52997637Y-42820678D01*
X53019427Y-42865685D01*
X53025822Y-42867754D01*
X53052975Y-42847896D01*
X53110942Y-42795087D01*
X53188723Y-42719477D01*
X53214529Y-42693611D01*
X53364147Y-42561799D01*
X53516055Y-42462484D01*
X53656203Y-42404445D01*
X53688851Y-42397222D01*
X53745236Y-42386732D01*
X53836454Y-42369078D01*
X53903844Y-42355796D01*
X54037048Y-42332832D01*
X54180686Y-42313100D01*
X54234104Y-42307326D01*
X54335823Y-42290824D01*
X54417738Y-42265508D01*
X54448244Y-42247979D01*
X54511458Y-42220158D01*
X54582154Y-42225084D01*
X54637201Y-42257008D01*
X54654435Y-42299228D01*
X54634049Y-42338265D01*
X54577527Y-42411050D01*
X54491816Y-42509510D01*
X54383867Y-42625568D01*
X54295473Y-42716304D01*
X54179454Y-42834626D01*
X54082097Y-42936710D01*
X54009701Y-43015714D01*
X53968570Y-43064796D01*
X53962458Y-43077919D01*
X53994715Y-43059024D01*
X54064213Y-43006536D01*
X54163308Y-42926748D01*
X54284357Y-42825955D01*
X54419715Y-42710451D01*
X54561739Y-42586530D01*
X54595477Y-42556670D01*
X54691812Y-42476993D01*
X54797528Y-42397607D01*
X54820655Y-42381523D01*
X54921404Y-42307206D01*
X55024559Y-42222603D01*
X55048419Y-42201381D01*
X55195976Y-42071602D01*
X55309889Y-41982728D01*
X55395871Y-41930311D01*
X55397520Y-41929520D01*
X55448978Y-41896441D01*
X55465073Y-41873113D01*
X55488508Y-41842387D01*
X55535859Y-41810379D01*
X55629704Y-41748858D01*
X55747355Y-41656250D01*
X55878517Y-41542432D01*
X56012895Y-41417275D01*
X56140194Y-41290654D01*
X56250118Y-41172444D01*
X56332372Y-41072517D01*
X56374274Y-41006288D01*
X56409196Y-40915451D01*
X56430564Y-40833339D01*
X56431593Y-40826146D01*
X56461278Y-40760878D01*
X56506789Y-40741703D01*
X56536690Y-40740749D01*
X56562904Y-40752985D01*
X56590726Y-40786759D01*
X56625452Y-40850414D01*
X56672378Y-40952298D01*
X56736799Y-41100755D01*
X56741355Y-41111371D01*
X56770085Y-41208533D01*
X56792126Y-41340476D01*
X56802572Y-41466210D01*
X56805021Y-41595516D01*
X56796977Y-41687413D01*
X56774593Y-41764172D01*
X56737790Y-41841004D01*
X56656255Y-41976403D01*
X56570796Y-42072676D01*
X56462798Y-42148918D01*
X56409271Y-42178005D01*
X56332523Y-42222105D01*
X56284228Y-42258752D01*
X56275711Y-42272001D01*
X56250525Y-42292572D01*
X56215664Y-42297305D01*
X56166877Y-42309878D01*
X56155617Y-42327328D01*
X56131299Y-42353965D01*
X56110581Y-42357352D01*
X56070627Y-42373564D01*
X56065546Y-42387376D01*
X56041690Y-42414998D01*
X56026388Y-42417399D01*
X55980152Y-42432576D01*
X55904760Y-42471395D01*
X55853752Y-42502049D01*
X55774685Y-42549429D01*
X55716593Y-42579189D01*
X55698730Y-42584614D01*
X55661099Y-42599892D01*
X55621666Y-42627565D01*
X55533581Y-42691338D01*
X55435579Y-42751342D01*
X55352826Y-42792481D01*
X55337472Y-42798047D01*
X55293122Y-42823347D01*
X55284931Y-42838846D01*
X55259043Y-42861268D01*
X55196386Y-42882413D01*
X55192832Y-42883211D01*
X55123096Y-42909856D01*
X55084567Y-42945564D01*
X55084537Y-42945644D01*
X55049493Y-42983684D01*
X55032351Y-42987848D01*
X54987254Y-43004522D01*
X54918218Y-43046195D01*
X54894051Y-43063330D01*
X54801246Y-43124287D01*
X54691545Y-43186396D01*
X54655534Y-43204554D01*
X54562481Y-43254628D01*
X54484411Y-43305357D01*
X54461126Y-43324226D01*
X54409959Y-43364674D01*
X54380850Y-43378156D01*
X54343308Y-43393319D01*
X54269152Y-43433306D01*
X54171881Y-43489859D01*
X54064994Y-43554723D01*
X53961993Y-43619642D01*
X53876376Y-43676359D01*
X53821643Y-43716618D01*
X53811181Y-43726551D01*
X53793500Y-43761640D01*
X53813631Y-43768471D01*
X53857359Y-43748765D01*
X53898872Y-43715922D01*
X53951360Y-43671514D01*
X54021103Y-43624876D01*
X54120901Y-43568147D01*
X54249116Y-43500878D01*
X54333136Y-43454784D01*
X54391923Y-43417062D01*
X54409242Y-43400941D01*
X54443801Y-43380097D01*
X54461783Y-43378156D01*
X54500156Y-43365012D01*
X54504316Y-43355093D01*
X54529632Y-43331932D01*
X54595358Y-43295197D01*
X54669446Y-43260748D01*
X54756985Y-43219875D01*
X54816855Y-43186021D01*
X54834576Y-43169319D01*
X54859633Y-43146468D01*
X54921665Y-43115301D01*
X54939659Y-43107943D01*
X55007542Y-43076928D01*
X55043174Y-43052102D01*
X55044742Y-43048323D01*
X55069990Y-43027270D01*
X55132436Y-42998478D01*
X55149825Y-42991936D01*
X55218126Y-42960455D01*
X55253531Y-42930886D01*
X55254907Y-42925858D01*
X55279254Y-42900936D01*
X55299943Y-42897777D01*
X55339870Y-42879870D01*
X55344978Y-42864542D01*
X55366740Y-42844261D01*
X55389052Y-42848219D01*
X55437177Y-42848199D01*
X55450523Y-42836983D01*
X55484920Y-42809793D01*
X55557164Y-42767041D01*
X55639132Y-42724286D01*
X55794148Y-42645635D01*
X55899609Y-42586914D01*
X55961305Y-42544754D01*
X55979624Y-42526141D01*
X56017900Y-42513764D01*
X56029019Y-42518463D01*
X56063857Y-42512650D01*
X56075834Y-42493942D01*
X56114186Y-42459787D01*
X56186065Y-42433364D01*
X56196476Y-42431214D01*
X56288432Y-42399998D01*
X56364498Y-42352102D01*
X56365079Y-42351563D01*
X56427287Y-42305188D01*
X56475160Y-42284751D01*
X56530657Y-42255133D01*
X56546692Y-42236014D01*
X56579019Y-42210076D01*
X56593444Y-42214722D01*
X56629059Y-42213238D01*
X56688780Y-42182200D01*
X56697288Y-42176323D01*
X56763215Y-42135782D01*
X56811056Y-42117277D01*
X56813266Y-42117163D01*
X56845012Y-42101119D01*
X56846505Y-42094645D01*
X56871423Y-42069711D01*
X56934231Y-42032106D01*
X56974105Y-42012198D01*
X57070726Y-41959445D01*
X57156618Y-41900898D01*
X57176114Y-41884597D01*
X57244513Y-41837390D01*
X57306341Y-41816949D01*
X57307848Y-41816926D01*
X57339398Y-41822683D01*
X57353388Y-41849290D01*
X57352839Y-41910753D01*
X57344741Y-41987853D01*
X57293431Y-42172038D01*
X57186780Y-42339388D01*
X57034362Y-42479792D01*
X56903275Y-42577982D01*
X56780878Y-42676398D01*
X56753710Y-42699026D01*
X56680505Y-42753573D01*
X56593218Y-42810311D01*
X56586052Y-42814580D01*
X56521787Y-42858840D01*
X56487588Y-42894755D01*
X56485877Y-42900743D01*
X56462031Y-42925770D01*
X56447469Y-42927801D01*
X56401741Y-42949973D01*
X56365782Y-42987848D01*
X56319123Y-43034288D01*
X56286653Y-43047896D01*
X56247339Y-43063624D01*
X56171444Y-43105838D01*
X56071918Y-43167083D01*
X56012794Y-43205520D01*
X55815028Y-43332218D01*
X55617362Y-43451094D01*
X55430489Y-43556257D01*
X55265099Y-43641819D01*
X55131882Y-43701889D01*
X55074318Y-43722504D01*
X54994887Y-43750078D01*
X54902096Y-43786715D01*
X54894624Y-43789876D01*
X54778657Y-43838303D01*
X54691804Y-43871231D01*
X54608428Y-43897827D01*
X54534340Y-43918699D01*
X54442960Y-43944476D01*
X54371546Y-43965943D01*
X54354198Y-43971692D01*
X54290655Y-43991077D01*
X54272948Y-43995326D01*
X54198283Y-44015182D01*
X54111002Y-44044020D01*
X54028228Y-44075324D01*
X53967086Y-44102580D01*
X53944701Y-44119274D01*
X53945159Y-44120023D01*
X53983832Y-44122171D01*
X54075476Y-44107822D01*
X54215577Y-44077831D01*
X54387705Y-44036071D01*
X54498694Y-44013077D01*
X54563479Y-44014224D01*
X54591369Y-44040757D01*
X54594387Y-44063737D01*
X54566438Y-44129574D01*
X54482901Y-44216462D01*
X54344246Y-44323925D01*
X54324175Y-44338008D01*
X54255631Y-44387877D01*
X54210642Y-44424685D01*
X54204080Y-44431650D01*
X54167766Y-44461211D01*
X54097725Y-44506579D01*
X54013537Y-44555915D01*
X53934780Y-44597379D01*
X53914266Y-44606899D01*
X53854768Y-44642545D01*
X53829626Y-44667810D01*
X53791712Y-44685737D01*
X53778318Y-44680827D01*
X53738256Y-44684771D01*
X53721736Y-44702376D01*
X53688140Y-44724638D01*
X53616206Y-44735032D01*
X53496176Y-44734795D01*
X53473110Y-44733907D01*
X53346980Y-44733067D01*
X53262235Y-44741983D01*
X53229758Y-44756903D01*
X53229401Y-44775120D01*
X53260346Y-44787650D01*
X53330802Y-44795740D01*
X53448978Y-44800636D01*
X53528548Y-44802276D01*
X53609939Y-44797955D01*
X53691634Y-44778185D01*
X53792669Y-44737137D01*
X53882547Y-44693892D01*
X53939019Y-44679020D01*
X53963038Y-44683657D01*
X54000262Y-44678772D01*
X54009768Y-44667810D01*
X54066419Y-44622283D01*
X54165826Y-44585223D01*
X54290753Y-44562587D01*
X54321641Y-44560024D01*
X54406016Y-44549650D01*
X54462189Y-44533533D01*
X54471759Y-44526512D01*
X54505295Y-44519887D01*
X54590834Y-44514016D01*
X54720335Y-44509135D01*
X54885756Y-44505477D01*
X55079055Y-44503279D01*
X55284459Y-44502762D01*
X55527168Y-44503551D01*
X55716305Y-44505292D01*
X55858343Y-44508359D01*
X55959756Y-44513123D01*
X56027015Y-44519958D01*
X56066594Y-44529237D01*
X56084965Y-44541333D01*
X56088330Y-44549078D01*
X56069682Y-44591573D01*
X56010365Y-44645753D01*
X55976213Y-44668754D01*
X55904782Y-44719634D01*
X55861417Y-44763553D01*
X55855380Y-44778088D01*
X55830064Y-44811668D01*
X55787827Y-44830272D01*
X55719770Y-44861686D01*
X55642766Y-44915346D01*
X55634038Y-44922739D01*
X55561847Y-44977478D01*
X55498161Y-45013182D01*
X55491425Y-45015609D01*
X55444860Y-45043429D01*
X55435049Y-45063275D01*
X55416795Y-45079848D01*
X55406871Y-45075632D01*
X55369929Y-45081476D01*
X55354330Y-45099449D01*
X55315776Y-45136026D01*
X55242269Y-45186593D01*
X55179848Y-45223315D01*
X55091266Y-45273553D01*
X55022228Y-45315360D01*
X54996093Y-45333278D01*
X54947509Y-45347485D01*
X54856170Y-45355142D01*
X54738998Y-45356371D01*
X54612914Y-45351293D01*
X54494839Y-45340029D01*
X54429257Y-45329212D01*
X54205234Y-45282138D01*
X54029871Y-45243841D01*
X53892839Y-45211867D01*
X53783811Y-45183762D01*
X53692459Y-45157071D01*
X53656795Y-45145666D01*
X53544428Y-45112145D01*
X53439028Y-45086099D01*
X53386583Y-45076539D01*
X53298795Y-45060639D01*
X53230892Y-45041514D01*
X53191091Y-45034003D01*
X53192409Y-45049968D01*
X53228660Y-45073371D01*
X53303755Y-45105419D01*
X53398473Y-45139456D01*
X53493594Y-45168828D01*
X53569896Y-45186879D01*
X53595620Y-45189582D01*
X53630879Y-45205279D01*
X53633631Y-45214602D01*
X53658350Y-45236105D01*
X53684041Y-45239621D01*
X53753123Y-45250141D01*
X53850180Y-45276339D01*
X53948024Y-45310173D01*
X54001013Y-45333378D01*
X54076678Y-45356220D01*
X54113602Y-45359716D01*
X54162643Y-45369972D01*
X54174056Y-45384312D01*
X54200401Y-45405361D01*
X54267929Y-45432669D01*
X54324175Y-45449787D01*
X54413658Y-45478044D01*
X54458545Y-45506910D01*
X54473309Y-45547782D01*
X54474036Y-45567803D01*
X54467323Y-45611917D01*
X54438988Y-45644310D01*
X54376209Y-45674356D01*
X54286388Y-45704988D01*
X54153365Y-45734261D01*
X53977333Y-45753930D01*
X53774597Y-45763744D01*
X53561463Y-45763455D01*
X53354236Y-45752815D01*
X53169220Y-45731573D01*
X53118960Y-45722804D01*
X52994113Y-45703081D01*
X52911225Y-45701844D01*
X52856253Y-45718267D01*
X52807213Y-45753982D01*
X52792969Y-45777747D01*
X52773372Y-45811005D01*
X52722343Y-45872034D01*
X52660843Y-45937379D01*
X52587960Y-46022943D01*
X52516283Y-46126460D01*
X52453346Y-46234147D01*
X52406683Y-46332220D01*
X52383830Y-46406898D01*
X52386659Y-46438963D01*
X52388145Y-46481938D01*
X52372439Y-46560524D01*
X52355182Y-46619479D01*
X52310674Y-46722117D01*
X52258224Y-46768800D01*
X52189937Y-46763619D01*
X52133407Y-46734434D01*
X52082387Y-46711540D01*
X52060488Y-46712686D01*
X52054625Y-46746786D01*
X52049734Y-46828384D01*
X52046353Y-46944933D01*
X52045042Y-47071833D01*
X52044676Y-47217155D01*
X52044297Y-47346635D01*
X52043956Y-47444703D01*
X52043733Y-47491394D01*
X52050910Y-47626778D01*
X52078972Y-47718560D01*
X52134421Y-47781437D01*
X52185841Y-47812571D01*
X52288620Y-47868094D01*
X52393357Y-47930555D01*
X52485948Y-47990826D01*
X52552291Y-48039775D01*
X52577800Y-48066331D01*
X52612312Y-48089763D01*
X52629769Y-48091867D01*
X52665294Y-48117189D01*
X52692001Y-48174354D01*
X52700298Y-48235165D01*
X52688975Y-48265901D01*
X52647915Y-48277558D01*
X52570103Y-48281185D01*
X52475337Y-48277988D01*
X52383414Y-48269173D01*
X52314133Y-48255942D01*
X52287571Y-48241476D01*
X52253286Y-48216847D01*
X52220018Y-48211962D01*
X52172605Y-48198901D01*
X52162472Y-48181938D01*
X52138262Y-48155056D01*
X52118929Y-48151915D01*
X52066101Y-48128872D01*
X52051376Y-48111262D01*
X52007610Y-48066924D01*
X51955165Y-48032659D01*
X51882965Y-47994709D01*
X51901600Y-48172996D01*
X51922522Y-48319408D01*
X51953598Y-48472598D01*
X51990080Y-48612892D01*
X52027222Y-48720616D01*
X52040584Y-48749036D01*
X52064399Y-48806597D01*
X52068040Y-48833736D01*
X52072841Y-48880289D01*
X52079713Y-48902506D01*
X52096525Y-48956739D01*
X52120508Y-49044503D01*
X52134144Y-49097659D01*
X52158901Y-49189506D01*
X52180499Y-49257816D01*
X52188860Y-49277801D01*
X52209844Y-49355515D01*
X52211826Y-49461686D01*
X52195991Y-49568221D01*
X52174014Y-49629784D01*
X52126146Y-49702381D01*
X52050362Y-49795298D01*
X51956708Y-49898518D01*
X51855229Y-50002026D01*
X51755971Y-50095807D01*
X51668980Y-50169846D01*
X51604301Y-50214126D01*
X51579773Y-50222241D01*
X51526116Y-50196135D01*
X51441788Y-50120063D01*
X51327864Y-49995032D01*
X51291787Y-49952554D01*
X51199774Y-49840531D01*
X51120873Y-49740096D01*
X51064097Y-49663003D01*
X51039504Y-49623599D01*
X51007867Y-49575407D01*
X50986962Y-49563026D01*
X50969360Y-49537163D01*
X50962371Y-49474246D01*
X50965780Y-49396283D01*
X50979368Y-49325283D01*
X50989563Y-49299911D01*
X51009425Y-49250673D01*
X51041273Y-49158167D01*
X51080302Y-49036781D01*
X51112271Y-48932529D01*
X51153675Y-48795672D01*
X51191194Y-48673484D01*
X51219995Y-48581601D01*
X51232886Y-48542222D01*
X51252707Y-48462748D01*
X51268633Y-48359272D01*
X51279346Y-48249093D01*
X51283526Y-48149506D01*
X51279856Y-48077811D01*
X51270250Y-48052077D01*
X51229891Y-48056208D01*
X51163469Y-48087586D01*
X51141962Y-48100929D01*
X51062049Y-48152572D01*
X50995080Y-48194533D01*
X50986637Y-48199630D01*
X50949641Y-48231871D01*
X50948138Y-48248612D01*
X50932604Y-48259843D01*
X50873896Y-48267827D01*
X50850383Y-48269061D01*
X50738460Y-48273855D01*
X50622670Y-48279788D01*
X50616750Y-48280126D01*
X50534752Y-48278496D01*
X50495818Y-48257514D01*
X50487023Y-48234869D01*
X50501919Y-48186807D01*
X50547783Y-48124080D01*
X50606531Y-48066656D01*
X50660079Y-48034503D01*
X50670052Y-48032769D01*
X50707287Y-48013525D01*
X50756671Y-47973270D01*
X50813956Y-47930235D01*
X50894674Y-47880641D01*
X50977072Y-47836665D01*
X51039396Y-47810482D01*
X51052336Y-47807782D01*
X51084598Y-47788856D01*
X51112383Y-47765320D01*
X51129161Y-47739460D01*
X51140759Y-47692663D01*
X51147753Y-47616369D01*
X51150722Y-47502016D01*
X51150242Y-47341042D01*
X51148675Y-47226897D01*
X51145171Y-47060387D01*
X51140565Y-46915805D01*
X51135312Y-46803417D01*
X51129864Y-46733492D01*
X51126112Y-46715239D01*
X51092193Y-46716914D01*
X51040487Y-46738716D01*
X50957379Y-46771602D01*
X50900284Y-46761831D01*
X50863386Y-46704192D01*
X50840869Y-46593470D01*
X50836722Y-46556039D01*
X50820913Y-46441394D01*
X50799475Y-46341937D01*
X50780065Y-46286192D01*
X50731625Y-46201149D01*
X50666264Y-46096677D01*
X50592446Y-45985062D01*
X50518635Y-45878592D01*
X50453294Y-45789551D01*
X50404888Y-45730229D01*
X50385015Y-45712711D01*
X50356210Y-45706170D01*
X50310338Y-45704844D01*
X50237933Y-45709460D01*
X50129528Y-45720744D01*
X49975657Y-45739420D01*
X49883474Y-45751146D01*
X49729878Y-45766297D01*
X49566167Y-45774820D01*
X49403807Y-45777030D01*
X49254262Y-45773242D01*
X49128998Y-45763773D01*
X49039479Y-45748936D01*
X48997173Y-45729049D01*
X48995950Y-45726716D01*
X48966147Y-45700627D01*
X48950775Y-45704473D01*
X48904808Y-45705238D01*
X48852987Y-45685065D01*
X48788301Y-45658775D01*
X48749558Y-45654447D01*
X48710192Y-45639409D01*
X48691455Y-45590683D01*
X48696851Y-45532135D01*
X48725509Y-45490566D01*
X48777278Y-45465368D01*
X48802173Y-45466250D01*
X48836676Y-45459837D01*
X48844558Y-45450277D01*
X48886575Y-45425895D01*
X48930698Y-45419763D01*
X48996938Y-45409572D01*
X49026503Y-45395146D01*
X49067330Y-45375082D01*
X49149579Y-45344267D01*
X49257006Y-45308694D01*
X49280203Y-45301500D01*
X49396150Y-45265555D01*
X49495736Y-45233965D01*
X49559887Y-45212794D01*
X49565428Y-45210837D01*
X49714108Y-45158296D01*
X49836544Y-45117035D01*
X49922081Y-45090550D01*
X49957053Y-45082325D01*
X50002785Y-45059921D01*
X50025790Y-45039464D01*
X50039158Y-45008408D01*
X50012425Y-44997959D01*
X49961709Y-45007623D01*
X49903126Y-45036905D01*
X49893920Y-45043513D01*
X49820003Y-45079428D01*
X49769859Y-45088548D01*
X49709394Y-45101415D01*
X49685806Y-45119067D01*
X49644381Y-45141765D01*
X49601469Y-45146097D01*
X49564501Y-45147556D01*
X49510456Y-45155645D01*
X49430408Y-45172316D01*
X49315433Y-45199523D01*
X49156605Y-45239219D01*
X49040014Y-45268955D01*
X48943728Y-45293466D01*
X48829327Y-45322381D01*
X48792647Y-45331607D01*
X48674896Y-45353383D01*
X48545811Y-45365168D01*
X48422195Y-45366864D01*
X48320852Y-45358373D01*
X48258584Y-45339598D01*
X48252451Y-45334754D01*
X48193167Y-45303890D01*
X48163324Y-45299669D01*
X48117935Y-45283595D01*
X48109281Y-45264641D01*
X48097625Y-45244023D01*
X48090249Y-45248646D01*
X48056394Y-45245425D01*
X48000141Y-45211723D01*
X47996129Y-45208614D01*
X47930914Y-45166827D01*
X47880055Y-45149550D01*
X47842738Y-45134406D01*
X47839068Y-45123778D01*
X47815795Y-45096376D01*
X47754858Y-45046759D01*
X47669582Y-44984430D01*
X47573292Y-44918890D01*
X47479311Y-44859641D01*
X47425487Y-44828849D01*
X47352478Y-44780973D01*
X47310753Y-44745619D01*
X47254530Y-44707664D01*
X47221439Y-44699196D01*
X47183506Y-44675116D01*
X47178548Y-44654160D01*
X47162336Y-44614206D01*
X47148524Y-44609125D01*
X47124407Y-44583890D01*
X47118501Y-44546996D01*
X47119848Y-44528453D01*
X47128357Y-44514173D01*
X47150728Y-44503768D01*
X47193662Y-44496846D01*
X47263858Y-44493019D01*
X47368018Y-44491897D01*
X47512842Y-44493091D01*
X47705031Y-44496210D01*
X47921633Y-44500295D01*
X48140847Y-44505568D01*
X48345027Y-44512481D01*
X48525031Y-44520567D01*
X48671721Y-44529358D01*
X48775954Y-44538389D01*
X48826617Y-44546543D01*
X48901203Y-44563164D01*
X48950146Y-44563405D01*
X48953484Y-44561901D01*
X48992595Y-44565527D01*
X49063773Y-44592182D01*
X49106834Y-44612948D01*
X49219053Y-44670466D01*
X49291493Y-44705244D01*
X49337335Y-44722846D01*
X49369758Y-44728831D01*
X49382376Y-44729220D01*
X49427429Y-44745584D01*
X49435325Y-44756949D01*
X49468357Y-44773037D01*
X49542884Y-44785192D01*
X49610463Y-44789532D01*
X49771973Y-44792640D01*
X49879794Y-44790428D01*
X49940093Y-44782384D01*
X49959034Y-44767996D01*
X49956679Y-44760770D01*
X49919444Y-44747282D01*
X49841614Y-44742134D01*
X49768379Y-44744703D01*
X49668702Y-44746685D01*
X49599522Y-44737838D01*
X49578837Y-44726626D01*
X49537000Y-44699713D01*
X49487646Y-44687760D01*
X49406587Y-44664960D01*
X49296723Y-44617185D01*
X49177968Y-44554558D01*
X49070238Y-44487206D01*
X49021776Y-44450894D01*
X48966076Y-44408279D01*
X48882896Y-44348085D01*
X48789626Y-44282488D01*
X48703657Y-44223661D01*
X48642380Y-44183781D01*
X48629629Y-44176361D01*
X48619630Y-44148864D01*
X48602700Y-44086545D01*
X48602693Y-44086519D01*
X48591446Y-44028831D01*
X48607728Y-44009619D01*
X48665727Y-44017246D01*
X48682818Y-44020807D01*
X48805058Y-44044678D01*
X48970203Y-44074288D01*
X49161743Y-44106692D01*
X49190132Y-44111350D01*
X49257108Y-44121240D01*
X49270177Y-44116893D01*
X49255186Y-44107329D01*
X49315066Y-44107329D01*
X49322371Y-44124108D01*
X49352602Y-44156340D01*
X49369982Y-44149728D01*
X49370274Y-44145530D01*
X49348949Y-44120136D01*
X49335611Y-44110868D01*
X49315066Y-44107329D01*
X49255186Y-44107329D01*
X49234620Y-44094208D01*
X49221668Y-44086843D01*
X49154818Y-44060870D01*
X49109851Y-44059846D01*
X49060639Y-44052592D01*
X49023353Y-44026304D01*
X48990830Y-44005038D01*
X49775593Y-44005038D01*
X49850652Y-44066225D01*
X49921488Y-44115852D01*
X49963080Y-44127561D01*
X49970747Y-44114506D01*
X49946650Y-44093403D01*
X49887266Y-44059679D01*
X49873170Y-44052651D01*
X49775593Y-44005038D01*
X48990830Y-44005038D01*
X48975231Y-43994838D01*
X48948143Y-43994753D01*
X48903444Y-43995134D01*
X48899548Y-43993640D01*
X50406968Y-43993640D01*
X50408438Y-44151176D01*
X50413573Y-44264127D01*
X50424811Y-44347943D01*
X50444589Y-44418076D01*
X50475344Y-44489974D01*
X50490058Y-44520245D01*
X50551622Y-44628877D01*
X50627298Y-44739554D01*
X50707186Y-44840249D01*
X50781387Y-44918938D01*
X50840002Y-44963594D01*
X50859784Y-44969409D01*
X50897595Y-44982999D01*
X50901480Y-44992850D01*
X50925830Y-45020428D01*
X50984045Y-45053573D01*
X51067458Y-45094017D01*
X51161622Y-45143324D01*
X51171692Y-45148846D01*
X51248306Y-45182796D01*
X51307409Y-45194732D01*
X51316760Y-45193206D01*
X51372382Y-45180410D01*
X51384313Y-45179574D01*
X51410253Y-45156005D01*
X51411881Y-45143980D01*
X51391704Y-45096868D01*
X51344515Y-45037548D01*
X51290330Y-44987856D01*
X51251858Y-44969409D01*
X51211193Y-44952544D01*
X51145827Y-44910481D01*
X51123988Y-44894350D01*
X51054985Y-44847037D01*
X51003492Y-44821023D01*
X50994610Y-44819290D01*
X50958832Y-44795505D01*
X50928891Y-44751737D01*
X50883001Y-44680811D01*
X50824383Y-44609125D01*
X50744024Y-44495759D01*
X50672013Y-44346998D01*
X50618106Y-44187479D01*
X50592059Y-44041836D01*
X50591100Y-44020038D01*
X50612288Y-43862795D01*
X50675450Y-43687617D01*
X50772085Y-43509094D01*
X50893692Y-43341812D01*
X51031767Y-43200362D01*
X51099910Y-43146970D01*
X51210856Y-43093785D01*
X51359497Y-43056275D01*
X51524784Y-43037648D01*
X51685673Y-43041113D01*
X51742142Y-43049046D01*
X51842144Y-43067072D01*
X51921954Y-43081076D01*
X51952307Y-43086127D01*
X52065773Y-43130318D01*
X52184230Y-43221803D01*
X52299934Y-43349192D01*
X52405140Y-43501097D01*
X52492105Y-43666130D01*
X52553085Y-43832904D01*
X52580335Y-43990028D01*
X52581019Y-44010709D01*
X52555260Y-44229952D01*
X52476979Y-44443979D01*
X52353153Y-44639491D01*
X52190759Y-44803189D01*
X52148466Y-44835098D01*
X52051449Y-44908461D01*
X51960167Y-44984542D01*
X51922170Y-45019667D01*
X51853477Y-45085493D01*
X51794948Y-45138489D01*
X51787162Y-45145073D01*
X51751804Y-45185728D01*
X51771166Y-45203222D01*
X51844471Y-45197325D01*
X51913627Y-45182559D01*
X52124047Y-45110733D01*
X52314555Y-44998635D01*
X52496068Y-44838910D01*
X52606289Y-44715846D01*
X52650953Y-44644025D01*
X52700928Y-44536952D01*
X52746558Y-44417529D01*
X52778186Y-44308656D01*
X52778400Y-44307691D01*
X52800894Y-44088624D01*
X52793487Y-44000156D01*
X53395944Y-44000156D01*
X53405812Y-44008245D01*
X53414785Y-44008652D01*
X53456619Y-43987382D01*
X53487342Y-43956111D01*
X53512926Y-43920996D01*
X53498741Y-43925927D01*
X53468501Y-43947615D01*
X53417886Y-43984496D01*
X53395944Y-44000156D01*
X52793487Y-44000156D01*
X52785401Y-43903569D01*
X53543560Y-43903569D01*
X53558572Y-43918581D01*
X53573584Y-43903569D01*
X53558572Y-43888558D01*
X53543560Y-43903569D01*
X52785401Y-43903569D01*
X52781630Y-43858534D01*
X53633631Y-43858534D01*
X53644616Y-43883247D01*
X53653647Y-43878550D01*
X53657240Y-43842919D01*
X53653647Y-43838518D01*
X53635798Y-43842640D01*
X53633631Y-43858534D01*
X52781630Y-43858534D01*
X52780839Y-43849083D01*
X52775317Y-43826555D01*
X53701039Y-43826555D01*
X53705146Y-43828510D01*
X53732545Y-43807374D01*
X53738714Y-43798487D01*
X53746364Y-43770418D01*
X53742257Y-43768463D01*
X53714858Y-43789599D01*
X53708690Y-43798487D01*
X53701039Y-43826555D01*
X52775317Y-43826555D01*
X52721577Y-43607325D01*
X52626447Y-43381604D01*
X52600353Y-43334743D01*
X52587917Y-43317460D01*
X53696862Y-43317460D01*
X53698223Y-43318108D01*
X53726779Y-43298462D01*
X53776749Y-43250424D01*
X53783749Y-43243049D01*
X53826586Y-43193438D01*
X53840613Y-43168639D01*
X53839252Y-43167990D01*
X53810695Y-43187637D01*
X53760726Y-43235675D01*
X53753725Y-43243049D01*
X53710889Y-43292660D01*
X53696862Y-43317460D01*
X52587917Y-43317460D01*
X52530310Y-43237399D01*
X52436110Y-43135205D01*
X52332770Y-43041815D01*
X52235305Y-42970881D01*
X52162880Y-42936981D01*
X52100394Y-42916688D01*
X52072402Y-42900500D01*
X52020614Y-42870718D01*
X51927382Y-42844965D01*
X51807648Y-42824519D01*
X51676353Y-42810654D01*
X51548439Y-42804644D01*
X51438847Y-42807765D01*
X51362518Y-42821292D01*
X51336822Y-42837730D01*
X51295699Y-42860440D01*
X51240359Y-42867754D01*
X51158541Y-42886123D01*
X51048155Y-42934904D01*
X50925504Y-43004609D01*
X50806893Y-43085748D01*
X50708624Y-43168833D01*
X50689625Y-43188280D01*
X50613783Y-43282166D01*
X50535229Y-43398232D01*
X50494472Y-43468227D01*
X50456787Y-43542095D01*
X50431711Y-43606262D01*
X50416728Y-43675830D01*
X50409323Y-43765901D01*
X50406981Y-43891575D01*
X50406968Y-43993640D01*
X48899548Y-43993640D01*
X48858544Y-43977918D01*
X48824805Y-43963617D01*
X49730558Y-43963617D01*
X49745569Y-43978629D01*
X49760581Y-43963617D01*
X49745569Y-43948605D01*
X49730558Y-43963617D01*
X48824805Y-43963617D01*
X48770823Y-43940736D01*
X48655984Y-43912122D01*
X48568510Y-43897164D01*
X49645326Y-43897164D01*
X49652631Y-43913942D01*
X49682862Y-43946174D01*
X49700242Y-43939562D01*
X49700534Y-43935365D01*
X49679209Y-43909970D01*
X49665871Y-43900702D01*
X49645326Y-43897164D01*
X48568510Y-43897164D01*
X48567142Y-43896930D01*
X48500815Y-43881360D01*
X48469863Y-43863430D01*
X48469565Y-43861804D01*
X48443463Y-43842469D01*
X48376874Y-43815512D01*
X48327599Y-43799702D01*
X48225693Y-43766061D01*
X48135853Y-43730590D01*
X48109927Y-43718273D01*
X48034964Y-43688488D01*
X47981681Y-43678577D01*
X47937114Y-43664604D01*
X47929139Y-43649119D01*
X47903916Y-43621608D01*
X47839315Y-43582980D01*
X47786527Y-43557995D01*
X47691228Y-43515202D01*
X47610666Y-43476549D01*
X47583867Y-43462486D01*
X47506079Y-43418864D01*
X47465301Y-43395986D01*
X47395546Y-43349389D01*
X47347052Y-43310603D01*
X47289764Y-43270832D01*
X47252654Y-43258061D01*
X47214585Y-43241112D01*
X47141629Y-43195705D01*
X47046489Y-43130003D01*
X46995697Y-43092931D01*
X46893935Y-43020211D01*
X46807676Y-42963830D01*
X46749805Y-42931976D01*
X46735788Y-42927801D01*
X46700856Y-42908296D01*
X46698170Y-42896835D01*
X46673870Y-42861554D01*
X46645629Y-42845974D01*
X46579928Y-42811541D01*
X46556793Y-42794375D01*
X46513713Y-42759782D01*
X46440625Y-42703775D01*
X46379010Y-42657588D01*
X46168628Y-42489740D01*
X46011693Y-42337166D01*
X45904881Y-42195566D01*
X45844872Y-42060641D01*
X45828144Y-41944527D01*
X45839239Y-41876267D01*
X45877035Y-41848693D01*
X45946500Y-41861938D01*
X46052603Y-41916134D01*
X46110684Y-41952033D01*
X46199600Y-42006238D01*
X46269827Y-42044185D01*
X46303918Y-42057116D01*
X46340988Y-42076142D01*
X46342890Y-42079633D01*
X46378609Y-42113062D01*
X46446833Y-42153738D01*
X46523360Y-42189173D01*
X46583982Y-42206879D01*
X46590214Y-42207234D01*
X46631981Y-42222470D01*
X46638123Y-42237012D01*
X46663473Y-42263507D01*
X46729783Y-42303821D01*
X46818264Y-42347164D01*
X46910015Y-42391413D01*
X46974899Y-42429027D01*
X46998406Y-42451132D01*
X47024618Y-42471598D01*
X47089131Y-42491525D01*
X47103489Y-42494439D01*
X47172764Y-42514096D01*
X47207597Y-42537023D01*
X47208572Y-42540835D01*
X47233022Y-42564340D01*
X47254863Y-42567517D01*
X47309438Y-42586780D01*
X47365607Y-42627565D01*
X47430756Y-42671783D01*
X47484446Y-42687612D01*
X47530117Y-42698135D01*
X47538832Y-42710553D01*
X47563820Y-42735162D01*
X47626924Y-42770683D01*
X47662553Y-42787094D01*
X47749125Y-42830031D01*
X47816387Y-42872762D01*
X47830103Y-42884523D01*
X47876589Y-42913299D01*
X47900211Y-42912112D01*
X47938040Y-42918895D01*
X47996298Y-42956813D01*
X48005279Y-42964377D01*
X48063616Y-43011572D01*
X48101879Y-43036216D01*
X48104181Y-43036923D01*
X48185414Y-43060541D01*
X48243352Y-43090336D01*
X48259399Y-43111445D01*
X48284576Y-43133003D01*
X48319446Y-43137967D01*
X48368234Y-43150540D01*
X48379494Y-43167990D01*
X48403812Y-43194627D01*
X48424529Y-43198014D01*
X48464536Y-43210319D01*
X48469565Y-43220708D01*
X48494246Y-43246492D01*
X48554877Y-43280341D01*
X48567142Y-43285856D01*
X48639058Y-43323210D01*
X48684512Y-43357785D01*
X48686776Y-43360739D01*
X48704363Y-43364619D01*
X48704495Y-43363772D01*
X48753736Y-43363772D01*
X48772622Y-43396566D01*
X48808703Y-43425947D01*
X48822769Y-43425267D01*
X48852253Y-43434365D01*
X48917529Y-43471395D01*
X49005838Y-43528954D01*
X49028656Y-43544731D01*
X49118293Y-43605198D01*
X49185475Y-43646354D01*
X49218569Y-43661203D01*
X49220156Y-43659912D01*
X49241023Y-43664241D01*
X49293380Y-43697396D01*
X49317733Y-43715282D01*
X49396845Y-43770675D01*
X49483978Y-43824991D01*
X49560633Y-43867368D01*
X49608310Y-43886940D01*
X49610463Y-43887206D01*
X49599883Y-43871119D01*
X49555195Y-43829650D01*
X49535404Y-43812770D01*
X49444405Y-43744446D01*
X49346040Y-43681283D01*
X49340250Y-43677980D01*
X49245364Y-43622754D01*
X49140195Y-43559232D01*
X49115073Y-43543657D01*
X49033777Y-43494155D01*
X48969010Y-43456930D01*
X48952236Y-43448206D01*
X48898429Y-43411692D01*
X48853565Y-43371848D01*
X48801866Y-43337397D01*
X48763187Y-43336355D01*
X48753736Y-43363772D01*
X48704495Y-43363772D01*
X48709294Y-43332943D01*
X48680501Y-43272922D01*
X48612177Y-43230476D01*
X48524975Y-43186404D01*
X48424930Y-43127285D01*
X48394506Y-43107456D01*
X48290531Y-43043357D01*
X48180571Y-42983913D01*
X48154316Y-42971299D01*
X48077745Y-42933456D01*
X48027349Y-42903848D01*
X48019210Y-42896936D01*
X47983836Y-42873202D01*
X47916997Y-42840085D01*
X47906621Y-42835502D01*
X47841931Y-42801616D01*
X47809817Y-42773542D01*
X47809045Y-42770354D01*
X47785468Y-42748862D01*
X47774349Y-42747659D01*
X47730162Y-42730674D01*
X47662665Y-42688347D01*
X47641246Y-42672600D01*
X47568827Y-42624937D01*
X47510217Y-42599078D01*
X47499476Y-42597541D01*
X47443738Y-42576310D01*
X47422533Y-42557080D01*
X47375843Y-42521992D01*
X47296193Y-42479616D01*
X47253727Y-42460853D01*
X47175257Y-42424034D01*
X47126464Y-42392555D01*
X47118501Y-42381220D01*
X47094097Y-42360021D01*
X47073465Y-42357352D01*
X47033511Y-42341140D01*
X47028430Y-42327328D01*
X47004112Y-42300692D01*
X46983394Y-42297305D01*
X46943440Y-42281093D01*
X46938359Y-42267281D01*
X46915275Y-42238416D01*
X46906536Y-42237257D01*
X46865258Y-42221007D01*
X46795446Y-42179695D01*
X46713019Y-42124484D01*
X46633894Y-42066534D01*
X46573989Y-42017007D01*
X46549221Y-41987064D01*
X46549191Y-41986691D01*
X46532389Y-41947777D01*
X46492214Y-41883381D01*
X46480498Y-41866597D01*
X46448903Y-41815397D01*
X46429022Y-41759155D01*
X46418325Y-41682852D01*
X46414287Y-41571468D01*
X46414040Y-41471655D01*
X46416173Y-41327923D01*
X46423976Y-41224170D01*
X46441419Y-41140349D01*
X46472473Y-41056416D01*
X46513998Y-40966982D01*
X46577179Y-40848920D01*
X46631397Y-40783837D01*
X46683025Y-40772472D01*
X46738438Y-40815559D01*
X46804006Y-40913834D01*
X46854377Y-41006288D01*
X46947827Y-41162472D01*
X47062649Y-41307094D01*
X47202629Y-41449137D01*
X47301256Y-41539037D01*
X47386469Y-41610866D01*
X47447506Y-41655887D01*
X47470786Y-41666808D01*
X47514581Y-41689774D01*
X47545799Y-41726855D01*
X47589714Y-41774007D01*
X47621113Y-41786903D01*
X47656292Y-41801123D01*
X47658992Y-41809420D01*
X47681938Y-41837314D01*
X47740854Y-41884962D01*
X47793438Y-41922009D01*
X47868393Y-41976015D01*
X47917468Y-42018589D01*
X47928479Y-42034598D01*
X47952095Y-42056667D01*
X47957798Y-42057116D01*
X47997519Y-42076143D01*
X48054255Y-42122181D01*
X48056868Y-42124669D01*
X48132312Y-42191814D01*
X48215343Y-42258871D01*
X48215856Y-42259260D01*
X48335147Y-42350996D01*
X48431001Y-42429049D01*
X48528966Y-42514470D01*
X48566533Y-42548246D01*
X48663485Y-42629788D01*
X48781123Y-42720426D01*
X48865981Y-42781099D01*
X48955924Y-42845700D01*
X49026176Y-42901924D01*
X49061135Y-42937133D01*
X49098539Y-42976949D01*
X49166213Y-43033561D01*
X49205144Y-43062736D01*
X49222741Y-43069974D01*
X49201852Y-43039713D01*
X49146668Y-42976694D01*
X49061378Y-42885663D01*
X48950173Y-42771360D01*
X48927425Y-42748376D01*
X48802118Y-42619456D01*
X48693013Y-42502192D01*
X48606782Y-42404165D01*
X48550091Y-42332959D01*
X48529612Y-42296155D01*
X48529612Y-42296095D01*
X48555259Y-42252143D01*
X48618258Y-42226587D01*
X48697699Y-42223297D01*
X48772670Y-42246143D01*
X48778994Y-42249936D01*
X48850845Y-42276807D01*
X48947851Y-42291713D01*
X48974659Y-42292707D01*
X49063176Y-42299458D01*
X49127916Y-42315270D01*
X49139789Y-42321919D01*
X49190763Y-42344413D01*
X49272901Y-42364716D01*
X49295215Y-42368486D01*
X49404225Y-42385692D01*
X49479192Y-42400772D01*
X49545496Y-42420237D01*
X49628515Y-42450596D01*
X49655498Y-42460896D01*
X49749831Y-42501227D01*
X49825081Y-42540833D01*
X49850652Y-42558813D01*
X49962288Y-42660769D01*
X50038845Y-42735443D01*
X50091249Y-42794143D01*
X50130429Y-42848177D01*
X50130770Y-42848700D01*
X50171505Y-42901285D01*
X50198909Y-42919036D01*
X50200809Y-42917912D01*
X50209996Y-42883862D01*
X50223813Y-42802366D01*
X50240383Y-42685670D01*
X50257650Y-42547517D01*
X50276089Y-42390710D01*
X50293846Y-42239953D01*
X50308681Y-42114253D01*
X50317087Y-42043258D01*
X50326218Y-41956586D01*
X50323692Y-41919570D01*
X50305546Y-41922313D01*
X50278002Y-41945681D01*
X50215216Y-41992997D01*
X50175819Y-41995685D01*
X50156863Y-41949726D01*
X50155403Y-41851103D01*
X50159984Y-41784700D01*
X50186614Y-41610837D01*
X50236932Y-41473534D01*
X50254409Y-41441588D01*
X50298359Y-41363533D01*
X50326075Y-41308425D01*
X50331030Y-41294038D01*
X50303933Y-41285986D01*
X50234083Y-41282930D01*
X50167424Y-41284373D01*
X50041090Y-41280666D01*
X49968679Y-41256746D01*
X49951360Y-41213427D01*
X49985117Y-41157116D01*
X50034868Y-41112030D01*
X50067099Y-41096359D01*
X50127263Y-41069637D01*
X50195203Y-40998609D01*
X50263191Y-40896976D01*
X50323499Y-40778442D01*
X50368397Y-40656712D01*
X50390157Y-40545488D01*
X50391078Y-40521927D01*
X50365883Y-40414212D01*
X50296306Y-40294369D01*
X50191362Y-40177742D01*
X50186071Y-40172923D01*
X50140828Y-40137895D01*
X50091484Y-40119415D01*
X50020327Y-40114375D01*
X49909646Y-40119664D01*
X49890423Y-40121021D01*
X49768168Y-40127073D01*
X49686298Y-40121994D01*
X49625739Y-40103031D01*
X49580089Y-40076195D01*
X49488574Y-40014254D01*
X49398524Y-39953250D01*
X49306679Y-39890993D01*
X49205373Y-39968262D01*
X49107427Y-40030491D01*
X49036850Y-40042327D01*
X48986406Y-40002450D01*
X48952496Y-39922120D01*
X48932880Y-39758763D01*
X48965552Y-39598093D01*
X49024044Y-39489432D01*
X49730558Y-39489432D01*
X49756200Y-39530073D01*
X49816579Y-39557534D01*
X49886876Y-39566292D01*
X49942272Y-39550825D01*
X49953338Y-39539008D01*
X49991306Y-39515081D01*
X50061681Y-39492342D01*
X50067699Y-39490958D01*
X50165900Y-39469055D01*
X50075829Y-39441164D01*
X49990039Y-39426646D01*
X49894276Y-39427589D01*
X49807043Y-39441406D01*
X49746845Y-39465510D01*
X49730558Y-39489432D01*
X49024044Y-39489432D01*
X49043634Y-39453039D01*
X49160250Y-39336531D01*
X49302993Y-39263243D01*
X49385131Y-39232655D01*
X49444474Y-39203344D01*
X49451302Y-39198557D01*
X49510708Y-39173770D01*
X49611265Y-39152897D01*
X49734086Y-39138851D01*
X49860282Y-39134548D01*
X49865664Y-39134629D01*
X49971658Y-39137663D01*
X50106141Y-39143231D01*
X50256420Y-39150599D01*
X50409801Y-39159034D01*
X50553592Y-39167801D01*
X50675098Y-39176168D01*
X50761626Y-39183400D01*
X50800140Y-39188639D01*
X50838168Y-39175175D01*
X50900207Y-39128359D01*
X50948845Y-39082389D01*
X51016009Y-39017245D01*
X51066895Y-38974499D01*
X51084904Y-38964681D01*
X51099846Y-38985675D01*
X51082017Y-39040532D01*
X51037182Y-39117061D01*
X50973531Y-39200245D01*
X50904777Y-39286515D01*
X50877879Y-39343153D01*
X50891746Y-39382499D01*
X50945288Y-39416891D01*
X50954021Y-39421125D01*
X51026397Y-39483156D01*
X51046087Y-39542869D01*
X51077738Y-39621400D01*
X51139475Y-39672367D01*
X51171692Y-39680349D01*
X51251648Y-39710089D01*
X51289737Y-39780231D01*
X51291787Y-39806135D01*
X51288209Y-39860424D01*
X51266036Y-39877943D01*
X51208110Y-39867382D01*
X51183889Y-39860781D01*
X51110029Y-39845103D01*
X51064563Y-39844201D01*
X51060713Y-39846266D01*
X51065126Y-39878770D01*
X51090934Y-39950330D01*
X51132752Y-40046255D01*
X51138588Y-40058701D01*
X51184094Y-40157300D01*
X51217274Y-40233545D01*
X51231596Y-40272364D01*
X51231740Y-40273660D01*
X51247497Y-40307931D01*
X51285853Y-40367412D01*
X51290042Y-40373341D01*
X51324830Y-40434429D01*
X51369374Y-40528757D01*
X51416516Y-40638879D01*
X51459098Y-40747354D01*
X51489962Y-40836737D01*
X51501952Y-40889586D01*
X51501952Y-40889768D01*
X51476775Y-40911267D01*
X51441905Y-40916217D01*
X51405041Y-40918670D01*
X51388389Y-40934009D01*
X51391950Y-40974202D01*
X51415723Y-41051217D01*
X51441905Y-41126383D01*
X51482448Y-41264452D01*
X51499719Y-41376582D01*
X51493336Y-41453558D01*
X51462915Y-41486166D01*
X51456917Y-41486666D01*
X51399794Y-41464013D01*
X51335200Y-41409298D01*
X51285817Y-41342388D01*
X51281241Y-41332795D01*
X51274797Y-41339138D01*
X51274383Y-41393860D01*
X51279991Y-41485599D01*
X51281337Y-41501678D01*
X51309554Y-41679841D01*
X51363129Y-41888502D01*
X51435876Y-42107069D01*
X51521607Y-42314948D01*
X51532990Y-42339286D01*
X51602821Y-42486349D01*
X51689532Y-42309262D01*
X51762837Y-42152539D01*
X51820810Y-42014626D01*
X51859914Y-41905032D01*
X51876612Y-41833269D01*
X51874364Y-41812261D01*
X51878950Y-41788014D01*
X51886343Y-41786903D01*
X51905062Y-41760179D01*
X51928263Y-41691905D01*
X51951612Y-41599929D01*
X51970775Y-41502097D01*
X51981419Y-41416256D01*
X51982331Y-41391588D01*
X51964599Y-41345821D01*
X51924458Y-41340692D01*
X51881488Y-41373914D01*
X51864621Y-41405335D01*
X51820836Y-41482214D01*
X51768037Y-41526317D01*
X51719216Y-41533590D01*
X51687367Y-41499979D01*
X51681790Y-41462377D01*
X51691746Y-41402696D01*
X51718001Y-41305823D01*
X51754511Y-41190300D01*
X51795233Y-41074669D01*
X51834124Y-40977473D01*
X51852467Y-40938735D01*
X51870411Y-40882063D01*
X51860896Y-40853180D01*
X51832758Y-40865248D01*
X51817201Y-40886194D01*
X51777574Y-40913363D01*
X51732463Y-40909539D01*
X51712044Y-40878688D01*
X51725455Y-40823273D01*
X51762344Y-40726460D01*
X51817513Y-40599605D01*
X51885763Y-40454067D01*
X51961895Y-40301203D01*
X52040710Y-40152371D01*
X52062486Y-40113085D01*
X52130637Y-39990066D01*
X52171676Y-39909926D01*
X52188518Y-39863544D01*
X52184081Y-39841800D01*
X52161279Y-39835572D01*
X52151286Y-39835366D01*
X52085197Y-39846251D01*
X52055889Y-39861513D01*
X52007098Y-39887469D01*
X51944801Y-39907121D01*
X51885045Y-39914127D01*
X51863766Y-39889929D01*
X51862236Y-39868106D01*
X51891990Y-39785974D01*
X51980192Y-39706612D01*
X52045222Y-39668765D01*
X52106408Y-39629548D01*
X52135907Y-39595921D01*
X52136202Y-39594406D01*
X52146893Y-39537242D01*
X52170006Y-39490119D01*
X52196428Y-39451300D01*
X52221395Y-39423525D01*
G37*
D12*
%TO.C,J4*%
X124306000Y-43978000D02*
G75*
G03*
X124306000Y-43978000I-100000J0D01*
G01*
D13*
X127456000Y-44728000D02*
X127456000Y-57888000D01*
X127456000Y-57888000D02*
X120956000Y-57888000D01*
X120956000Y-57888000D02*
X120956000Y-44728000D01*
X120956000Y-44728000D02*
X127456000Y-44728000D01*
%TO.C,RST*%
X72918000Y-61824000D02*
X72918000Y-64824000D01*
D12*
X74468000Y-60624000D02*
G75*
G03*
X74468000Y-60624000I-100000J0D01*
G01*
D13*
X75418000Y-61824000D02*
X75418000Y-64824000D01*
D14*
%TO.C,JP3*%
X112759100Y-44115000D02*
X112759100Y-43515000D01*
X113459100Y-42815000D02*
X114859100Y-42815000D01*
X114859100Y-44815000D02*
X113459100Y-44815000D01*
X115559100Y-43515000D02*
X115559100Y-44115000D01*
X113459100Y-42815000D02*
G75*
G03*
X112759100Y-43515000I-1J-699999D01*
G01*
X112759100Y-44115000D02*
G75*
G03*
X113459100Y-44815000I699999J-1D01*
G01*
X115559100Y-43515000D02*
G75*
G03*
X114859100Y-42815000I-700000J0D01*
G01*
X114859100Y-44815000D02*
G75*
G03*
X115559100Y-44115000I0J700000D01*
G01*
%TO.C,D3*%
X74668100Y-37365000D02*
X74668100Y-38835000D01*
X74668100Y-38835000D02*
X77128100Y-38835000D01*
X77128100Y-37365000D02*
X74668100Y-37365000D01*
%TO.C,JP2*%
X118686100Y-34738000D02*
X120016100Y-34738000D01*
X118686100Y-36068000D02*
X118686100Y-34738000D01*
X118686100Y-37338000D02*
X118686100Y-42478000D01*
X118686100Y-37338000D02*
X121346100Y-37338000D01*
X118686100Y-42478000D02*
X121346100Y-42478000D01*
X121346100Y-37338000D02*
X121346100Y-42478000D01*
%TO.C,L1*%
X59056600Y-54510000D02*
X63320600Y-54510000D01*
X59056600Y-55199000D02*
X59056600Y-54510000D01*
X59056600Y-58085000D02*
X59056600Y-58774000D01*
X59056600Y-58774000D02*
X63320600Y-58774000D01*
X63320600Y-54510000D02*
X63320600Y-55199000D01*
X63320600Y-58774000D02*
X63320600Y-58085000D01*
%TO.C,R14*%
X103530324Y-50306500D02*
X103020876Y-50306500D01*
X103530324Y-49261500D02*
X103020876Y-49261500D01*
%TO.C,U1*%
X63288600Y-36302000D02*
X59838600Y-36302000D01*
X63288600Y-36302000D02*
X65238600Y-36302000D01*
X63288600Y-41422000D02*
X61338600Y-41422000D01*
X63288600Y-41422000D02*
X65238600Y-41422000D01*
D10*
%TO.C,SCL*%
X62742100Y-43688000D02*
G75*
G03*
X62742100Y-43688000I-1400000J0D01*
G01*
D14*
%TO.C,R7*%
X114325324Y-52211500D02*
X113815876Y-52211500D01*
X114325324Y-51166500D02*
X113815876Y-51166500D01*
D10*
%TO.C,SDA*%
X67544600Y-43688000D02*
G75*
G03*
X67544600Y-43688000I-1400000J0D01*
G01*
D14*
%TO.C,R20*%
X106666600Y-62254224D02*
X106666600Y-61744776D01*
X107711600Y-62254224D02*
X107711600Y-61744776D01*
%TO.C,J2*%
X91888000Y-37144000D02*
X91888000Y-35814000D01*
X93218000Y-37144000D02*
X91888000Y-37144000D01*
X94488000Y-37144000D02*
X97088000Y-37144000D01*
X94488000Y-37144000D02*
X94488000Y-34484000D01*
X97088000Y-37144000D02*
X97088000Y-34484000D01*
X94488000Y-34484000D02*
X97088000Y-34484000D01*
%TO.C,R4*%
X86883600Y-38190026D02*
X86883600Y-38699474D01*
X85838600Y-38190026D02*
X85838600Y-38699474D01*
%TO.C,JP5*%
X112782600Y-55545000D02*
X112782600Y-54945000D01*
X113482600Y-54245000D02*
X114882600Y-54245000D01*
X114882600Y-56245000D02*
X113482600Y-56245000D01*
X115582600Y-54945000D02*
X115582600Y-55545000D01*
X113482600Y-54245000D02*
G75*
G03*
X112782600Y-54945000I-1J-699999D01*
G01*
X112782600Y-55545000D02*
G75*
G03*
X113482600Y-56245000I699999J-1D01*
G01*
X115582600Y-54945000D02*
G75*
G03*
X114882600Y-54245000I-700000J0D01*
G01*
X114882600Y-56245000D02*
G75*
G03*
X115582600Y-55545000I0J700000D01*
G01*
D10*
%TO.C,J6*%
X40758100Y-34306000D02*
X39358100Y-34306000D01*
X36958100Y-34306000D02*
X36808100Y-34306000D01*
X36808100Y-34306000D02*
X36808100Y-34606000D01*
X36808100Y-34606000D02*
X36358100Y-34606000D01*
X42933100Y-36656000D02*
X42508100Y-36656000D01*
X42508100Y-36656000D02*
X42508100Y-35656000D01*
X42933100Y-37381000D02*
X42933100Y-36656000D01*
X42508100Y-40256000D02*
X42508100Y-41256000D01*
X36808100Y-42306000D02*
X36808100Y-42606000D01*
X36358100Y-42306000D02*
X36808100Y-42306000D01*
X39358100Y-42606000D02*
X40758100Y-42606000D01*
X36808100Y-42606000D02*
X36958100Y-42606000D01*
D14*
%TO.C,R3*%
X69066324Y-39892500D02*
X68556876Y-39892500D01*
X69066324Y-38847500D02*
X68556876Y-38847500D01*
%TO.C,R10*%
X117904824Y-57926500D02*
X117395376Y-57926500D01*
X117904824Y-56881500D02*
X117395376Y-56881500D01*
%TO.C,R19*%
X106737100Y-56642724D02*
X106737100Y-56133276D01*
X107782100Y-56642724D02*
X107782100Y-56133276D01*
%TO.C,D1*%
X80800100Y-40001250D02*
X82270100Y-40001250D01*
X82270100Y-40001250D02*
X82270100Y-37541250D01*
X80800100Y-37541250D02*
X80800100Y-40001250D01*
%TO.C,J3*%
X40063100Y-55362000D02*
X38793100Y-55362000D01*
X40063100Y-54092000D02*
X40063100Y-55362000D01*
X37750171Y-51932000D02*
X37353100Y-51932000D01*
X37750171Y-51172000D02*
X37353100Y-51172000D01*
X37750171Y-49392000D02*
X37353100Y-49392000D01*
X37750171Y-48632000D02*
X37353100Y-48632000D01*
X37750171Y-46852000D02*
X37353100Y-46852000D01*
X37750171Y-46092000D02*
X37353100Y-46092000D01*
X37683100Y-54472000D02*
X37353100Y-54472000D01*
X37683100Y-53712000D02*
X37353100Y-53712000D01*
X37353100Y-55422000D02*
X37353100Y-45142000D01*
X37353100Y-52822000D02*
X34693100Y-52822000D01*
X37353100Y-50282000D02*
X34693100Y-50282000D01*
X37353100Y-47742000D02*
X34693100Y-47742000D01*
X37353100Y-45142000D02*
X34693100Y-45142000D01*
X34693100Y-55422000D02*
X37353100Y-55422000D01*
X34693100Y-54472000D02*
X28693100Y-54472000D01*
X34693100Y-54412000D02*
X28693100Y-54412000D01*
X34693100Y-54292000D02*
X28693100Y-54292000D01*
X34693100Y-54172000D02*
X28693100Y-54172000D01*
X34693100Y-54052000D02*
X28693100Y-54052000D01*
X34693100Y-53932000D02*
X28693100Y-53932000D01*
X34693100Y-53812000D02*
X28693100Y-53812000D01*
X34693100Y-51932000D02*
X28693100Y-51932000D01*
X34693100Y-49392000D02*
X28693100Y-49392000D01*
X34693100Y-46852000D02*
X28693100Y-46852000D01*
X34693100Y-45142000D02*
X34693100Y-55422000D01*
X28693100Y-54472000D02*
X28693100Y-53712000D01*
X28693100Y-53712000D02*
X34693100Y-53712000D01*
X28693100Y-51932000D02*
X28693100Y-51172000D01*
X28693100Y-51172000D02*
X34693100Y-51172000D01*
X28693100Y-49392000D02*
X28693100Y-48632000D01*
X28693100Y-48632000D02*
X34693100Y-48632000D01*
X28693100Y-46852000D02*
X28693100Y-46092000D01*
X28693100Y-46092000D02*
X34693100Y-46092000D01*
%TO.C,Q3*%
X110313100Y-54828000D02*
X108513100Y-54828000D01*
X110313100Y-54828000D02*
X111113100Y-54828000D01*
X110313100Y-57948000D02*
X109513100Y-57948000D01*
X110313100Y-57948000D02*
X111113100Y-57948000D01*
%TO.C,R11*%
X114405324Y-63514500D02*
X113895876Y-63514500D01*
X114405324Y-62469500D02*
X113895876Y-62469500D01*
%TO.C,C2*%
X56254867Y-54993000D02*
X55962333Y-54993000D01*
X56254867Y-53973000D02*
X55962333Y-53973000D01*
D10*
%TO.C,GND*%
X57127600Y-64135000D02*
G75*
G03*
X57127600Y-64135000I-1400000J0D01*
G01*
D14*
%TO.C,C4*%
X60412352Y-60772000D02*
X59889848Y-60772000D01*
X60412352Y-59302000D02*
X59889848Y-59302000D01*
%TO.C,JP1*%
X71154600Y-62290000D02*
X69824600Y-62290000D01*
X71154600Y-60960000D02*
X71154600Y-62290000D01*
X71154600Y-59690000D02*
X71154600Y-57090000D01*
X71154600Y-59690000D02*
X68494600Y-59690000D01*
X71154600Y-57090000D02*
X68494600Y-57090000D01*
X68494600Y-59690000D02*
X68494600Y-57090000D01*
%TO.C,D2*%
X52071600Y-66326500D02*
X53541600Y-66326500D01*
X53541600Y-66326500D02*
X53541600Y-63866500D01*
X52071600Y-63866500D02*
X52071600Y-66326500D01*
%TO.C,Q2*%
X110139100Y-49113000D02*
X108339100Y-49113000D01*
X110139100Y-49113000D02*
X110939100Y-49113000D01*
X110139100Y-52233000D02*
X109339100Y-52233000D01*
X110139100Y-52233000D02*
X110939100Y-52233000D01*
%TO.C,JP4*%
X112685600Y-49703000D02*
X112685600Y-49103000D01*
X113385600Y-48403000D02*
X114785600Y-48403000D01*
X114785600Y-50403000D02*
X113385600Y-50403000D01*
X115485600Y-49103000D02*
X115485600Y-49703000D01*
X113385600Y-48403000D02*
G75*
G03*
X112685600Y-49103000I-1J-699999D01*
G01*
X112685600Y-49703000D02*
G75*
G03*
X113385600Y-50403000I699999J-1D01*
G01*
X115485600Y-49103000D02*
G75*
G03*
X114785600Y-48403000I-700000J0D01*
G01*
X114785600Y-50403000D02*
G75*
G03*
X115485600Y-49703000I0J700000D01*
G01*
D10*
%TO.C,3v3*%
X85220000Y-35560000D02*
G75*
G03*
X85220000Y-35560000I-1400000J0D01*
G01*
D14*
%TO.C,J1*%
X83123000Y-63440000D02*
X83123000Y-64770000D01*
X81793000Y-63440000D02*
X83123000Y-63440000D01*
X80523000Y-63440000D02*
X77923000Y-63440000D01*
X80523000Y-63440000D02*
X80523000Y-66100000D01*
X77923000Y-63440000D02*
X77923000Y-66100000D01*
X80523000Y-66100000D02*
X77923000Y-66100000D01*
%TO.C,Q1*%
X110222100Y-43398000D02*
X108422100Y-43398000D01*
X110222100Y-43398000D02*
X111022100Y-43398000D01*
X110222100Y-46518000D02*
X109422100Y-46518000D01*
X110222100Y-46518000D02*
X111022100Y-46518000D01*
%TO.C,C5*%
X55339348Y-59336000D02*
X55861852Y-59336000D01*
X55339348Y-60806000D02*
X55861852Y-60806000D01*
%TO.C,R5*%
X114413824Y-46496500D02*
X113904376Y-46496500D01*
X114413824Y-45451500D02*
X113904376Y-45451500D01*
%TO.C,R9*%
X114475824Y-57926500D02*
X113966376Y-57926500D01*
X114475824Y-56881500D02*
X113966376Y-56881500D01*
%TO.C,R18*%
X106563100Y-50951224D02*
X106563100Y-50441776D01*
X107608100Y-50951224D02*
X107608100Y-50441776D01*
%TO.C,JP7*%
X45351100Y-37295000D02*
X45951100Y-37295000D01*
X46651100Y-37995000D02*
X46651100Y-39395000D01*
X44651100Y-39395000D02*
X44651100Y-37995000D01*
X45951100Y-40095000D02*
X45351100Y-40095000D01*
X46651100Y-37995000D02*
G75*
G03*
X45951100Y-37295000I-699999J1D01*
G01*
X45351100Y-37295000D02*
G75*
G03*
X44651100Y-37995000I-1J-699999D01*
G01*
X45951100Y-40095000D02*
G75*
G03*
X46651100Y-39395000I0J700000D01*
G01*
X44651100Y-39395000D02*
G75*
G03*
X45351100Y-40095000I700000J0D01*
G01*
%TO.C,R15*%
X103577324Y-56021500D02*
X103067876Y-56021500D01*
X103577324Y-54976500D02*
X103067876Y-54976500D01*
%TO.C,R16*%
X103506824Y-61609500D02*
X102997376Y-61609500D01*
X103506824Y-60564500D02*
X102997376Y-60564500D01*
%TO.C,R22*%
X78345600Y-39878724D02*
X78345600Y-39369276D01*
X79390600Y-39878724D02*
X79390600Y-39369276D01*
%TO.C,JP8*%
X46098000Y-35860000D02*
X46098000Y-35260000D01*
X46798000Y-34560000D02*
X48198000Y-34560000D01*
X48198000Y-36560000D02*
X46798000Y-36560000D01*
X48898000Y-35260000D02*
X48898000Y-35860000D01*
X46798000Y-34560000D02*
G75*
G03*
X46098000Y-35260000I-1J-699999D01*
G01*
X46098000Y-35860000D02*
G75*
G03*
X46798000Y-36560000I699999J-1D01*
G01*
X48898000Y-35260000D02*
G75*
G03*
X48198000Y-34560000I-700000J0D01*
G01*
X48198000Y-36560000D02*
G75*
G03*
X48898000Y-35860000I0J700000D01*
G01*
%TO.C,J5*%
X40063100Y-41190000D02*
X38793100Y-41190000D01*
X40063100Y-39920000D02*
X40063100Y-41190000D01*
X37750171Y-37760000D02*
X37353100Y-37760000D01*
X37750171Y-37000000D02*
X37353100Y-37000000D01*
X37683100Y-40300000D02*
X37353100Y-40300000D01*
X37683100Y-39540000D02*
X37353100Y-39540000D01*
X37353100Y-41250000D02*
X37353100Y-36050000D01*
X37353100Y-38650000D02*
X34693100Y-38650000D01*
X37353100Y-36050000D02*
X34693100Y-36050000D01*
X34693100Y-41250000D02*
X37353100Y-41250000D01*
X34693100Y-40300000D02*
X28693100Y-40300000D01*
X34693100Y-40240000D02*
X28693100Y-40240000D01*
X34693100Y-40120000D02*
X28693100Y-40120000D01*
X34693100Y-40000000D02*
X28693100Y-40000000D01*
X34693100Y-39880000D02*
X28693100Y-39880000D01*
X34693100Y-39760000D02*
X28693100Y-39760000D01*
X34693100Y-39640000D02*
X28693100Y-39640000D01*
X34693100Y-37760000D02*
X28693100Y-37760000D01*
X34693100Y-36050000D02*
X34693100Y-41250000D01*
X28693100Y-40300000D02*
X28693100Y-39540000D01*
X28693100Y-39540000D02*
X34693100Y-39540000D01*
X28693100Y-37760000D02*
X28693100Y-37000000D01*
X28693100Y-37000000D02*
X34693100Y-37000000D01*
%TO.C,U3*%
X55733100Y-55529000D02*
X53933100Y-55529000D01*
X55733100Y-55529000D02*
X56533100Y-55529000D01*
X55733100Y-58649000D02*
X54933100Y-58649000D01*
X55733100Y-58649000D02*
X56533100Y-58649000D01*
%TO.C,R13*%
X103618824Y-44591500D02*
X103109376Y-44591500D01*
X103618824Y-43546500D02*
X103109376Y-43546500D01*
%TO.C,R1*%
X68318100Y-36170776D02*
X68318100Y-36680224D01*
X67273100Y-36170776D02*
X67273100Y-36680224D01*
%TO.C,R21*%
X53329100Y-60855776D02*
X53329100Y-61365224D01*
X52284100Y-60855776D02*
X52284100Y-61365224D01*
%TO.C,C3*%
X60412352Y-63092000D02*
X59889848Y-63092000D01*
X60412352Y-61622000D02*
X59889848Y-61622000D01*
%TO.C,C1*%
X63369867Y-35816000D02*
X63077333Y-35816000D01*
X63369867Y-34796000D02*
X63077333Y-34796000D01*
%TO.C,D4*%
X89055100Y-37333000D02*
X90525100Y-37333000D01*
X90525100Y-37333000D02*
X90525100Y-34873000D01*
X89055100Y-34873000D02*
X89055100Y-37333000D01*
%TO.C,R8*%
X117777824Y-52211500D02*
X117268376Y-52211500D01*
X117777824Y-51166500D02*
X117268376Y-51166500D01*
%TO.C,JP6*%
X112765600Y-61133000D02*
X112765600Y-60533000D01*
X113465600Y-59833000D02*
X114865600Y-59833000D01*
X114865600Y-61833000D02*
X113465600Y-61833000D01*
X115565600Y-60533000D02*
X115565600Y-61133000D01*
X113465600Y-59833000D02*
G75*
G03*
X112765600Y-60533000I-1J-699999D01*
G01*
X112765600Y-61133000D02*
G75*
G03*
X113465600Y-61833000I699999J-1D01*
G01*
X115565600Y-60533000D02*
G75*
G03*
X114865600Y-59833000I-700000J0D01*
G01*
X114865600Y-61833000D02*
G75*
G03*
X115565600Y-61133000I0J700000D01*
G01*
D13*
%TO.C,J7*%
X35654600Y-56460000D02*
X49154600Y-56460000D01*
X35654600Y-65460000D02*
X35654600Y-56460000D01*
X44104600Y-65460000D02*
X35654600Y-65460000D01*
X49154600Y-56460000D02*
X49154600Y-58610000D01*
X49154600Y-63310000D02*
X49154600Y-65460000D01*
X49154600Y-65460000D02*
X48804600Y-65460000D01*
D12*
X51054600Y-60960000D02*
G75*
G03*
X51054600Y-60960000I-100000J0D01*
G01*
D10*
%TO.C,5V*%
X66906600Y-61087000D02*
G75*
G03*
X66906600Y-61087000I-1400000J0D01*
G01*
D14*
%TO.C,R17*%
X106651600Y-45212724D02*
X106651600Y-44703276D01*
X107696600Y-45212724D02*
X107696600Y-44703276D01*
%TO.C,R23*%
X86995376Y-34275500D02*
X87504824Y-34275500D01*
X86995376Y-35320500D02*
X87504824Y-35320500D01*
%TO.C,R12*%
X117834324Y-63514500D02*
X117324876Y-63514500D01*
X117834324Y-62469500D02*
X117324876Y-62469500D01*
%TO.C,Q4*%
X110242600Y-60416000D02*
X108442600Y-60416000D01*
X110242600Y-60416000D02*
X111042600Y-60416000D01*
X110242600Y-63536000D02*
X109442600Y-63536000D01*
X110242600Y-63536000D02*
X111042600Y-63536000D01*
%TO.C,R2*%
X69066324Y-41416500D02*
X68556876Y-41416500D01*
X69066324Y-40371500D02*
X68556876Y-40371500D01*
%TO.C,R6*%
X117866324Y-46496500D02*
X117356876Y-46496500D01*
X117866324Y-45451500D02*
X117356876Y-45451500D01*
%TD*%
M02*
