%TF.GenerationSoftware,KiCad,Pcbnew,7.0.1*%
%TF.CreationDate,2023-04-11T18:42:35+01:00*%
%TF.ProjectId,zigbee-led-controller,7a696762-6565-42d6-9c65-642d636f6e74,1*%
%TF.SameCoordinates,Original*%
%TF.FileFunction,Soldermask,Bot*%
%TF.FilePolarity,Negative*%
%FSLAX46Y46*%
G04 Gerber Fmt 4.6, Leading zero omitted, Abs format (unit mm)*
G04 Created by KiCad (PCBNEW 7.0.1) date 2023-04-11 18:42:35*
%MOMM*%
%LPD*%
G01*
G04 APERTURE LIST*
%ADD10R,1.800000X1.800000*%
%ADD11C,1.800000*%
%ADD12R,1.700000X1.700000*%
%ADD13O,1.700000X1.700000*%
%ADD14C,2.000000*%
%ADD15O,0.800000X0.800000*%
%ADD16O,1.800000X1.150000*%
%ADD17O,2.000000X1.450000*%
%ADD18C,1.397000*%
%ADD19O,2.000000X4.000000*%
%ADD20O,4.000000X2.000000*%
%ADD21C,0.900000*%
%ADD22C,0.700000*%
G04 APERTURE END LIST*
D10*
%TO.C,J4*%
X124206000Y-46228000D03*
D11*
X124206000Y-48768000D03*
X124206000Y-51308000D03*
X124206000Y-53848000D03*
X124206000Y-56388000D03*
%TD*%
D12*
%TO.C,JP2*%
X120016100Y-36068000D03*
D13*
X120016100Y-38608000D03*
X120016100Y-41148000D03*
%TD*%
D14*
%TO.C,SCL*%
X61342100Y-43688000D03*
%TD*%
%TO.C,SDA*%
X66144600Y-43688000D03*
%TD*%
D12*
%TO.C,J2*%
X93218000Y-35814000D03*
D13*
X95758000Y-35814000D03*
%TD*%
D15*
%TO.C,J6*%
X40908100Y-35956000D03*
X40908100Y-40956000D03*
D16*
X38158100Y-34581000D03*
D17*
X41958100Y-34731000D03*
X41958100Y-42181000D03*
D16*
X38158100Y-42331000D03*
%TD*%
D12*
%TO.C,J3*%
X38793100Y-54092000D03*
D13*
X38793100Y-51552000D03*
X38793100Y-49012000D03*
X38793100Y-46472000D03*
%TD*%
D14*
%TO.C,GND*%
X55727600Y-64135000D03*
%TD*%
D12*
%TO.C,JP1*%
X69824600Y-60960000D03*
D13*
X69824600Y-58420000D03*
%TD*%
D14*
%TO.C,3v3*%
X83820000Y-35560000D03*
%TD*%
D12*
%TO.C,J1*%
X81793000Y-64770000D03*
D13*
X79253000Y-64770000D03*
%TD*%
D18*
%TO.C,U2*%
X77889513Y-52497640D03*
X77889513Y-49957640D03*
X80429513Y-52497640D03*
X80429513Y-49957640D03*
X86144513Y-55672640D03*
X84239513Y-55672640D03*
X95669513Y-47417640D03*
X95669513Y-45512640D03*
%TD*%
D12*
%TO.C,J5*%
X38793100Y-39920000D03*
D13*
X38793100Y-37380000D03*
%TD*%
D19*
%TO.C,J7*%
X49254600Y-60960000D03*
D20*
X46454600Y-65560000D03*
D19*
X43154600Y-60960000D03*
%TD*%
D14*
%TO.C,5V*%
X65506600Y-61087000D03*
%TD*%
D21*
X69596000Y-35560000D03*
X83820000Y-40132000D03*
X65786000Y-35306000D03*
X71120000Y-40894000D03*
X70104000Y-37846000D03*
D22*
X89662000Y-38354000D03*
D21*
X107188000Y-53340000D03*
D22*
X71628000Y-65532000D03*
D21*
X107188000Y-59182000D03*
X59182000Y-64262000D03*
D22*
X81381513Y-40640000D03*
X58166000Y-40894000D03*
X58166000Y-37338000D03*
D21*
X107188000Y-47498000D03*
D22*
X60452000Y-35306000D03*
D21*
X107188000Y-64770000D03*
D22*
X58166000Y-37338000D03*
X75438000Y-39624000D03*
X53086000Y-56134000D03*
X61468000Y-56642000D03*
X77216000Y-60960000D03*
X76454000Y-61468000D03*
X94234000Y-54864000D03*
X98044000Y-44958000D03*
X72009000Y-52705000D03*
X69824600Y-54889400D03*
D21*
X40386000Y-37338000D03*
D22*
X49784000Y-35560000D03*
X70358000Y-46736000D03*
X70358000Y-46736000D03*
X64135000Y-39497000D03*
X70993000Y-45085000D03*
X74168000Y-58420000D03*
M02*
