%TF.GenerationSoftware,KiCad,Pcbnew,7.0.1*%
%TF.CreationDate,2023-04-11T18:42:34+01:00*%
%TF.ProjectId,zigbee-led-controller,7a696762-6565-42d6-9c65-642d636f6e74,1*%
%TF.SameCoordinates,Original*%
%TF.FileFunction,Copper,L1,Top*%
%TF.FilePolarity,Positive*%
%FSLAX46Y46*%
G04 Gerber Fmt 4.6, Leading zero omitted, Abs format (unit mm)*
G04 Created by KiCad (PCBNEW 7.0.1) date 2023-04-11 18:42:34*
%MOMM*%
%LPD*%
G01*
G04 APERTURE LIST*
G04 Aperture macros list*
%AMRoundRect*
0 Rectangle with rounded corners*
0 $1 Rounding radius*
0 $2 $3 $4 $5 $6 $7 $8 $9 X,Y pos of 4 corners*
0 Add a 4 corners polygon primitive as box body*
4,1,4,$2,$3,$4,$5,$6,$7,$8,$9,$2,$3,0*
0 Add four circle primitives for the rounded corners*
1,1,$1+$1,$2,$3*
1,1,$1+$1,$4,$5*
1,1,$1+$1,$6,$7*
1,1,$1+$1,$8,$9*
0 Add four rect primitives between the rounded corners*
20,1,$1+$1,$2,$3,$4,$5,0*
20,1,$1+$1,$4,$5,$6,$7,0*
20,1,$1+$1,$6,$7,$8,$9,0*
20,1,$1+$1,$8,$9,$2,$3,0*%
%AMFreePoly0*
4,1,19,0.500000,-0.750000,0.000000,-0.750000,0.000000,-0.744911,-0.071157,-0.744911,-0.207708,-0.704816,-0.327430,-0.627875,-0.420627,-0.520320,-0.479746,-0.390866,-0.500000,-0.250000,-0.500000,0.250000,-0.479746,0.390866,-0.420627,0.520320,-0.327430,0.627875,-0.207708,0.704816,-0.071157,0.744911,0.000000,0.744911,0.000000,0.750000,0.500000,0.750000,0.500000,-0.750000,0.500000,-0.750000,
$1*%
%AMFreePoly1*
4,1,19,0.000000,0.744911,0.071157,0.744911,0.207708,0.704816,0.327430,0.627875,0.420627,0.520320,0.479746,0.390866,0.500000,0.250000,0.500000,-0.250000,0.479746,-0.390866,0.420627,-0.520320,0.327430,-0.627875,0.207708,-0.704816,0.071157,-0.744911,0.000000,-0.744911,0.000000,-0.750000,-0.500000,-0.750000,-0.500000,0.750000,0.000000,0.750000,0.000000,0.744911,0.000000,0.744911,
$1*%
G04 Aperture macros list end*
%TA.AperFunction,ComponentPad*%
%ADD10R,1.800000X1.800000*%
%TD*%
%TA.AperFunction,ComponentPad*%
%ADD11C,1.800000*%
%TD*%
%TA.AperFunction,SMDPad,CuDef*%
%ADD12R,1.700000X0.800000*%
%TD*%
%TA.AperFunction,SMDPad,CuDef*%
%ADD13FreePoly0,0.000000*%
%TD*%
%TA.AperFunction,SMDPad,CuDef*%
%ADD14FreePoly1,0.000000*%
%TD*%
%TA.AperFunction,SMDPad,CuDef*%
%ADD15RoundRect,0.237500X-0.287500X-0.237500X0.287500X-0.237500X0.287500X0.237500X-0.287500X0.237500X0*%
%TD*%
%TA.AperFunction,ComponentPad*%
%ADD16R,1.700000X1.700000*%
%TD*%
%TA.AperFunction,ComponentPad*%
%ADD17O,1.700000X1.700000*%
%TD*%
%TA.AperFunction,SMDPad,CuDef*%
%ADD18R,1.854500X2.286000*%
%TD*%
%TA.AperFunction,SMDPad,CuDef*%
%ADD19RoundRect,0.237500X0.250000X0.237500X-0.250000X0.237500X-0.250000X-0.237500X0.250000X-0.237500X0*%
%TD*%
%TA.AperFunction,SMDPad,CuDef*%
%ADD20RoundRect,0.150000X-0.825000X-0.150000X0.825000X-0.150000X0.825000X0.150000X-0.825000X0.150000X0*%
%TD*%
%TA.AperFunction,ComponentPad*%
%ADD21C,2.000000*%
%TD*%
%TA.AperFunction,SMDPad,CuDef*%
%ADD22RoundRect,0.237500X0.237500X-0.250000X0.237500X0.250000X-0.237500X0.250000X-0.237500X-0.250000X0*%
%TD*%
%TA.AperFunction,SMDPad,CuDef*%
%ADD23RoundRect,0.237500X-0.237500X0.250000X-0.237500X-0.250000X0.237500X-0.250000X0.237500X0.250000X0*%
%TD*%
%TA.AperFunction,SMDPad,CuDef*%
%ADD24R,1.300000X0.450000*%
%TD*%
%TA.AperFunction,ComponentPad*%
%ADD25O,1.800000X1.150000*%
%TD*%
%TA.AperFunction,ComponentPad*%
%ADD26O,2.000000X1.450000*%
%TD*%
%TA.AperFunction,SMDPad,CuDef*%
%ADD27RoundRect,0.237500X0.237500X-0.287500X0.237500X0.287500X-0.237500X0.287500X-0.237500X-0.287500X0*%
%TD*%
%TA.AperFunction,SMDPad,CuDef*%
%ADD28RoundRect,0.150000X-0.512500X-0.150000X0.512500X-0.150000X0.512500X0.150000X-0.512500X0.150000X0*%
%TD*%
%TA.AperFunction,SMDPad,CuDef*%
%ADD29RoundRect,0.237500X0.300000X0.237500X-0.300000X0.237500X-0.300000X-0.237500X0.300000X-0.237500X0*%
%TD*%
%TA.AperFunction,SMDPad,CuDef*%
%ADD30RoundRect,0.250000X0.337500X0.475000X-0.337500X0.475000X-0.337500X-0.475000X0.337500X-0.475000X0*%
%TD*%
%TA.AperFunction,SMDPad,CuDef*%
%ADD31RoundRect,0.250000X-0.337500X-0.475000X0.337500X-0.475000X0.337500X0.475000X-0.337500X0.475000X0*%
%TD*%
%TA.AperFunction,SMDPad,CuDef*%
%ADD32FreePoly0,270.000000*%
%TD*%
%TA.AperFunction,SMDPad,CuDef*%
%ADD33FreePoly1,270.000000*%
%TD*%
%TA.AperFunction,SMDPad,CuDef*%
%ADD34O,1.800000X2.750000*%
%TD*%
%TA.AperFunction,ComponentPad*%
%ADD35C,1.397000*%
%TD*%
%TA.AperFunction,ComponentPad*%
%ADD36O,2.000000X4.000000*%
%TD*%
%TA.AperFunction,ComponentPad*%
%ADD37O,4.000000X2.000000*%
%TD*%
%TA.AperFunction,SMDPad,CuDef*%
%ADD38RoundRect,0.237500X-0.250000X-0.237500X0.250000X-0.237500X0.250000X0.237500X-0.250000X0.237500X0*%
%TD*%
%TA.AperFunction,ViaPad*%
%ADD39C,0.900000*%
%TD*%
%TA.AperFunction,ViaPad*%
%ADD40C,0.700000*%
%TD*%
%TA.AperFunction,Conductor*%
%ADD41C,0.400000*%
%TD*%
%TA.AperFunction,Conductor*%
%ADD42C,0.600000*%
%TD*%
%TA.AperFunction,Conductor*%
%ADD43C,0.800000*%
%TD*%
%TA.AperFunction,Conductor*%
%ADD44C,1.000000*%
%TD*%
G04 APERTURE END LIST*
D10*
%TO.P,J4,1,Pin_1*%
%TO.N,/V_LED*%
X124206000Y-46228000D03*
D11*
%TO.P,J4,2,Pin_2*%
%TO.N,Net-(J4-Pin_2)*%
X124206000Y-48768000D03*
%TO.P,J4,3,Pin_3*%
%TO.N,Net-(J4-Pin_3)*%
X124206000Y-51308000D03*
%TO.P,J4,4,Pin_4*%
%TO.N,Net-(J4-Pin_4)*%
X124206000Y-53848000D03*
%TO.P,J4,5,Pin_5*%
%TO.N,Net-(J4-Pin_5)*%
X124206000Y-56388000D03*
%TD*%
D12*
%TO.P,RST,1*%
%TO.N,/RESETn*%
X74168000Y-61624000D03*
%TO.P,RST,2*%
%TO.N,GND*%
X74168000Y-65024000D03*
%TD*%
D13*
%TO.P,JP3,1,A*%
%TO.N,Net-(JP3-A)*%
X113509100Y-43815000D03*
D14*
%TO.P,JP3,2,B*%
%TO.N,Net-(JP3-B)*%
X114809100Y-43815000D03*
%TD*%
D15*
%TO.P,D3,1,K*%
%TO.N,GND*%
X75453100Y-38100000D03*
%TO.P,D3,2,A*%
%TO.N,Net-(D3-A)*%
X77203100Y-38100000D03*
%TD*%
D16*
%TO.P,JP2,1,A*%
%TO.N,+12V*%
X120016100Y-36068000D03*
D17*
%TO.P,JP2,2,C*%
%TO.N,/V_LED*%
X120016100Y-38608000D03*
%TO.P,JP2,3,B*%
%TO.N,+5V*%
X120016100Y-41148000D03*
%TD*%
D18*
%TO.P,L1,1,1*%
%TO.N,Net-(U3-SW)*%
X59296350Y-56642000D03*
%TO.P,L1,2,2*%
%TO.N,+5VD*%
X63080850Y-56642000D03*
%TD*%
D19*
%TO.P,R14,1*%
%TO.N,Net-(Q2-G)*%
X104188100Y-49784000D03*
%TO.P,R14,2*%
%TO.N,/G_LED_d*%
X102363100Y-49784000D03*
%TD*%
D20*
%TO.P,U1,1,A0*%
%TO.N,GND*%
X60813600Y-36957000D03*
%TO.P,U1,2,A1*%
X60813600Y-38227000D03*
%TO.P,U1,3,A2*%
X60813600Y-39497000D03*
%TO.P,U1,4,GND*%
X60813600Y-40767000D03*
%TO.P,U1,5,SDA*%
%TO.N,/SDA*%
X65763600Y-40767000D03*
%TO.P,U1,6,SCL*%
%TO.N,/SCL*%
X65763600Y-39497000D03*
%TO.P,U1,7,WP*%
%TO.N,/WP*%
X65763600Y-38227000D03*
%TO.P,U1,8,VCC*%
%TO.N,+3V3*%
X65763600Y-36957000D03*
%TD*%
D21*
%TO.P,SCL,1,1*%
%TO.N,/SCL*%
X61342100Y-43688000D03*
%TD*%
D19*
%TO.P,R7,1*%
%TO.N,Net-(JP4-B)*%
X114983100Y-51689000D03*
%TO.P,R7,2*%
%TO.N,Net-(JP4-A)*%
X113158100Y-51689000D03*
%TD*%
D21*
%TO.P,SDA,1,1*%
%TO.N,/SDA*%
X66144600Y-43688000D03*
%TD*%
D22*
%TO.P,R20,1*%
%TO.N,GND*%
X107189100Y-62912000D03*
%TO.P,R20,2*%
%TO.N,Net-(Q4-G)*%
X107189100Y-61087000D03*
%TD*%
D16*
%TO.P,J2,1,Pin_1*%
%TO.N,/RX*%
X93218000Y-35814000D03*
D17*
%TO.P,J2,2,Pin_2*%
%TO.N,/TX*%
X95758000Y-35814000D03*
%TD*%
D23*
%TO.P,R4,1*%
%TO.N,Net-(D1-A)*%
X86361100Y-37532250D03*
%TO.P,R4,2*%
%TO.N,/LED_1*%
X86361100Y-39357250D03*
%TD*%
D13*
%TO.P,JP5,1,A*%
%TO.N,Net-(JP5-A)*%
X113532600Y-55245000D03*
D14*
%TO.P,JP5,2,B*%
%TO.N,Net-(JP5-B)*%
X114832600Y-55245000D03*
%TD*%
D24*
%TO.P,J6,1,VBUS*%
%TO.N,Net-(J6-VBUS)*%
X42008100Y-37156000D03*
%TO.P,J6,2,D-*%
%TO.N,Net-(J6-D-)*%
X42008100Y-37806000D03*
%TO.P,J6,3,D+*%
%TO.N,Net-(J6-D+)*%
X42008100Y-38456000D03*
%TO.P,J6,4,ID*%
%TO.N,unconnected-(J6-ID-Pad4)*%
X42008100Y-39106000D03*
%TO.P,J6,5,GND*%
%TO.N,GND*%
X42008100Y-39756000D03*
D25*
%TO.P,J6,6,Shield*%
X38158100Y-34581000D03*
D26*
X41958100Y-34731000D03*
X41958100Y-42181000D03*
D25*
X38158100Y-42331000D03*
%TD*%
D19*
%TO.P,R3,1*%
%TO.N,+3V3*%
X69724100Y-39370000D03*
%TO.P,R3,2*%
%TO.N,/SCL*%
X67899100Y-39370000D03*
%TD*%
%TO.P,R10,1*%
%TO.N,Net-(J4-Pin_4)*%
X118562600Y-57404000D03*
%TO.P,R10,2*%
%TO.N,Net-(JP5-B)*%
X116737600Y-57404000D03*
%TD*%
D22*
%TO.P,R19,1*%
%TO.N,GND*%
X107259600Y-57300500D03*
%TO.P,R19,2*%
%TO.N,Net-(Q3-G)*%
X107259600Y-55475500D03*
%TD*%
D27*
%TO.P,D1,1,K*%
%TO.N,GND*%
X81535100Y-39216250D03*
%TO.P,D1,2,A*%
%TO.N,Net-(D1-A)*%
X81535100Y-37466250D03*
%TD*%
D16*
%TO.P,J3,1,Pin_1*%
%TO.N,GND*%
X38793100Y-54092000D03*
D17*
%TO.P,J3,2,Pin_2*%
X38793100Y-51552000D03*
%TO.P,J3,3,Pin_3*%
%TO.N,+12V*%
X38793100Y-49012000D03*
%TO.P,J3,4,Pin_4*%
X38793100Y-46472000D03*
%TD*%
D28*
%TO.P,Q3,1,G*%
%TO.N,Net-(Q3-G)*%
X109175600Y-55438000D03*
%TO.P,Q3,2,S*%
%TO.N,GND*%
X109175600Y-57338000D03*
%TO.P,Q3,3,D*%
%TO.N,Net-(JP5-A)*%
X111450600Y-56388000D03*
%TD*%
D19*
%TO.P,R11,1*%
%TO.N,Net-(JP6-B)*%
X115063100Y-62992000D03*
%TO.P,R11,2*%
%TO.N,Net-(JP6-A)*%
X113238100Y-62992000D03*
%TD*%
D29*
%TO.P,C2,1*%
%TO.N,Net-(U3-SW)*%
X56971100Y-54483000D03*
%TO.P,C2,2*%
%TO.N,Net-(U3-BST)*%
X55246100Y-54483000D03*
%TD*%
D21*
%TO.P,GND,1,1*%
%TO.N,GND*%
X55727600Y-64135000D03*
%TD*%
D30*
%TO.P,C4,1*%
%TO.N,+5VD*%
X61188600Y-60037000D03*
%TO.P,C4,2*%
%TO.N,GND*%
X59113600Y-60037000D03*
%TD*%
D16*
%TO.P,JP1,1,A*%
%TO.N,+5VD*%
X69824600Y-60960000D03*
D17*
%TO.P,JP1,2,B*%
%TO.N,+5V*%
X69824600Y-58420000D03*
%TD*%
D27*
%TO.P,D2,1,K*%
%TO.N,GND*%
X52806600Y-65541500D03*
%TO.P,D2,2,A*%
%TO.N,Net-(D2-A)*%
X52806600Y-63791500D03*
%TD*%
D28*
%TO.P,Q2,1,G*%
%TO.N,Net-(Q2-G)*%
X109001600Y-49723000D03*
%TO.P,Q2,2,S*%
%TO.N,GND*%
X109001600Y-51623000D03*
%TO.P,Q2,3,D*%
%TO.N,Net-(JP4-A)*%
X111276600Y-50673000D03*
%TD*%
D13*
%TO.P,JP4,1,A*%
%TO.N,Net-(JP4-A)*%
X113435600Y-49403000D03*
D14*
%TO.P,JP4,2,B*%
%TO.N,Net-(JP4-B)*%
X114735600Y-49403000D03*
%TD*%
D21*
%TO.P,3v3,1,1*%
%TO.N,+3V3*%
X83820000Y-35560000D03*
%TD*%
D16*
%TO.P,J1,1,Pin_1*%
%TO.N,/SWDIO*%
X81793000Y-64770000D03*
D17*
%TO.P,J1,2,Pin_2*%
%TO.N,/SWCLK*%
X79253000Y-64770000D03*
%TD*%
D28*
%TO.P,Q1,1,G*%
%TO.N,Net-(Q1-G)*%
X109084600Y-44008000D03*
%TO.P,Q1,2,S*%
%TO.N,GND*%
X109084600Y-45908000D03*
%TO.P,Q1,3,D*%
%TO.N,Net-(JP3-A)*%
X111359600Y-44958000D03*
%TD*%
D31*
%TO.P,C5,1*%
%TO.N,+12V*%
X54563100Y-60071000D03*
%TO.P,C5,2*%
%TO.N,GND*%
X56638100Y-60071000D03*
%TD*%
D19*
%TO.P,R5,1*%
%TO.N,Net-(JP3-B)*%
X115071600Y-45974000D03*
%TO.P,R5,2*%
%TO.N,Net-(JP3-A)*%
X113246600Y-45974000D03*
%TD*%
%TO.P,R9,1*%
%TO.N,Net-(JP5-B)*%
X115133600Y-57404000D03*
%TO.P,R9,2*%
%TO.N,Net-(JP5-A)*%
X113308600Y-57404000D03*
%TD*%
D22*
%TO.P,R18,1*%
%TO.N,GND*%
X107085600Y-51609000D03*
%TO.P,R18,2*%
%TO.N,Net-(Q2-G)*%
X107085600Y-49784000D03*
%TD*%
D32*
%TO.P,JP7,1,A*%
%TO.N,Net-(J6-D-)*%
X45651100Y-38045000D03*
D33*
%TO.P,JP7,2,B*%
%TO.N,Net-(J6-D+)*%
X45651100Y-39345000D03*
%TD*%
D19*
%TO.P,R15,1*%
%TO.N,Net-(Q3-G)*%
X104235100Y-55499000D03*
%TO.P,R15,2*%
%TO.N,/B_LED_d*%
X102410100Y-55499000D03*
%TD*%
%TO.P,R16,1*%
%TO.N,Net-(Q4-G)*%
X104164600Y-61087000D03*
%TO.P,R16,2*%
%TO.N,/W_LED_d*%
X102339600Y-61087000D03*
%TD*%
D22*
%TO.P,R22,1*%
%TO.N,+5V*%
X78868100Y-40536500D03*
%TO.P,R22,2*%
%TO.N,Net-(D3-A)*%
X78868100Y-38711500D03*
%TD*%
D34*
%TO.P,U2,1,A2/0.02_H*%
%TO.N,/WP*%
X78841513Y-59322600D03*
%TO.P,U2,2,A4/0.03_H*%
%TO.N,/W_LED_d*%
X81381513Y-59322600D03*
%TO.P,U2,3,A10/0.28*%
%TO.N,/B_LED_d*%
X83921513Y-59322600D03*
%TO.P,U2,4,A11/0.29*%
%TO.N,/G_LED_d*%
X86461513Y-59322600D03*
%TO.P,U2,5,A8_SDA/0.04_H*%
%TO.N,/SDA*%
X89001513Y-59322600D03*
%TO.P,U2,6,A9_SCL/0.05_H*%
%TO.N,/SCL*%
X91541513Y-59322600D03*
%TO.P,U2,7,B8_TX/1.11*%
%TO.N,/TX*%
X94081513Y-59322600D03*
%TO.P,U2,8,B9_RX/1.12*%
%TO.N,/RX*%
X94081513Y-43132680D03*
%TO.P,U2,9,A7_SCK/1.13*%
%TO.N,/R_LED_d*%
X91541513Y-43132680D03*
%TO.P,U2,10,A5_MISO/1.14*%
%TO.N,unconnected-(U2-A5_MISO{slash}1.14-Pad10)*%
X89001513Y-43132680D03*
%TO.P,U2,11,A6_MOSI/1.15*%
%TO.N,/LED_1*%
X86461513Y-43132680D03*
%TO.P,U2,12,3V3*%
%TO.N,+3V3*%
X83921513Y-43132680D03*
%TO.P,U2,13,GND*%
%TO.N,GND*%
X81381513Y-43132680D03*
%TO.P,U2,14,5V*%
%TO.N,+5V*%
X78841513Y-43132680D03*
D35*
%TO.P,U2,15,A31_SWDIO*%
%TO.N,/SWDIO*%
X77889513Y-52497640D03*
%TO.P,U2,16,A30_SWCLK*%
%TO.N,/SWCLK*%
X77889513Y-49957640D03*
%TO.P,U2,17,RESET*%
%TO.N,/RESETn*%
X80429513Y-52497640D03*
%TO.P,U2,18,GND*%
%TO.N,GND*%
X80429513Y-49957640D03*
%TO.P,U2,19,BAT*%
%TO.N,unconnected-(U2-BAT-Pad19)*%
X86144513Y-55672640D03*
%TO.P,U2,20,GND*%
%TO.N,GND*%
X84239513Y-55672640D03*
%TO.P,U2,21,NFC1/0.09_H*%
%TO.N,unconnected-(U2-NFC1{slash}0.09_H-Pad21)*%
X95669513Y-47417640D03*
%TO.P,U2,22,NFC2/0.10_H*%
%TO.N,unconnected-(U2-NFC2{slash}0.10_H-Pad22)*%
X95669513Y-45512640D03*
%TD*%
D13*
%TO.P,JP8,1,A*%
%TO.N,Net-(J6-VBUS)*%
X46848000Y-35560000D03*
D14*
%TO.P,JP8,2,B*%
%TO.N,+5V*%
X48148000Y-35560000D03*
%TD*%
D16*
%TO.P,J5,1,Pin_1*%
%TO.N,GND*%
X38793100Y-39920000D03*
D17*
%TO.P,J5,2,Pin_2*%
%TO.N,+5V*%
X38793100Y-37380000D03*
%TD*%
D28*
%TO.P,U3,1,FB*%
%TO.N,+5VD*%
X54595600Y-56139000D03*
%TO.P,U3,2,EN*%
%TO.N,+12V*%
X54595600Y-57089000D03*
%TO.P,U3,3,IN*%
X54595600Y-58039000D03*
%TO.P,U3,4,GND*%
%TO.N,GND*%
X56870600Y-58039000D03*
%TO.P,U3,5,SW*%
%TO.N,Net-(U3-SW)*%
X56870600Y-57089000D03*
%TO.P,U3,6,BST*%
%TO.N,Net-(U3-BST)*%
X56870600Y-56139000D03*
%TD*%
D19*
%TO.P,R13,1*%
%TO.N,Net-(Q1-G)*%
X104276600Y-44069000D03*
%TO.P,R13,2*%
%TO.N,/R_LED_d*%
X102451600Y-44069000D03*
%TD*%
D23*
%TO.P,R1,1*%
%TO.N,+3V3*%
X67795600Y-35513000D03*
%TO.P,R1,2*%
%TO.N,/WP*%
X67795600Y-37338000D03*
%TD*%
%TO.P,R21,1*%
%TO.N,+12V*%
X52806600Y-60198000D03*
%TO.P,R21,2*%
%TO.N,Net-(D2-A)*%
X52806600Y-62023000D03*
%TD*%
D30*
%TO.P,C3,1*%
%TO.N,+5VD*%
X61188600Y-62357000D03*
%TO.P,C3,2*%
%TO.N,GND*%
X59113600Y-62357000D03*
%TD*%
D29*
%TO.P,C1,1*%
%TO.N,+3V3*%
X64086100Y-35306000D03*
%TO.P,C1,2*%
%TO.N,GND*%
X62361100Y-35306000D03*
%TD*%
D27*
%TO.P,D4,1,K*%
%TO.N,GND*%
X89790100Y-36548000D03*
%TO.P,D4,2,A*%
%TO.N,Net-(D4-A)*%
X89790100Y-34798000D03*
%TD*%
D19*
%TO.P,R8,1*%
%TO.N,Net-(J4-Pin_3)*%
X118435600Y-51689000D03*
%TO.P,R8,2*%
%TO.N,Net-(JP4-B)*%
X116610600Y-51689000D03*
%TD*%
D13*
%TO.P,JP6,1,A*%
%TO.N,Net-(JP6-A)*%
X113515600Y-60833000D03*
D14*
%TO.P,JP6,2,B*%
%TO.N,Net-(JP6-B)*%
X114815600Y-60833000D03*
%TD*%
D36*
%TO.P,J7,1*%
%TO.N,+12V*%
X49254600Y-60960000D03*
D37*
%TO.P,J7,2*%
%TO.N,GND*%
X46454600Y-65560000D03*
D36*
%TO.P,J7,3*%
%TO.N,unconnected-(J7-Pad3)*%
X43154600Y-60960000D03*
%TD*%
D21*
%TO.P,5V,1,1*%
%TO.N,+5VD*%
X65506600Y-61087000D03*
%TD*%
D22*
%TO.P,R17,1*%
%TO.N,GND*%
X107174100Y-45870500D03*
%TO.P,R17,2*%
%TO.N,Net-(Q1-G)*%
X107174100Y-44045500D03*
%TD*%
D38*
%TO.P,R23,1*%
%TO.N,+3V3*%
X86337600Y-34798000D03*
%TO.P,R23,2*%
%TO.N,Net-(D4-A)*%
X88162600Y-34798000D03*
%TD*%
D19*
%TO.P,R12,1*%
%TO.N,Net-(J4-Pin_5)*%
X118492100Y-62992000D03*
%TO.P,R12,2*%
%TO.N,Net-(JP6-B)*%
X116667100Y-62992000D03*
%TD*%
D28*
%TO.P,Q4,1,G*%
%TO.N,Net-(Q4-G)*%
X109105100Y-61026000D03*
%TO.P,Q4,2,S*%
%TO.N,GND*%
X109105100Y-62926000D03*
%TO.P,Q4,3,D*%
%TO.N,Net-(JP6-A)*%
X111380100Y-61976000D03*
%TD*%
D19*
%TO.P,R2,1*%
%TO.N,+3V3*%
X69724100Y-40894000D03*
%TO.P,R2,2*%
%TO.N,/SDA*%
X67899100Y-40894000D03*
%TD*%
%TO.P,R6,1*%
%TO.N,Net-(J4-Pin_2)*%
X118524100Y-45974000D03*
%TO.P,R6,2*%
%TO.N,Net-(JP3-B)*%
X116699100Y-45974000D03*
%TD*%
D39*
%TO.N,+3V3*%
X69596000Y-35560000D03*
X83820000Y-40132000D03*
X65786000Y-35306000D03*
X71120000Y-40894000D03*
X70104000Y-37846000D03*
D40*
%TO.N,GND*%
X89662000Y-38354000D03*
D39*
X107188000Y-53340000D03*
D40*
X71628000Y-65532000D03*
D39*
X107188000Y-59182000D03*
X59182000Y-64262000D03*
D40*
X81381513Y-40640000D03*
X58166000Y-40894000D03*
X58166000Y-37338000D03*
D39*
X107188000Y-47498000D03*
D40*
X60452000Y-35306000D03*
D39*
X107188000Y-64770000D03*
D40*
X58166000Y-37338000D03*
X75438000Y-39624000D03*
%TO.N,+5VD*%
X53086000Y-56134000D03*
X61468000Y-56642000D03*
%TO.N,/SWDIO*%
X77216000Y-60960000D03*
%TO.N,/SWCLK*%
X76454000Y-61468000D03*
%TO.N,/TX*%
X94234000Y-54864000D03*
X98044000Y-44958000D03*
%TO.N,+5V*%
X72009000Y-52705000D03*
X69824600Y-54889400D03*
D39*
X40386000Y-37338000D03*
D40*
X49784000Y-35560000D03*
%TO.N,/SDA*%
X70358000Y-46736000D03*
X70358000Y-46736000D03*
%TO.N,/SCL*%
X64135000Y-39497000D03*
X70993000Y-45085000D03*
%TO.N,/RESETn*%
X74168000Y-58420000D03*
%TD*%
D41*
%TO.N,/WP*%
X77323600Y-59797600D02*
X78841513Y-59797600D01*
%TO.N,/W_LED_d*%
X81381513Y-61569513D02*
X81381513Y-59797600D01*
D42*
%TO.N,+5V*%
X69824600Y-54889400D02*
X64236600Y-49301400D01*
X64236600Y-49301400D02*
X59207400Y-49301400D01*
X59207400Y-49301400D02*
X56642000Y-46736000D01*
X56642000Y-46736000D02*
X56642000Y-41910000D01*
X50292000Y-35560000D02*
X49784000Y-35560000D01*
X56642000Y-41910000D02*
X50292000Y-35560000D01*
%TO.N,Net-(J6-VBUS)*%
X46848000Y-35560000D02*
X44450000Y-35560000D01*
D41*
X42008100Y-37156000D02*
X42854000Y-37156000D01*
D42*
X42854000Y-37156000D02*
X44450000Y-35560000D01*
D41*
%TO.N,GND*%
X42008100Y-39756000D02*
X42008100Y-42131000D01*
X42008100Y-42131000D02*
X41958100Y-42181000D01*
D43*
%TO.N,Net-(J4-Pin_2)*%
X118524100Y-45974000D02*
X119888000Y-45974000D01*
X119888000Y-45974000D02*
X122682000Y-48768000D01*
X122682000Y-48768000D02*
X124206000Y-48768000D01*
%TO.N,Net-(J4-Pin_4)*%
X118562600Y-57404000D02*
X118562600Y-57332400D01*
X118562600Y-57332400D02*
X122047000Y-53848000D01*
X122047000Y-53848000D02*
X124206000Y-53848000D01*
%TO.N,Net-(J4-Pin_5)*%
X118492100Y-62992000D02*
X118492100Y-61085900D01*
X118492100Y-61085900D02*
X123190000Y-56388000D01*
X123190000Y-56388000D02*
X124206000Y-56388000D01*
%TO.N,Net-(J4-Pin_3)*%
X118435600Y-51689000D02*
X122555000Y-51689000D01*
X122555000Y-51689000D02*
X124206000Y-51308000D01*
D41*
%TO.N,/RESETn*%
X74168000Y-61624000D02*
X74168000Y-58420000D01*
%TO.N,GND*%
X71628000Y-65532000D02*
X73660000Y-65532000D01*
X73660000Y-65532000D02*
X74168000Y-65024000D01*
%TO.N,+3V3*%
X83921513Y-40233513D02*
X83820000Y-40132000D01*
D42*
X64086100Y-35306000D02*
X65786000Y-35306000D01*
D41*
X86337600Y-34798000D02*
X83833850Y-34798000D01*
D42*
X69724100Y-40894000D02*
X71120000Y-40894000D01*
X65763600Y-36957000D02*
X65763600Y-35328400D01*
X69724100Y-39370000D02*
X69724100Y-38225900D01*
D41*
X83833850Y-34798000D02*
X83821100Y-34785250D01*
X83921513Y-42657680D02*
X83821100Y-42557267D01*
D42*
X65763600Y-35328400D02*
X65786000Y-35306000D01*
X83921513Y-42657680D02*
X83921513Y-40233513D01*
X69549000Y-35513000D02*
X69596000Y-35560000D01*
X69724100Y-38225900D02*
X70104000Y-37846000D01*
X67795600Y-35513000D02*
X69549000Y-35513000D01*
%TO.N,GND*%
X54321100Y-65541500D02*
X55727600Y-64135000D01*
X59113600Y-64193600D02*
X59182000Y-64262000D01*
X56870600Y-59838500D02*
X56638100Y-60071000D01*
D43*
X107259600Y-57300500D02*
X107259600Y-59110400D01*
X56638100Y-60071000D02*
X59079600Y-60071000D01*
X107174100Y-45870500D02*
X107174100Y-47484100D01*
X56870600Y-58039000D02*
X56870600Y-59838500D01*
D42*
X58293000Y-40767000D02*
X58166000Y-40894000D01*
X58293000Y-39497000D02*
X58166000Y-39370000D01*
D43*
X109105100Y-62926000D02*
X107203100Y-62926000D01*
X107297100Y-57338000D02*
X107259600Y-57300500D01*
D42*
X60813600Y-36957000D02*
X58547000Y-36957000D01*
D41*
X41808100Y-34581000D02*
X41958100Y-34731000D01*
D42*
X58166000Y-40894000D02*
X58166000Y-39624000D01*
D43*
X55727600Y-64135000D02*
X59055000Y-64135000D01*
X59113600Y-62357000D02*
X59113600Y-64193600D01*
D42*
X62361100Y-35306000D02*
X62361100Y-35409500D01*
X81381513Y-39369837D02*
X81535100Y-39216250D01*
X52806600Y-65541500D02*
X54321100Y-65541500D01*
X59079600Y-60071000D02*
X59113600Y-60037000D01*
X62361100Y-35306000D02*
X60452000Y-35306000D01*
X60813600Y-40767000D02*
X58293000Y-40767000D01*
D43*
X107259600Y-59110400D02*
X107188000Y-59182000D01*
X107189100Y-64768900D02*
X107188000Y-64770000D01*
D41*
X89790100Y-38225900D02*
X89662000Y-38354000D01*
D43*
X107085600Y-51609000D02*
X107085600Y-53237600D01*
D42*
X60813600Y-38227000D02*
X58801000Y-38227000D01*
D43*
X109084600Y-45908000D02*
X107211600Y-45908000D01*
D41*
X75453100Y-39608900D02*
X75438000Y-39624000D01*
D43*
X107174100Y-47484100D02*
X107188000Y-47498000D01*
D42*
X58166000Y-38862000D02*
X58166000Y-39370000D01*
D41*
X38308100Y-42181000D02*
X38158100Y-42331000D01*
X89790100Y-36548000D02*
X89790100Y-38225900D01*
D43*
X107085600Y-51609000D02*
X108987600Y-51609000D01*
X109175600Y-57338000D02*
X107297100Y-57338000D01*
D41*
X75453100Y-38100000D02*
X75453100Y-39608900D01*
D43*
X107189100Y-62912000D02*
X107189100Y-64768900D01*
X59113600Y-62357000D02*
X59113600Y-60037000D01*
X107203100Y-62926000D02*
X107189100Y-62912000D01*
X107085600Y-53237600D02*
X107188000Y-53340000D01*
D42*
X58166000Y-37338000D02*
X58166000Y-39624000D01*
D43*
X108987600Y-51609000D02*
X109001600Y-51623000D01*
X107211600Y-45908000D02*
X107174100Y-45870500D01*
D42*
X59055000Y-64135000D02*
X59182000Y-64262000D01*
X60813600Y-39497000D02*
X58293000Y-39497000D01*
X58166000Y-39624000D02*
X58166000Y-39370000D01*
X58801000Y-38227000D02*
X58166000Y-38862000D01*
X58547000Y-36957000D02*
X58166000Y-37338000D01*
X81381513Y-42657680D02*
X81381513Y-39369837D01*
D41*
%TO.N,Net-(U3-SW)*%
X59296350Y-55740350D02*
X59296350Y-56642000D01*
D43*
X56870600Y-57089000D02*
X58849350Y-57089000D01*
D42*
X56971100Y-54483000D02*
X58039000Y-54483000D01*
X58039000Y-54483000D02*
X59296350Y-55740350D01*
X58849350Y-57089000D02*
X59296350Y-56642000D01*
%TO.N,Net-(U3-BST)*%
X55626000Y-54862900D02*
X55246100Y-54483000D01*
D41*
X56870600Y-56139000D02*
X56393000Y-56139000D01*
D42*
X55626000Y-55372000D02*
X55626000Y-54862900D01*
X56393000Y-56139000D02*
X55626000Y-55372000D01*
D43*
%TO.N,+5VD*%
X63080850Y-56642000D02*
X63080850Y-59347150D01*
D41*
X53091000Y-56139000D02*
X53086000Y-56134000D01*
D42*
X54595600Y-56139000D02*
X53091000Y-56139000D01*
X69697600Y-61087000D02*
X69824600Y-60960000D01*
D43*
X63080850Y-56642000D02*
X63080850Y-59524850D01*
X61188600Y-60037000D02*
X61188600Y-62357000D01*
X63080850Y-59524850D02*
X64643000Y-61087000D01*
X65506600Y-61087000D02*
X69697600Y-61087000D01*
D42*
X63080850Y-56642000D02*
X61468000Y-56642000D01*
D43*
X64643000Y-61087000D02*
X65506600Y-61087000D01*
X62391000Y-60037000D02*
X61188600Y-60037000D01*
X63080850Y-59347150D02*
X62391000Y-60037000D01*
D42*
%TO.N,+12V*%
X53086000Y-58166000D02*
X54468600Y-58166000D01*
D44*
X50546000Y-60198000D02*
X52806600Y-60198000D01*
D42*
X54595600Y-58039000D02*
X54595600Y-57089000D01*
D44*
X49254600Y-60960000D02*
X49784000Y-60960000D01*
X52806600Y-60198000D02*
X54436100Y-60198000D01*
D42*
X52806600Y-60198000D02*
X52806600Y-58445400D01*
X52806600Y-58445400D02*
X53086000Y-58166000D01*
D44*
X49784000Y-60960000D02*
X50546000Y-60198000D01*
X54436100Y-60198000D02*
X54563100Y-60071000D01*
D41*
%TO.N,Net-(D1-A)*%
X81601100Y-37532250D02*
X81535100Y-37466250D01*
X86361100Y-37532250D02*
X81601100Y-37532250D01*
%TO.N,Net-(D2-A)*%
X52806600Y-62023000D02*
X52806600Y-63791500D01*
%TO.N,Net-(D3-A)*%
X78868100Y-38711500D02*
X78868100Y-38228100D01*
X78740000Y-38100000D02*
X77203100Y-38100000D01*
X78868100Y-38228100D02*
X78740000Y-38100000D01*
%TO.N,Net-(D4-A)*%
X88162600Y-34798000D02*
X89790100Y-34798000D01*
%TO.N,/SWDIO*%
X79248000Y-62992000D02*
X77216000Y-60960000D01*
X81793000Y-64770000D02*
X81793000Y-64521000D01*
X81793000Y-64521000D02*
X80264000Y-62992000D01*
X80264000Y-62992000D02*
X79248000Y-62992000D01*
%TO.N,/SWCLK*%
X79253000Y-64267000D02*
X76454000Y-61468000D01*
X79253000Y-64770000D02*
X79253000Y-64267000D01*
%TO.N,/RX*%
X94081513Y-42657680D02*
X94081513Y-37947513D01*
X93218000Y-37084000D02*
X93218000Y-35814000D01*
X94081513Y-37947513D02*
X93218000Y-37084000D01*
%TO.N,/TX*%
X94081513Y-59797600D02*
X94081513Y-55016487D01*
X96012000Y-35814000D02*
X95758000Y-35814000D01*
X98044000Y-44958000D02*
X98044000Y-37846000D01*
X94081513Y-55016487D02*
X94234000Y-54864000D01*
X98044000Y-37846000D02*
X96012000Y-35814000D01*
D42*
%TO.N,+5V*%
X72009000Y-52451000D02*
X72009000Y-52705000D01*
X71134320Y-42657680D02*
X68834000Y-44958000D01*
D41*
X78841513Y-40563087D02*
X78868100Y-40536500D01*
D42*
X68834000Y-44958000D02*
X68834000Y-49276000D01*
X78841513Y-42657680D02*
X71134320Y-42657680D01*
X48148000Y-35560000D02*
X49784000Y-35560000D01*
D41*
X38793100Y-37380000D02*
X40344000Y-37380000D01*
D42*
X68834000Y-49276000D02*
X72009000Y-52451000D01*
X40344000Y-37380000D02*
X40386000Y-37338000D01*
D41*
X78841513Y-42657680D02*
X78841513Y-40563087D01*
%TO.N,Net-(J6-D-)*%
X45412100Y-37806000D02*
X42008100Y-37806000D01*
X45651100Y-38045000D02*
X45412100Y-37806000D01*
%TO.N,Net-(J6-D+)*%
X44171000Y-39345000D02*
X43282000Y-38456000D01*
X45651100Y-39345000D02*
X44171000Y-39345000D01*
X43282000Y-38456000D02*
X42008100Y-38456000D01*
D43*
%TO.N,Net-(JP3-A)*%
X111359600Y-44958000D02*
X113246600Y-44958000D01*
X113246600Y-44958000D02*
X113246600Y-44077500D01*
X113246600Y-44077500D02*
X113509100Y-43815000D01*
X113246600Y-45974000D02*
X113246600Y-44958000D01*
%TO.N,Net-(JP3-B)*%
X115071600Y-45974000D02*
X115071600Y-44077500D01*
X115071600Y-44077500D02*
X114809100Y-43815000D01*
X116699100Y-45974000D02*
X115071600Y-45974000D01*
%TO.N,Net-(JP4-A)*%
X113158100Y-49680500D02*
X113435600Y-49403000D01*
X111276600Y-50673000D02*
X113031100Y-50673000D01*
X113031100Y-50673000D02*
X113158100Y-50546000D01*
X113158100Y-50546000D02*
X113158100Y-49680500D01*
X113158100Y-51689000D02*
X113158100Y-50546000D01*
%TO.N,Net-(JP4-B)*%
X114983100Y-49650500D02*
X114735600Y-49403000D01*
X116610600Y-51689000D02*
X114983100Y-51689000D01*
X114983100Y-51689000D02*
X114983100Y-49650500D01*
%TO.N,Net-(JP5-A)*%
X113308600Y-55469000D02*
X113532600Y-55245000D01*
X113308600Y-56388000D02*
X113308600Y-55469000D01*
X111450600Y-56388000D02*
X113308600Y-56388000D01*
X113308600Y-57404000D02*
X113308600Y-56388000D01*
%TO.N,Net-(JP5-B)*%
X116737600Y-57404000D02*
X115133600Y-57404000D01*
X115133600Y-57404000D02*
X115133600Y-55546000D01*
X115133600Y-55546000D02*
X114832600Y-55245000D01*
%TO.N,Net-(JP6-A)*%
X113238100Y-62992000D02*
X113238100Y-61976000D01*
X111380100Y-61976000D02*
X113238100Y-61976000D01*
X113238100Y-61110500D02*
X113515600Y-60833000D01*
X113238100Y-61976000D02*
X113238100Y-61110500D01*
%TO.N,Net-(JP6-B)*%
X116667100Y-62992000D02*
X115063100Y-62992000D01*
X115063100Y-61080500D02*
X114815600Y-60833000D01*
X115063100Y-62992000D02*
X115063100Y-61080500D01*
D41*
%TO.N,Net-(Q1-G)*%
X109084600Y-44008000D02*
X107211600Y-44008000D01*
X107211600Y-44008000D02*
X107174100Y-44045500D01*
X107174100Y-44045500D02*
X104300100Y-44045500D01*
X104300100Y-44045500D02*
X104276600Y-44069000D01*
%TO.N,Net-(Q2-G)*%
X107146600Y-49723000D02*
X107085600Y-49784000D01*
X109001600Y-49723000D02*
X107146600Y-49723000D01*
X107085600Y-49784000D02*
X104188100Y-49784000D01*
%TO.N,Net-(Q3-G)*%
X104258600Y-55475500D02*
X104235100Y-55499000D01*
X109138100Y-55475500D02*
X109175600Y-55438000D01*
X107259600Y-55475500D02*
X104258600Y-55475500D01*
X107259600Y-55475500D02*
X109138100Y-55475500D01*
%TO.N,Net-(Q4-G)*%
X109105100Y-61026000D02*
X107250100Y-61026000D01*
X107250100Y-61026000D02*
X107189100Y-61087000D01*
X104164600Y-61087000D02*
X107189100Y-61087000D01*
%TO.N,/WP*%
X58166000Y-46482000D02*
X58166000Y-42672000D01*
X65532000Y-48006000D02*
X59690000Y-48006000D01*
X77323600Y-59797600D02*
X65532000Y-48006000D01*
X65763600Y-38227000D02*
X66906600Y-38227000D01*
X78841513Y-60045513D02*
X78841513Y-59797600D01*
X66906600Y-38227000D02*
X67795600Y-37338000D01*
X63881000Y-38227000D02*
X65763600Y-38227000D01*
X59690000Y-48006000D02*
X58166000Y-46482000D01*
X59182000Y-41656000D02*
X61976000Y-41656000D01*
X58166000Y-42672000D02*
X59182000Y-41656000D01*
X62738000Y-40894000D02*
X62738000Y-39370000D01*
X61976000Y-41656000D02*
X62738000Y-40894000D01*
X62738000Y-39370000D02*
X63881000Y-38227000D01*
%TO.N,/SDA*%
X67772100Y-40767000D02*
X67899100Y-40894000D01*
X65763600Y-40767000D02*
X67772100Y-40767000D01*
X65763600Y-40767000D02*
X65763600Y-43307000D01*
X83058000Y-46736000D02*
X89001513Y-52679513D01*
X70358000Y-46736000D02*
X83058000Y-46736000D01*
X89001513Y-52679513D02*
X89001513Y-59797600D01*
X65763600Y-43307000D02*
X66144600Y-43688000D01*
%TO.N,/SCL*%
X63500000Y-40132000D02*
X63500000Y-41530100D01*
X65763600Y-39497000D02*
X64135000Y-39497000D01*
X65763600Y-39497000D02*
X67772100Y-39497000D01*
X91541513Y-52933513D02*
X91541513Y-59797600D01*
X64135000Y-39497000D02*
X63500000Y-40132000D01*
X84328000Y-45720000D02*
X91541513Y-52933513D01*
X71628000Y-45720000D02*
X84328000Y-45720000D01*
X70993000Y-45085000D02*
X71628000Y-45720000D01*
X67772100Y-39497000D02*
X67899100Y-39370000D01*
X63500000Y-41530100D02*
X61342100Y-43688000D01*
%TO.N,/LED_1*%
X86461513Y-39457663D02*
X86361100Y-39357250D01*
X86461513Y-42657680D02*
X86461513Y-39457663D01*
%TO.N,/R_LED_d*%
X98806000Y-48768000D02*
X92456000Y-48768000D01*
X102451600Y-44069000D02*
X102451600Y-45122400D01*
X102451600Y-45122400D02*
X98806000Y-48768000D01*
X91541513Y-47853513D02*
X91541513Y-42657680D01*
X102451600Y-44106400D02*
X102451600Y-44069000D01*
X91694000Y-42810167D02*
X91541513Y-42657680D01*
X92456000Y-48768000D02*
X91541513Y-47853513D01*
%TO.N,/G_LED_d*%
X98044000Y-61468000D02*
X99060000Y-60452000D01*
X99060000Y-50292000D02*
X99568000Y-49784000D01*
X99060000Y-60452000D02*
X99060000Y-50292000D01*
X86461513Y-59797600D02*
X86461513Y-61061513D01*
X86868000Y-61468000D02*
X98044000Y-61468000D01*
X99568000Y-49784000D02*
X102363100Y-49784000D01*
X86461513Y-61061513D02*
X86868000Y-61468000D01*
%TO.N,/B_LED_d*%
X99822000Y-56134000D02*
X100457000Y-55499000D01*
X83921513Y-59797600D02*
X83921513Y-61569513D01*
X84582000Y-62230000D02*
X98552000Y-62230000D01*
X83921513Y-61569513D02*
X84582000Y-62230000D01*
X98552000Y-62230000D02*
X99822000Y-60960000D01*
X100457000Y-55499000D02*
X102410100Y-55499000D01*
X99822000Y-60960000D02*
X99822000Y-56134000D01*
%TO.N,/W_LED_d*%
X81381513Y-61569513D02*
X82804000Y-62992000D01*
X81381513Y-59797600D02*
X81381513Y-58318487D01*
X98933000Y-62992000D02*
X100838000Y-61087000D01*
X82804000Y-62992000D02*
X98933000Y-62992000D01*
X100838000Y-61087000D02*
X102339600Y-61087000D01*
%TD*%
%TA.AperFunction,Conductor*%
%TO.N,+12V*%
G36*
X45437005Y-44711855D02*
G01*
X45482725Y-44728953D01*
X45520654Y-44751526D01*
X51249957Y-49733528D01*
X51281430Y-49775685D01*
X51296839Y-49809503D01*
X51308000Y-49860917D01*
X51308000Y-63630000D01*
X51291387Y-63692000D01*
X51246000Y-63737387D01*
X51184000Y-63754000D01*
X47368000Y-63754000D01*
X47306000Y-63737387D01*
X47260613Y-63692000D01*
X47244000Y-63630000D01*
X47244000Y-61210000D01*
X47754600Y-61210000D01*
X47754600Y-62022049D01*
X47769986Y-62207732D01*
X47831013Y-62448721D01*
X47930866Y-62676365D01*
X48066833Y-62884477D01*
X48235196Y-63067368D01*
X48431366Y-63220053D01*
X48649993Y-63338368D01*
X48885108Y-63419083D01*
X49004599Y-63439023D01*
X49004600Y-63439022D01*
X49004600Y-61210000D01*
X49504600Y-61210000D01*
X49504600Y-63439023D01*
X49624091Y-63419083D01*
X49859206Y-63338368D01*
X50077833Y-63220053D01*
X50274003Y-63067368D01*
X50442366Y-62884477D01*
X50578333Y-62676365D01*
X50678186Y-62448721D01*
X50739213Y-62207732D01*
X50754600Y-62022049D01*
X50754600Y-61210000D01*
X49504600Y-61210000D01*
X49004600Y-61210000D01*
X47754600Y-61210000D01*
X47244000Y-61210000D01*
X47244000Y-60710000D01*
X47754600Y-60710000D01*
X49004600Y-60710000D01*
X49004600Y-58480978D01*
X49004599Y-58480976D01*
X49504600Y-58480976D01*
X49504600Y-60710000D01*
X50754600Y-60710000D01*
X50754600Y-59897951D01*
X50739213Y-59712267D01*
X50678186Y-59471278D01*
X50578333Y-59243634D01*
X50442366Y-59035522D01*
X50274003Y-58852631D01*
X50077833Y-58699946D01*
X49859206Y-58581631D01*
X49624091Y-58500916D01*
X49504600Y-58480976D01*
X49004599Y-58480976D01*
X48885108Y-58500916D01*
X48649993Y-58581631D01*
X48431366Y-58699946D01*
X48235196Y-58852631D01*
X48066833Y-59035522D01*
X47930866Y-59243634D01*
X47831013Y-59471278D01*
X47769986Y-59712267D01*
X47754600Y-59897951D01*
X47754600Y-60710000D01*
X47244000Y-60710000D01*
X47244000Y-51612001D01*
X47244000Y-51612000D01*
X47244000Y-51562000D01*
X45974000Y-50038000D01*
X45924000Y-50038000D01*
X39960934Y-50038000D01*
X39896606Y-50020009D01*
X39850945Y-49971257D01*
X39837200Y-49905890D01*
X39859359Y-49842876D01*
X39966700Y-49689576D01*
X40066530Y-49475492D01*
X40123736Y-49262000D01*
X37462464Y-49262000D01*
X37519669Y-49475492D01*
X37619499Y-49689576D01*
X37726841Y-49842876D01*
X37749000Y-49905890D01*
X37735255Y-49971257D01*
X37689594Y-50020009D01*
X37625266Y-50038000D01*
X36192000Y-50038000D01*
X36130000Y-50021387D01*
X36084613Y-49976000D01*
X36068000Y-49914000D01*
X36068000Y-46722000D01*
X37462464Y-46722000D01*
X37519669Y-46935492D01*
X37619499Y-47149576D01*
X37754993Y-47343081D01*
X37922018Y-47510106D01*
X38108131Y-47640425D01*
X38146996Y-47684743D01*
X38161007Y-47742000D01*
X38146996Y-47799257D01*
X38108131Y-47843575D01*
X37922018Y-47973893D01*
X37754990Y-48140921D01*
X37619500Y-48334421D01*
X37519669Y-48548507D01*
X37462464Y-48761999D01*
X37462464Y-48762000D01*
X38543100Y-48762000D01*
X38543100Y-46722000D01*
X39043100Y-46722000D01*
X39043100Y-48762000D01*
X40123736Y-48762000D01*
X40123735Y-48761999D01*
X40066530Y-48548507D01*
X39966699Y-48334421D01*
X39831209Y-48140921D01*
X39664181Y-47973893D01*
X39478068Y-47843575D01*
X39439203Y-47799257D01*
X39425192Y-47742000D01*
X39439203Y-47684743D01*
X39478068Y-47640425D01*
X39664181Y-47510106D01*
X39831206Y-47343081D01*
X39966700Y-47149576D01*
X40066530Y-46935492D01*
X40123736Y-46722000D01*
X39043100Y-46722000D01*
X38543100Y-46722000D01*
X37462464Y-46722000D01*
X36068000Y-46722000D01*
X36068000Y-46222000D01*
X37462464Y-46222000D01*
X38543100Y-46222000D01*
X38543100Y-45141364D01*
X39043100Y-45141364D01*
X39043100Y-46222000D01*
X40123736Y-46222000D01*
X40123735Y-46221999D01*
X40066530Y-46008507D01*
X39966699Y-45794421D01*
X39831209Y-45600921D01*
X39664181Y-45433893D01*
X39470676Y-45298399D01*
X39256592Y-45198569D01*
X39043100Y-45141364D01*
X38543100Y-45141364D01*
X38543099Y-45141364D01*
X38329607Y-45198569D01*
X38115521Y-45298400D01*
X37922021Y-45433890D01*
X37754990Y-45600921D01*
X37619500Y-45794421D01*
X37519669Y-46008507D01*
X37462464Y-46221999D01*
X37462464Y-46222000D01*
X36068000Y-46222000D01*
X36068000Y-44828000D01*
X36084613Y-44766000D01*
X36130000Y-44720613D01*
X36192000Y-44704000D01*
X45393572Y-44704000D01*
X45437005Y-44711855D01*
G37*
%TD.AperFunction*%
%TD*%
%TA.AperFunction,Conductor*%
%TO.N,/V_LED*%
G36*
X124202091Y-37093439D02*
G01*
X124242319Y-37120319D01*
X125439681Y-38317681D01*
X125466561Y-38357909D01*
X125476000Y-38405362D01*
X125476000Y-47374000D01*
X125459387Y-47436000D01*
X125414000Y-47481387D01*
X125352000Y-47498000D01*
X124833199Y-47498000D01*
X124774182Y-47483055D01*
X124770501Y-47481063D01*
X124550984Y-47405702D01*
X124361001Y-47374000D01*
X124322049Y-47367500D01*
X124089951Y-47367500D01*
X124050999Y-47374000D01*
X123861015Y-47405702D01*
X123641498Y-47481063D01*
X123637818Y-47483055D01*
X123578801Y-47498000D01*
X122806000Y-47498000D01*
X122744000Y-47481387D01*
X122698613Y-47436000D01*
X122682000Y-47374000D01*
X122682000Y-40386001D01*
X122681999Y-40385999D01*
X121920000Y-39624000D01*
X118742000Y-39624000D01*
X118680000Y-39607387D01*
X118634613Y-39562000D01*
X118618000Y-39500000D01*
X118618000Y-37380620D01*
X118636505Y-37315453D01*
X118686496Y-37269736D01*
X118753052Y-37257114D01*
X118816311Y-37281353D01*
X118923769Y-37361796D01*
X119058617Y-37412091D01*
X119118227Y-37418500D01*
X120913972Y-37418499D01*
X120973583Y-37412091D01*
X121108431Y-37361796D01*
X121223646Y-37275546D01*
X121309896Y-37160331D01*
X121309897Y-37160327D01*
X121316593Y-37151383D01*
X121334715Y-37122432D01*
X121375646Y-37094012D01*
X121424460Y-37084000D01*
X124154638Y-37084000D01*
X124202091Y-37093439D01*
G37*
%TD.AperFunction*%
%TD*%
M02*
